/* XPM */
static char *result[] = {
/* columns rows colors chars-per-pixel */
"96 192 6 1 ",
"  c #25131A",
". c #BC4C51",
"X c #D1851E",
"o c #FFD569",
"O c #90919E",
"+ c None",
/* pixels */
"++++++++++++++++++++++++++++++++++++++++++++++++++++++++++++++++++++++++++++++++++++++++++++++++",
"++++++++++++++++++++++++++++++++++++++++++++++++++++++++++++++++++++++++++++++++++++++++++++++++",
"++++++++++++++++++++++++++++++++++++++++++++++++++++++++++++++++++++++++++++++++++++++++++++++++",
"++++++++++++++++++++++++++++++++++++++++++++++++++++++++++++++++++++++++++++++++++++++++++++++++",
"++++++++++++++++++++++++++++++++++++++++++++++++++++++++++++++++++++++++++++++++++++++++++++++++",
"++++++++++++++++++++++++++++++++++++++++++++++++++++++++++++++++++++++++++++++++++++++++++++++++",
"++++++++++++++++++++++++++++++++++++++++++++++++++++++++++++++++++++++++++++++++++++++++++++++++",
"++++++++++++++++++++++++++++++++++++++++++++++++++++++++++++++++++++++++++++++++++++++++++++++++",
"++++++++++++++++++++++++++++++++++++++++++++++++++++++++++++++++++++++++++++++++++++++++++++++++",
"++++++++++++++++++++++++++++++++++++++++++++++++++++++++++++++++++++++++++++++++++++++++++++++++",
"++++++++++++++++++++++++++++++++++++++++++++++++++++++++++++++++++++++++++++++++++++++++++++++++",
"++++++++++++++++++++++++++++++++++++++++++++++++++++++++++++++++++++++++++++++++++++++++++++++++",
"++++++++++++++++++++++++++++++++++++++++++++++++++++++++++++++++++++++++++++++++++++++++++++++++",
"++++++++++++++++++++++++++++++++++++++++++++++++++++++++++++++++++++++++++++++++++++++++++++++++",
"++++++++++++++++++++++++++++++++++++++++++++++++++++++++++++++++++++++++++++++++++++++++++++++++",
"++++++++++++++++++++++++++++++++++++++++++++++++++++++++++++++++++++++++++++++++++++++++++++++++",
"++++++++++++++++++++++++++++++++++++++++++++++++++++++++++++++++++++++++++++++++++++++++++++++++",
"++++++++++++++++++++++++++++++++++++++++++++++++++++++++++++++++++++++++++++++++++++++++++++++++",
"++++++++++++++++++++++++++++++++++++++++++++++++++++++++++++++++++++++++++++++++++++++++++++++++",
"++++++++++++++++++++++++++++++++++++++++++++++++++++++++++++++++++++++++++++++++++++++++++++++++",
"++++++++++++++++++++++++++++++++++++++++++++++++++++++++++++++++++++++++++++++++++++++++++++++++",
"++++++++++++++++++++++++++++++++++++++++++++++++++++++++++++++++++++++++++++++++++++++++++++++++",
"++++++++++++++++++++++++++++++++++++++++++++++++++++++++++++++++++++++++++++++++++++++++++++++++",
"++++++++++++++++++++++++++++++++++++++++++++++++++++++++++++++++++++++++++++++++++++++++++++++++",
"++++++++++++++++++++++++++++++++++++++++++++++++++++++++++++++++++++++++++++++++++++++++++++++++",
"++++++++++++++++++++++++++++++++++++++++++++++++++++++++++++++++++++++++++++++++++++++++++++++++",
"++++++++++++++++++++++++++++++++++++++++++++++++++++++++++++++++++++++++++++++++++++++++++++++++",
"++++++++++++++++++++++++++++++++++++++++++++++++++++++++++++++++++++++++++++++++++++++++++++++++",
"++++++++++++++++++++++++++++++++++++++++++++++++++++++++++++++++++++++++++++++++++++++++++++++++",
"++++++++++++++++++++++++++++++++++++++++++++++++++++++++++++++++++++++++++++++++++++++++++++++++",
"++++++++++++++++++++++++++++++++++++++++++++++++++++++++++++++++++++++++++++++++++++++++++++++++",
"++++++++++++++++++++++++++++++++++++++++++++++++++++++++++++++++++++++++++++++++++++++++++++++++",
"++++++++++++++++++++++++++++++++++++++++++++++++++++++++++++++++++++++++++++++++++++++++++++++++",
"++++++++++++++++++++++++++++++++++++++++++++++++++++++++++++++++++++++++++++++++++++++++++++++++",
"++++++++++++++++++++++++++++++++++++++++++++++++++++++++++++++++++++++++++++++++++++++++++++++++",
"++++++++++++++++++++++++++++++++++++++++++++++++++++++++++++++++++++++++++++++++++++++++++++++++",
"++++++++++++++++++++++++++++++++++++++++++++++++++++++++++++++++++++++++++++++++++++++++++++++++",
"++++++++++++++++++++++++++++++++++++++++++++++++++++++++++++++++++++++++++++++++++++++++++++++++",
"++++++++++++++++++++++++++++++++++++++++++++++++++++++++++++++++++++++++++++++++++++++++++++++++",
"++++++++++++++++++++++++++++++++++++++++++++++++++++++++++++++++++++++++++++++++++++++++++++++++",
"++++++++++++++++++++++++++++++++++++++++++++++++++++++++++++++++++++++++++++++++++++++++++++++++",
"++++++++++++++++++++++++++++++++++++++++++++++++++++++++++++++++++++++++++++++++++++++++++++++++",
"++++++++++++++++++            ++++++++++++++++++++++++++++++++++++            ++++++++++++++++++",
"++++++++++++++++++            ++++++++++++++++++++++++++++++++++++            ++++++++++++++++++",
"++++++++++++++++++            ++++++++++++++++++++++++++++++++++++            ++++++++++++++++++",
"++++++++++++++++++            ++++++++++++++++++++++++++++++++++++            ++++++++++++++++++",
"++++++++++++++++++            ++++++++++++++++++++++++++++++++++++            ++++++++++++++++++",
"++++++++++++++++++            ++++++++++++++++++++++++++++++++++++            ++++++++++++++++++",
"++++++++++++++++++OOOOOOOOOOOO++++++++++++++++++++++++++++++++++++OOOOOOOOOOOO++++++++++++++++++",
"++++++++++++++++++OOOOOOOOOOOO++++++++++++++++++++++++++++++++++++OOOOOOOOOOOO++++++++++++++++++",
"++++++++++++++++++OOOOOOOOOOOO++++++++++++++++++++++++++++++++++++OOOOOOOOOOOO++++++++++++++++++",
"++++++++++++++++++OOOOOOOOOOOO++++++++++++++++++++++++++++++++++++OOOOOOOOOOOO++++++++++++++++++",
"++++++++++++++++++OOOOOOOOOOOO++++++++++++++++++++++++++++++++++++OOOOOOOOOOOO++++++++++++++++++",
"++++++++++++++++++OOOOOOOOOOOO++++++++++++++++++++++++++++++++++++OOOOOOOOOOOO++++++++++++++++++",
"++++++++++++++++++++++++++++++++++++++++++++++++++++++++++++++++++++++++++++++++++++++++++++++++",
"++++++++++++++++++++++++++++++++++++++++++++++++++++++++++++++++++++++++++++++++++++++++++++++++",
"++++++++++++++++++++++++++++++++++++++++++++++++++++++++++++++++++++++++++++++++++++++++++++++++",
"++++++++++++++++++++++++++++++++++++++++++++++++++++++++++++++++++++++++++++++++++++++++++++++++",
"++++++++++++++++++++++++++++++++++++++++++++++++++++++++++++++++++++++++++++++++++++++++++++++++",
"++++++++++++++++++++++++++++++++++++++++++++++++++++++++++++++++++++++++++++++++++++++++++++++++",
"++++++++++++++++++......++++++++++++++++++            ++++++++++++++++++......++++++++++++++++++",
"++++++++++++++++++......++++++++++++++++++            ++++++++++++++++++......++++++++++++++++++",
"++++++++++++++++++......++++++++++++++++++            ++++++++++++++++++......++++++++++++++++++",
"++++++++++++++++++......++++++++++++++++++            ++++++++++++++++++......++++++++++++++++++",
"++++++++++++++++++......++++++++++++++++++            ++++++++++++++++++......++++++++++++++++++",
"++++++++++++++++++......++++++++++++++++++            ++++++++++++++++++......++++++++++++++++++",
"++++++++++++++++++......++++++++++++++++++OOOOOOOOOOOO++++++++++++++++++......++++++++++++++++++",
"++++++++++++++++++......++++++++++++++++++OOOOOOOOOOOO++++++++++++++++++......++++++++++++++++++",
"++++++++++++++++++......++++++++++++++++++OOOOOOOOOOOO++++++++++++++++++......++++++++++++++++++",
"++++++++++++++++++......++++++++++++++++++OOOOOOOOOOOO++++++++++++++++++......++++++++++++++++++",
"++++++++++++++++++......++++++++++++++++++OOOOOOOOOOOO++++++++++++++++++......++++++++++++++++++",
"++++++++++++++++++......++++++++++++++++++OOOOOOOOOOOO++++++++++++++++++......++++++++++++++++++",
"++++++++++++++++++......++++++++++++++++++++++++++++++++++++++++++++++++......++++++++++++++++++",
"++++++++++++++++++......++++++++++++++++++++++++++++++++++++++++++++++++......++++++++++++++++++",
"++++++++++++++++++......++++++++++++++++++++++++++++++++++++++++++++++++......++++++++++++++++++",
"++++++++++++++++++......++++++++++++++++++++++++++++++++++++++++++++++++......++++++++++++++++++",
"++++++++++++++++++......++++++++++++++++++++++++++++++++++++++++++++++++......++++++++++++++++++",
"++++++++++++++++++......++++++++++++++++++++++++++++++++++++++++++++++++......++++++++++++++++++",
"++++++++++++..................++++++++++++......++++++++++++++++++..................++++++++++++",
"++++++++++++..................++++++++++++......++++++++++++++++++..................++++++++++++",
"++++++++++++..................++++++++++++......++++++++++++++++++..................++++++++++++",
"++++++++++++..................++++++++++++......++++++++++++++++++..................++++++++++++",
"++++++++++++..................++++++++++++......++++++++++++++++++..................++++++++++++",
"++++++++++++..................++++++++++++......++++++++++++++++++..................++++++++++++",
"++++++++++++..................++++++++++++......++++++++++++++++++..................++++++++++++",
"++++++++++++..................++++++++++++......++++++++++++++++++..................++++++++++++",
"++++++++++++..................++++++++++++......++++++++++++++++++..................++++++++++++",
"++++++++++++..................++++++++++++......++++++++++++++++++..................++++++++++++",
"++++++++++++..................++++++++++++......++++++++++++++++++..................++++++++++++",
"++++++++++++..................++++++++++++......++++++++++++++++++..................++++++++++++",
"++++++........................++++++++++++++++++++++++++++++........................++++++++++++",
"++++++........................++++++++++++++++++++++++++++++........................++++++++++++",
"++++++........................++++++++++++++++++++++++++++++........................++++++++++++",
"++++++........................++++++++++++++++++++++++++++++........................++++++++++++",
"++++++........................++++++++++++++++++++++++++++++........................++++++++++++",
"++++++........................++++++++++++++++++++++++++++++........................++++++++++++",
"++++++............XXXXXX............++++++++++++++++++++++++..............................++++++",
"++++++............XXXXXX............++++++++++++++++++++++++..............................++++++",
"++++++............XXXXXX............++++++++++++++++++++++++..............................++++++",
"++++++............XXXXXX............++++++++++++++++++++++++..............................++++++",
"++++++............XXXXXX............++++++++++++++++++++++++..............................++++++",
"++++++............XXXXXX............++++++++++++++++++++++++..............................++++++",
"++++++............XXXXXX..................++++++++++++++++++......XXXXXX............XXXXXX......",
"++++++............XXXXXX..................++++++++++++++++++......XXXXXX............XXXXXX......",
"++++++............XXXXXX..................++++++++++++++++++......XXXXXX............XXXXXX......",
"++++++............XXXXXX..................++++++++++++++++++......XXXXXX............XXXXXX......",
"++++++............XXXXXX..................++++++++++++++++++......XXXXXX............XXXXXX......",
"++++++............XXXXXX..................++++++++++++++++++......XXXXXX............XXXXXX......",
"............XXXXXXXXXXXX......XXXXXX......++++++++++++............XXXXXX............XXXXXX......",
"............XXXXXXXXXXXX......XXXXXX......++++++++++++............XXXXXX............XXXXXX......",
"............XXXXXXXXXXXX......XXXXXX......++++++++++++............XXXXXX............XXXXXX......",
"............XXXXXXXXXXXX......XXXXXX......++++++++++++............XXXXXX............XXXXXX......",
"............XXXXXXXXXXXX......XXXXXX......++++++++++++............XXXXXX............XXXXXX......",
"............XXXXXXXXXXXX......XXXXXX......++++++++++++............XXXXXX............XXXXXX......",
"............XXXXXXXXXXXX......XXXXXX......++++++++++++........................XXXXXXXXXXXX......",
"............XXXXXXXXXXXX......XXXXXX......++++++++++++........................XXXXXXXXXXXX......",
"............XXXXXXXXXXXX......XXXXXX......++++++++++++........................XXXXXXXXXXXX......",
"............XXXXXXXXXXXX......XXXXXX......++++++++++++........................XXXXXXXXXXXX......",
"............XXXXXXXXXXXX......XXXXXX......++++++++++++........................XXXXXXXXXXXX......",
"............XXXXXXXXXXXX......XXXXXX......++++++++++++........................XXXXXXXXXXXX......",
"......XXXXXXooooooXXXXXX..................++++++++++++........................XXXXXXoooooo......",
"......XXXXXXooooooXXXXXX..................++++++++++++........................XXXXXXoooooo......",
"......XXXXXXooooooXXXXXX..................++++++++++++........................XXXXXXoooooo......",
"......XXXXXXooooooXXXXXX..................++++++++++++........................XXXXXXoooooo......",
"......XXXXXXooooooXXXXXX..................++++++++++++........................XXXXXXoooooo......",
"......XXXXXXooooooXXXXXX..................++++++++++++........................XXXXXXoooooo......",
"......XXXXXXooooooooooooXXXXXX............++++++++++++..................XXXXXXoooooooooooo......",
"......XXXXXXooooooooooooXXXXXX............++++++++++++..................XXXXXXoooooooooooo......",
"......XXXXXXooooooooooooXXXXXX............++++++++++++..................XXXXXXoooooooooooo......",
"......XXXXXXooooooooooooXXXXXX............++++++++++++..................XXXXXXoooooooooooo......",
"......XXXXXXooooooooooooXXXXXX............++++++++++++..................XXXXXXoooooooooooo......",
"......XXXXXXooooooooooooXXXXXX............++++++++++++..................XXXXXXoooooooooooo......",
"++++++ooooooooooooooooooXXXXXXXXXXXX++++++++++++++++++++++++......XXXXXXXXXXXXoooooooooooo++++++",
"++++++ooooooooooooooooooXXXXXXXXXXXX++++++++++++++++++++++++......XXXXXXXXXXXXoooooooooooo++++++",
"++++++ooooooooooooooooooXXXXXXXXXXXX++++++++++++++++++++++++......XXXXXXXXXXXXoooooooooooo++++++",
"++++++ooooooooooooooooooXXXXXXXXXXXX++++++++++++++++++++++++......XXXXXXXXXXXXoooooooooooo++++++",
"++++++ooooooooooooooooooXXXXXXXXXXXX++++++++++++++++++++++++......XXXXXXXXXXXXoooooooooooo++++++",
"++++++ooooooooooooooooooXXXXXXXXXXXX++++++++++++++++++++++++......XXXXXXXXXXXXoooooooooooo++++++",
"++++++ooooooooooooooooooXXXXXX++++++++++++......++++++++++++XXXXXXoooooooooooooooooo++++++++++++",
"++++++ooooooooooooooooooXXXXXX++++++++++++......++++++++++++XXXXXXoooooooooooooooooo++++++++++++",
"++++++ooooooooooooooooooXXXXXX++++++++++++......++++++++++++XXXXXXoooooooooooooooooo++++++++++++",
"++++++ooooooooooooooooooXXXXXX++++++++++++......++++++++++++XXXXXXoooooooooooooooooo++++++++++++",
"++++++ooooooooooooooooooXXXXXX++++++++++++......++++++++++++XXXXXXoooooooooooooooooo++++++++++++",
"++++++ooooooooooooooooooXXXXXX++++++++++++......++++++++++++XXXXXXoooooooooooooooooo++++++++++++",
"++++++++++++oooooooooooooooooo++++++..................++++++++++++oooooooooooooooooo++++++++++++",
"++++++++++++oooooooooooooooooo++++++..................++++++++++++oooooooooooooooooo++++++++++++",
"++++++++++++oooooooooooooooooo++++++..................++++++++++++oooooooooooooooooo++++++++++++",
"++++++++++++oooooooooooooooooo++++++..................++++++++++++oooooooooooooooooo++++++++++++",
"++++++++++++oooooooooooooooooo++++++..................++++++++++++oooooooooooooooooo++++++++++++",
"++++++++++++oooooooooooooooooo++++++..................++++++++++++oooooooooooooooooo++++++++++++",
"++++++++++++++++++++++++++++++............XXXXXX............++++++++++++++++++++++++++++++++++++",
"++++++++++++++++++++++++++++++............XXXXXX............++++++++++++++++++++++++++++++++++++",
"++++++++++++++++++++++++++++++............XXXXXX............++++++++++++++++++++++++++++++++++++",
"++++++++++++++++++++++++++++++............XXXXXX............++++++++++++++++++++++++++++++++++++",
"++++++++++++++++++++++++++++++............XXXXXX............++++++++++++++++++++++++++++++++++++",
"++++++++++++++++++++++++++++++............XXXXXX............++++++++++++++++++++++++++++++++++++",
"++++++++++++++++++++++++++++++......XXXXXXoooooo............++++++++++++++++++++++++++++++++++++",
"++++++++++++++++++++++++++++++......XXXXXXoooooo............++++++++++++++++++++++++++++++++++++",
"++++++++++++++++++++++++++++++......XXXXXXoooooo............++++++++++++++++++++++++++++++++++++",
"++++++++++++++++++++++++++++++......XXXXXXoooooo............++++++++++++++++++++++++++++++++++++",
"++++++++++++++++++++++++++++++......XXXXXXoooooo............++++++++++++++++++++++++++++++++++++",
"++++++++++++++++++++++++++++++......XXXXXXoooooo............++++++++++++++++++++++++++++++++++++",
"++++++++++++++++++++++++++++++......ooooooooooooXXXXXX......++++++++++++++++++++++++++++++++++++",
"++++++++++++++++++++++++++++++......ooooooooooooXXXXXX......++++++++++++++++++++++++++++++++++++",
"++++++++++++++++++++++++++++++......ooooooooooooXXXXXX......++++++++++++++++++++++++++++++++++++",
"++++++++++++++++++++++++++++++......ooooooooooooXXXXXX......++++++++++++++++++++++++++++++++++++",
"++++++++++++++++++++++++++++++......ooooooooooooXXXXXX......++++++++++++++++++++++++++++++++++++",
"++++++++++++++++++++++++++++++......ooooooooooooXXXXXX......++++++++++++++++++++++++++++++++++++",
"++++++++++++++++++++++++++++++++++++oooooooooooooooooo++++++++++++++++++++++++++++++++++++++++++",
"++++++++++++++++++++++++++++++++++++oooooooooooooooooo++++++++++++++++++++++++++++++++++++++++++",
"++++++++++++++++++++++++++++++++++++oooooooooooooooooo++++++++++++++++++++++++++++++++++++++++++",
"++++++++++++++++++++++++++++++++++++oooooooooooooooooo++++++++++++++++++++++++++++++++++++++++++",
"++++++++++++++++++++++++++++++++++++oooooooooooooooooo++++++++++++++++++++++++++++++++++++++++++",
"++++++++++++++++++++++++++++++++++++oooooooooooooooooo++++++++++++++++++++++++++++++++++++++++++",
"++++++++++++++++++++++++++++++++++++++++++++++++++++++++++++++++++++++++++++++++++++++++++++++++",
"++++++++++++++++++++++++++++++++++++++++++++++++++++++++++++++++++++++++++++++++++++++++++++++++",
"++++++++++++++++++++++++++++++++++++++++++++++++++++++++++++++++++++++++++++++++++++++++++++++++",
"++++++++++++++++++++++++++++++++++++++++++++++++++++++++++++++++++++++++++++++++++++++++++++++++",
"++++++++++++++++++++++++++++++++++++++++++++++++++++++++++++++++++++++++++++++++++++++++++++++++",
"++++++++++++++++++++++++++++++++++++++++++++++++++++++++++++++++++++++++++++++++++++++++++++++++",
"++++++++++++++++++++++++++++++++++++++++++++++++++++++++++++++++++++++++++++++++++++++++++++++++",
"++++++++++++++++++++++++++++++++++++++++++++++++++++++++++++++++++++++++++++++++++++++++++++++++",
"++++++++++++++++++++++++++++++++++++++++++++++++++++++++++++++++++++++++++++++++++++++++++++++++",
"++++++++++++++++++++++++++++++++++++++++++++++++++++++++++++++++++++++++++++++++++++++++++++++++",
"++++++++++++++++++++++++++++++++++++++++++++++++++++++++++++++++++++++++++++++++++++++++++++++++",
"++++++++++++++++++++++++++++++++++++++++++++++++++++++++++++++++++++++++++++++++++++++++++++++++",
"++++++++++++++++++++++++++++++++++++++++++++++++++++++++++++++++++++++++++++++++++++++++++++++++",
"++++++++++++++++++++++++++++++++++++++++++++++++++++++++++++++++++++++++++++++++++++++++++++++++",
"++++++++++++++++++++++++++++++++++++++++++++++++++++++++++++++++++++++++++++++++++++++++++++++++",
"++++++++++++++++++++++++++++++++++++++++++++++++++++++++++++++++++++++++++++++++++++++++++++++++",
"++++++++++++++++++++++++++++++++++++++++++++++++++++++++++++++++++++++++++++++++++++++++++++++++",
"++++++++++++++++++++++++++++++++++++++++++++++++++++++++++++++++++++++++++++++++++++++++++++++++"
};
