/* XPM */
static char *result[] = {
/* columns rows colors chars-per-pixel */
"96 96 6 1 ",
"  c #25131A",
". c #56587B",
"X c #577EA1",
"o c #62ABD4",
"O c #A7D1E6",
"+ c None",
/* pixels */
"++++++++++++++++++++++++++++++++++++      ++++++++++++++++++++++++++++++++++++++++++++++++++++++",
"++++++++++++++++++++++++++++++++++++      ++++++++++++++++++++++++++++++++++++++++++++++++++++++",
"++++++++++++++++++++++++++++++++++++      ++++++++++++++++++++++++++++++++++++++++++++++++++++++",
"++++++++++++++++++++++++++++++++++++      ++++++++++++++++++++++++++++++++++++++++++++++++++++++",
"++++++++++++++++++++++++++++++++++++      ++++++++++++++++++++++++++++++++++++++++++++++++++++++",
"++++++++++++++++++++++++++++++++++++      ++++++++++++++++++++++++++++++++++++++++++++++++++++++",
"++++++++++++++++++++++++++++++      oooooo            ++++++++++++++++++++++++++++++++++++++++++",
"++++++++++++++++++++++++++++++      oooooo            ++++++++++++++++++++++++++++++++++++++++++",
"++++++++++++++++++++++++++++++      oooooo            ++++++++++++++++++++++++++++++++++++++++++",
"++++++++++++++++++++++++++++++      oooooo            ++++++++++++++++++++++++++++++++++++++++++",
"++++++++++++++++++++++++++++++      oooooo            ++++++++++++++++++++++++++++++++++++++++++",
"++++++++++++++++++++++++++++++      oooooo            ++++++++++++++++++++++++++++++++++++++++++",
"++++++++++++++++++++++++++++++      ooooooOOOOOOoooooo            ++++++++++++++++++++++++++++++",
"++++++++++++++++++++++++++++++      ooooooOOOOOOoooooo            ++++++++++++++++++++++++++++++",
"++++++++++++++++++++++++++++++      ooooooOOOOOOoooooo            ++++++++++++++++++++++++++++++",
"++++++++++++++++++++++++++++++      ooooooOOOOOOoooooo            ++++++++++++++++++++++++++++++",
"++++++++++++++++++++++++++++++      ooooooOOOOOOoooooo            ++++++++++++++++++++++++++++++",
"++++++++++++++++++++++++++++++      ooooooOOOOOOoooooo            ++++++++++++++++++++++++++++++",
"++++++++++++++++++      ++++++      ooooooOOOOOOOOOOOOoooooooooooo      ++++++++++++++++++++++++",
"++++++++++++++++++      ++++++      ooooooOOOOOOOOOOOOoooooooooooo      ++++++++++++++++++++++++",
"++++++++++++++++++      ++++++      ooooooOOOOOOOOOOOOoooooooooooo      ++++++++++++++++++++++++",
"++++++++++++++++++      ++++++      ooooooOOOOOOOOOOOOoooooooooooo      ++++++++++++++++++++++++",
"++++++++++++++++++      ++++++      ooooooOOOOOOOOOOOOoooooooooooo      ++++++++++++++++++++++++",
"++++++++++++++++++      ++++++      ooooooOOOOOOOOOOOOoooooooooooo      ++++++++++++++++++++++++",
"++++++++++++      oooooo      ooooooOOOOOOOOOOOOOOOOOOOOOOOOoooooo      ++++++++++++++++++++++++",
"++++++++++++      oooooo      ooooooOOOOOOOOOOOOOOOOOOOOOOOOoooooo      ++++++++++++++++++++++++",
"++++++++++++      oooooo      ooooooOOOOOOOOOOOOOOOOOOOOOOOOoooooo      ++++++++++++++++++++++++",
"++++++++++++      oooooo      ooooooOOOOOOOOOOOOOOOOOOOOOOOOoooooo      ++++++++++++++++++++++++",
"++++++++++++      oooooo      ooooooOOOOOOOOOOOOOOOOOOOOOOOOoooooo      ++++++++++++++++++++++++",
"++++++++++++      oooooo      ooooooOOOOOOOOOOOOOOOOOOOOOOOOoooooo      ++++++++++++++++++++++++",
"++++++++++++      OOOOOOoooooooooooo                              oooooo      ++++++++++++++++++",
"++++++++++++      OOOOOOoooooooooooo                              oooooo      ++++++++++++++++++",
"++++++++++++      OOOOOOoooooooooooo                              oooooo      ++++++++++++++++++",
"++++++++++++      OOOOOOoooooooooooo                              oooooo      ++++++++++++++++++",
"++++++++++++      OOOOOOoooooooooooo                              oooooo      ++++++++++++++++++",
"++++++++++++      OOOOOOoooooooooooo                              oooooo      ++++++++++++++++++",
"++++++++++++      OOOOOOOOOOOO      XXXXXXooooooooooooooooooXXXXXX            ++++++++++++++++++",
"++++++++++++      OOOOOOOOOOOO      XXXXXXooooooooooooooooooXXXXXX            ++++++++++++++++++",
"++++++++++++      OOOOOOOOOOOO      XXXXXXooooooooooooooooooXXXXXX            ++++++++++++++++++",
"++++++++++++      OOOOOOOOOOOO      XXXXXXooooooooooooooooooXXXXXX            ++++++++++++++++++",
"++++++++++++      OOOOOOOOOOOO      XXXXXXooooooooooooooooooXXXXXX            ++++++++++++++++++",
"++++++++++++      OOOOOOOOOOOO      XXXXXXooooooooooooooooooXXXXXX            ++++++++++++++++++",
"++++++++++++++++++            XXXXXXooooooooooooooooooooooooooooooXXXXXX      ++++++++++++++++++",
"++++++++++++++++++            XXXXXXooooooooooooooooooooooooooooooXXXXXX      ++++++++++++++++++",
"++++++++++++++++++            XXXXXXooooooooooooooooooooooooooooooXXXXXX      ++++++++++++++++++",
"++++++++++++++++++            XXXXXXooooooooooooooooooooooooooooooXXXXXX      ++++++++++++++++++",
"++++++++++++++++++            XXXXXXooooooooooooooooooooooooooooooXXXXXX      ++++++++++++++++++",
"++++++++++++++++++            XXXXXXooooooooooooooooooooooooooooooXXXXXX      ++++++++++++++++++",
"++++++++++++++++++            XXXXXX............      oooooo......            ++++++++++++++++++",
"++++++++++++++++++            XXXXXX............      oooooo......            ++++++++++++++++++",
"++++++++++++++++++            XXXXXX............      oooooo......            ++++++++++++++++++",
"++++++++++++++++++            XXXXXX............      oooooo......            ++++++++++++++++++",
"++++++++++++++++++            XXXXXX............      oooooo......            ++++++++++++++++++",
"++++++++++++++++++            XXXXXX............      oooooo......            ++++++++++++++++++",
"++++++++++++++++++++++++      XXXXXX                  oooooo                  ++++++++++++++++++",
"++++++++++++++++++++++++      XXXXXX                  oooooo                  ++++++++++++++++++",
"++++++++++++++++++++++++      XXXXXX                  oooooo                  ++++++++++++++++++",
"++++++++++++++++++++++++      XXXXXX                  oooooo                  ++++++++++++++++++",
"++++++++++++++++++++++++      XXXXXX                  oooooo                  ++++++++++++++++++",
"++++++++++++++++++++++++      XXXXXX                  oooooo                  ++++++++++++++++++",
"++++++++++++++++++++++++++++++      XXXXXXooooooooooooooooooooooooXXXXXX      ++++++++++++++++++",
"++++++++++++++++++++++++++++++      XXXXXXooooooooooooooooooooooooXXXXXX      ++++++++++++++++++",
"++++++++++++++++++++++++++++++      XXXXXXooooooooooooooooooooooooXXXXXX      ++++++++++++++++++",
"++++++++++++++++++++++++++++++      XXXXXXooooooooooooooooooooooooXXXXXX      ++++++++++++++++++",
"++++++++++++++++++++++++++++++      XXXXXXooooooooooooooooooooooooXXXXXX      ++++++++++++++++++",
"++++++++++++++++++++++++++++++      XXXXXXooooooooooooooooooooooooXXXXXX      ++++++++++++++++++",
"++++++++++++++++++++++++++++++++++++      XXXXXXoooooo      XXXXXX      ++++++++++++++++++++++++",
"++++++++++++++++++++++++++++++++++++      XXXXXXoooooo      XXXXXX      ++++++++++++++++++++++++",
"++++++++++++++++++++++++++++++++++++      XXXXXXoooooo      XXXXXX      ++++++++++++++++++++++++",
"++++++++++++++++++++++++++++++++++++      XXXXXXoooooo      XXXXXX      ++++++++++++++++++++++++",
"++++++++++++++++++++++++++++++++++++      XXXXXXoooooo      XXXXXX      ++++++++++++++++++++++++",
"++++++++++++++++++++++++++++++++++++      XXXXXXoooooo      XXXXXX      ++++++++++++++++++++++++",
"++++++++++++++++++++++++++++++++++++++++++            ++++++      ++++++++++++++++++++++++++++++",
"++++++++++++++++++++++++++++++++++++++++++            ++++++      ++++++++++++++++++++++++++++++",
"++++++++++++++++++++++++++++++++++++++++++            ++++++      ++++++++++++++++++++++++++++++",
"++++++++++++++++++++++++++++++++++++++++++            ++++++      ++++++++++++++++++++++++++++++",
"++++++++++++++++++++++++++++++++++++++++++            ++++++      ++++++++++++++++++++++++++++++",
"++++++++++++++++++++++++++++++++++++++++++            ++++++      ++++++++++++++++++++++++++++++",
"++++++++++++++++++++++++++++++++++++++++++++++++++++++++++++++++++++++++++++++++++++++++++++++++",
"++++++++++++++++++++++++++++++++++++++++++++++++++++++++++++++++++++++++++++++++++++++++++++++++",
"++++++++++++++++++++++++++++++++++++++++++++++++++++++++++++++++++++++++++++++++++++++++++++++++",
"++++++++++++++++++++++++++++++++++++++++++++++++++++++++++++++++++++++++++++++++++++++++++++++++",
"++++++++++++++++++++++++++++++++++++++++++++++++++++++++++++++++++++++++++++++++++++++++++++++++",
"++++++++++++++++++++++++++++++++++++++++++++++++++++++++++++++++++++++++++++++++++++++++++++++++",
"++++++++++++++++++++++++++++++++++++++++++++++++++++++++++++++++++++++++++++++++++++++++++++++++",
"++++++++++++++++++++++++++++++++++++++++++++++++++++++++++++++++++++++++++++++++++++++++++++++++",
"++++++++++++++++++++++++++++++++++++++++++++++++++++++++++++++++++++++++++++++++++++++++++++++++",
"++++++++++++++++++++++++++++++++++++++++++++++++++++++++++++++++++++++++++++++++++++++++++++++++",
"++++++++++++++++++++++++++++++++++++++++++++++++++++++++++++++++++++++++++++++++++++++++++++++++",
"++++++++++++++++++++++++++++++++++++++++++++++++++++++++++++++++++++++++++++++++++++++++++++++++",
"++++++++++++++++++++++++++++++++++++++++++++++++++++++++++++++++++++++++++++++++++++++++++++++++",
"++++++++++++++++++++++++++++++++++++++++++++++++++++++++++++++++++++++++++++++++++++++++++++++++",
"++++++++++++++++++++++++++++++++++++++++++++++++++++++++++++++++++++++++++++++++++++++++++++++++",
"++++++++++++++++++++++++++++++++++++++++++++++++++++++++++++++++++++++++++++++++++++++++++++++++",
"++++++++++++++++++++++++++++++++++++++++++++++++++++++++++++++++++++++++++++++++++++++++++++++++",
"++++++++++++++++++++++++++++++++++++++++++++++++++++++++++++++++++++++++++++++++++++++++++++++++"
};
