/* XPM */
static char *result[] = {
/* columns rows colors chars-per-pixel */
"96 96 6 1 ",
"  c #25131A",
". c #56587B",
"X c #577EA1",
"o c #62ABD4",
"O c #A7D1E6",
"+ c None",
/* pixels */
"++++++++++++++++++++++++++++++++++++++++++++++++++++++++++++++++++++++++++++++++++++++++++++++++",
"++++++++++++++++++++++++++++++++++++++++++++++++++++++++++++++++++++++++++++++++++++++++++++++++",
"++++++++++++++++++++++++++++++++++++++++++++++++++++++++++++++++++++++++++++++++++++++++++++++++",
"++++++++++++++++++++++++++++++++++++++++++++++++++++++++++++++++++++++++++++++++++++++++++++++++",
"++++++++++++++++++++++++++++++++++++++++++++++++++++++++++++++++++++++++++++++++++++++++++++++++",
"++++++++++++++++++++++++++++++++++++++++++++++++++++++++++++++++++++++++++++++++++++++++++++++++",
"++++++++++++++++++++++++++++++++++++++++++      ++++++++++++++++++++++++++++++++++++++++++++++++",
"++++++++++++++++++++++++++++++++++++++++++      ++++++++++++++++++++++++++++++++++++++++++++++++",
"++++++++++++++++++++++++++++++++++++++++++      ++++++++++++++++++++++++++++++++++++++++++++++++",
"++++++++++++++++++++++++++++++++++++++++++      ++++++++++++++++++++++++++++++++++++++++++++++++",
"++++++++++++++++++++++++++++++++++++++++++      ++++++++++++++++++++++++++++++++++++++++++++++++",
"++++++++++++++++++++++++++++++++++++++++++      ++++++++++++++++++++++++++++++++++++++++++++++++",
"++++++++++++++++++++++++++++++++++++      oooooo            ++++++++++++++++++++++++++++++++++++",
"++++++++++++++++++++++++++++++++++++      oooooo            ++++++++++++++++++++++++++++++++++++",
"++++++++++++++++++++++++++++++++++++      oooooo            ++++++++++++++++++++++++++++++++++++",
"++++++++++++++++++++++++++++++++++++      oooooo            ++++++++++++++++++++++++++++++++++++",
"++++++++++++++++++++++++++++++++++++      oooooo            ++++++++++++++++++++++++++++++++++++",
"++++++++++++++++++++++++++++++++++++      oooooo            ++++++++++++++++++++++++++++++++++++",
"++++++++++++++++++++++++++++++      ooooooooooooOOOOOOoooooo      ++++++++++++++++++++++++++++++",
"++++++++++++++++++++++++++++++      ooooooooooooOOOOOOoooooo      ++++++++++++++++++++++++++++++",
"++++++++++++++++++++++++++++++      ooooooooooooOOOOOOoooooo      ++++++++++++++++++++++++++++++",
"++++++++++++++++++++++++++++++      ooooooooooooOOOOOOoooooo      ++++++++++++++++++++++++++++++",
"++++++++++++++++++++++++++++++      ooooooooooooOOOOOOoooooo      ++++++++++++++++++++++++++++++",
"++++++++++++++++++++++++++++++      ooooooooooooOOOOOOoooooo      ++++++++++++++++++++++++++++++",
"++++++++++++++++++++++++            ooooooOOOOOOOOOOOOoooooooooooo      ++++++++++++++++++++++++",
"++++++++++++++++++++++++            ooooooOOOOOOOOOOOOoooooooooooo      ++++++++++++++++++++++++",
"++++++++++++++++++++++++            ooooooOOOOOOOOOOOOoooooooooooo      ++++++++++++++++++++++++",
"++++++++++++++++++++++++            ooooooOOOOOOOOOOOOoooooooooooo      ++++++++++++++++++++++++",
"++++++++++++++++++++++++            ooooooOOOOOOOOOOOOoooooooooooo      ++++++++++++++++++++++++",
"++++++++++++++++++++++++            ooooooOOOOOOOOOOOOoooooooooooo      ++++++++++++++++++++++++",
"++++++++++++++++++      ooooooooooooOOOOOOOOOOOOOOOOOOOOOOOOoooooooooooo      ++++++++++++++++++",
"++++++++++++++++++      ooooooooooooOOOOOOOOOOOOOOOOOOOOOOOOoooooooooooo      ++++++++++++++++++",
"++++++++++++++++++      ooooooooooooOOOOOOOOOOOOOOOOOOOOOOOOoooooooooooo      ++++++++++++++++++",
"++++++++++++++++++      ooooooooooooOOOOOOOOOOOOOOOOOOOOOOOOoooooooooooo      ++++++++++++++++++",
"++++++++++++++++++      ooooooooooooOOOOOOOOOOOOOOOOOOOOOOOOoooooooooooo      ++++++++++++++++++",
"++++++++++++++++++      ooooooooooooOOOOOOOOOOOOOOOOOOOOOOOOoooooooooooo      ++++++++++++++++++",
"++++++++++++      OOOOOOoooooooooooo                              oooooo      ++++++++++++++++++",
"++++++++++++      OOOOOOoooooooooooo                              oooooo      ++++++++++++++++++",
"++++++++++++      OOOOOOoooooooooooo                              oooooo      ++++++++++++++++++",
"++++++++++++      OOOOOOoooooooooooo                              oooooo      ++++++++++++++++++",
"++++++++++++      OOOOOOoooooooooooo                              oooooo      ++++++++++++++++++",
"++++++++++++      OOOOOOoooooooooooo                              oooooo      ++++++++++++++++++",
"++++++++++++      OOOOOOOOOOOO      XXXXXXooooooooooooooooooXXXXXX            ++++++++++++++++++",
"++++++++++++      OOOOOOOOOOOO      XXXXXXooooooooooooooooooXXXXXX            ++++++++++++++++++",
"++++++++++++      OOOOOOOOOOOO      XXXXXXooooooooooooooooooXXXXXX            ++++++++++++++++++",
"++++++++++++      OOOOOOOOOOOO      XXXXXXooooooooooooooooooXXXXXX            ++++++++++++++++++",
"++++++++++++      OOOOOOOOOOOO      XXXXXXooooooooooooooooooXXXXXX            ++++++++++++++++++",
"++++++++++++      OOOOOOOOOOOO      XXXXXXooooooooooooooooooXXXXXX            ++++++++++++++++++",
"++++++++++++++++++      OOOOOOXXXXXXooooooooooooooooooooooooooooooXXXXXX      ++++++++++++++++++",
"++++++++++++++++++      OOOOOOXXXXXXooooooooooooooooooooooooooooooXXXXXX      ++++++++++++++++++",
"++++++++++++++++++      OOOOOOXXXXXXooooooooooooooooooooooooooooooXXXXXX      ++++++++++++++++++",
"++++++++++++++++++      OOOOOOXXXXXXooooooooooooooooooooooooooooooXXXXXX      ++++++++++++++++++",
"++++++++++++++++++      OOOOOOXXXXXXooooooooooooooooooooooooooooooXXXXXX      ++++++++++++++++++",
"++++++++++++++++++      OOOOOOXXXXXXooooooooooooooooooooooooooooooXXXXXX      ++++++++++++++++++",
"++++++++++++++++++            XXXXXX............      oooooo......            ++++++++++++++++++",
"++++++++++++++++++            XXXXXX............      oooooo......            ++++++++++++++++++",
"++++++++++++++++++            XXXXXX............      oooooo......            ++++++++++++++++++",
"++++++++++++++++++            XXXXXX............      oooooo......            ++++++++++++++++++",
"++++++++++++++++++            XXXXXX............      oooooo......            ++++++++++++++++++",
"++++++++++++++++++            XXXXXX............      oooooo......            ++++++++++++++++++",
"++++++++++++++++++++++++      XXXXXX                  oooooo                  ++++++++++++++++++",
"++++++++++++++++++++++++      XXXXXX                  oooooo                  ++++++++++++++++++",
"++++++++++++++++++++++++      XXXXXX                  oooooo                  ++++++++++++++++++",
"++++++++++++++++++++++++      XXXXXX                  oooooo                  ++++++++++++++++++",
"++++++++++++++++++++++++      XXXXXX                  oooooo                  ++++++++++++++++++",
"++++++++++++++++++++++++      XXXXXX                  oooooo                  ++++++++++++++++++",
"++++++++++++++++++++++++++++++      XXXXXXooooooooooooooooooooooooXXXXXX      ++++++++++++++++++",
"++++++++++++++++++++++++++++++      XXXXXXooooooooooooooooooooooooXXXXXX      ++++++++++++++++++",
"++++++++++++++++++++++++++++++      XXXXXXooooooooooooooooooooooooXXXXXX      ++++++++++++++++++",
"++++++++++++++++++++++++++++++      XXXXXXooooooooooooooooooooooooXXXXXX      ++++++++++++++++++",
"++++++++++++++++++++++++++++++      XXXXXXooooooooooooooooooooooooXXXXXX      ++++++++++++++++++",
"++++++++++++++++++++++++++++++      XXXXXXooooooooooooooooooooooooXXXXXX      ++++++++++++++++++",
"++++++++++++++++++++++++++++++++++++      XXXXXXoooooo      XXXXXX      ++++++++++++++++++++++++",
"++++++++++++++++++++++++++++++++++++      XXXXXXoooooo      XXXXXX      ++++++++++++++++++++++++",
"++++++++++++++++++++++++++++++++++++      XXXXXXoooooo      XXXXXX      ++++++++++++++++++++++++",
"++++++++++++++++++++++++++++++++++++      XXXXXXoooooo      XXXXXX      ++++++++++++++++++++++++",
"++++++++++++++++++++++++++++++++++++      XXXXXXoooooo      XXXXXX      ++++++++++++++++++++++++",
"++++++++++++++++++++++++++++++++++++      XXXXXXoooooo      XXXXXX      ++++++++++++++++++++++++",
"++++++++++++++++++++++++++++++++++++++++++            ++++++      ++++++++++++++++++++++++++++++",
"++++++++++++++++++++++++++++++++++++++++++            ++++++      ++++++++++++++++++++++++++++++",
"++++++++++++++++++++++++++++++++++++++++++            ++++++      ++++++++++++++++++++++++++++++",
"++++++++++++++++++++++++++++++++++++++++++            ++++++      ++++++++++++++++++++++++++++++",
"++++++++++++++++++++++++++++++++++++++++++            ++++++      ++++++++++++++++++++++++++++++",
"++++++++++++++++++++++++++++++++++++++++++            ++++++      ++++++++++++++++++++++++++++++",
"++++++++++++++++++++++++++++++++++++++++++++++++++++++++++++++++++++++++++++++++++++++++++++++++",
"++++++++++++++++++++++++++++++++++++++++++++++++++++++++++++++++++++++++++++++++++++++++++++++++",
"++++++++++++++++++++++++++++++++++++++++++++++++++++++++++++++++++++++++++++++++++++++++++++++++",
"++++++++++++++++++++++++++++++++++++++++++++++++++++++++++++++++++++++++++++++++++++++++++++++++",
"++++++++++++++++++++++++++++++++++++++++++++++++++++++++++++++++++++++++++++++++++++++++++++++++",
"++++++++++++++++++++++++++++++++++++++++++++++++++++++++++++++++++++++++++++++++++++++++++++++++",
"++++++++++++++++++++++++++++++++++++++++++++++++++++++++++++++++++++++++++++++++++++++++++++++++",
"++++++++++++++++++++++++++++++++++++++++++++++++++++++++++++++++++++++++++++++++++++++++++++++++",
"++++++++++++++++++++++++++++++++++++++++++++++++++++++++++++++++++++++++++++++++++++++++++++++++",
"++++++++++++++++++++++++++++++++++++++++++++++++++++++++++++++++++++++++++++++++++++++++++++++++",
"++++++++++++++++++++++++++++++++++++++++++++++++++++++++++++++++++++++++++++++++++++++++++++++++",
"++++++++++++++++++++++++++++++++++++++++++++++++++++++++++++++++++++++++++++++++++++++++++++++++"
};
