/* XPM */
static char *result[] = {
/* columns rows colors chars-per-pixel */
"96 96 6 1 ",
"  c #25131A",
". c #362030",
"X c #3D253B",
"o c #90919E",
"O c #ADC1CF",
"+ c #E9EBEC",
/* pixels */
"XXXXXXXXXXXXXXXXXXXXXXXX++++++      XXXXXXXXXXXXXXXXXXXXXXXXXXXXXX++++++      XXXXXXXXXXXXXXXXXX",
"XXXXXXXXXXXXXXXXXXXXXXXX++++++      XXXXXXXXXXXXXXXXXXXXXXXXXXXXXX++++++      XXXXXXXXXXXXXXXXXX",
"XXXXXXXXXXXXXXXXXXXXXXXX++++++      XXXXXXXXXXXXXXXXXXXXXXXXXXXXXX++++++      XXXXXXXXXXXXXXXXXX",
"XXXXXXXXXXXXXXXXXXXXXXXX++++++      XXXXXXXXXXXXXXXXXXXXXXXXXXXXXX++++++      XXXXXXXXXXXXXXXXXX",
"XXXXXXXXXXXXXXXXXXXXXXXX++++++      XXXXXXXXXXXXXXXXXXXXXXXXXXXXXX++++++      XXXXXXXXXXXXXXXXXX",
"XXXXXXXXXXXXXXXXXXXXXXXX++++++      XXXXXXXXXXXXXXXXXXXXXXXXXXXXXX++++++      XXXXXXXXXXXXXXXXXX",
"XXXXXXXXXXXXXXXXXXXXXXXXOOOOOO      XXXXXXXXXXXXXXXXXXXXXXXXXXXXXXOOOOOO      XXXXXXXXXXXXXXXXXX",
"XXXXXXXXXXXXXXXXXXXXXXXXOOOOOO      XXXXXXXXXXXXXXXXXXXXXXXXXXXXXXOOOOOO      XXXXXXXXXXXXXXXXXX",
"XXXXXXXXXXXXXXXXXXXXXXXXOOOOOO      XXXXXXXXXXXXXXXXXXXXXXXXXXXXXXOOOOOO      XXXXXXXXXXXXXXXXXX",
"XXXXXXXXXXXXXXXXXXXXXXXXOOOOOO      XXXXXXXXXXXXXXXXXXXXXXXXXXXXXXOOOOOO      XXXXXXXXXXXXXXXXXX",
"XXXXXXXXXXXXXXXXXXXXXXXXOOOOOO      XXXXXXXXXXXXXXXXXXXXXXXXXXXXXXOOOOOO      XXXXXXXXXXXXXXXXXX",
"XXXXXXXXXXXXXXXXXXXXXXXXOOOOOO      XXXXXXXXXXXXXXXXXXXXXXXXXXXXXXOOOOOO      XXXXXXXXXXXXXXXXXX",
"XXXXXXXXXXXXXXXXXX++++++OOOOOOoooooo      XXXXXXXXXXXXXXXXXX++++++OOOOOOoooooo      XXXXXXXXXXXX",
"XXXXXXXXXXXXXXXXXX++++++OOOOOOoooooo      XXXXXXXXXXXXXXXXXX++++++OOOOOOoooooo      XXXXXXXXXXXX",
"XXXXXXXXXXXXXXXXXX++++++OOOOOOoooooo      XXXXXXXXXXXXXXXXXX++++++OOOOOOoooooo      XXXXXXXXXXXX",
"XXXXXXXXXXXXXXXXXX++++++OOOOOOoooooo      XXXXXXXXXXXXXXXXXX++++++OOOOOOoooooo      XXXXXXXXXXXX",
"XXXXXXXXXXXXXXXXXX++++++OOOOOOoooooo      XXXXXXXXXXXXXXXXXX++++++OOOOOOoooooo      XXXXXXXXXXXX",
"XXXXXXXXXXXXXXXXXX++++++OOOOOOoooooo      XXXXXXXXXXXXXXXXXX++++++OOOOOOoooooo      XXXXXXXXXXXX",
"XXXXXXXXXXXXXXXXXXOOOOOOOOOOOOoooooo      XXXXXXXXXXXXXXXXXXOOOOOOOOOOOOoooooo      XXXXXXXXXXXX",
"XXXXXXXXXXXXXXXXXXOOOOOOOOOOOOoooooo      XXXXXXXXXXXXXXXXXXOOOOOOOOOOOOoooooo      XXXXXXXXXXXX",
"XXXXXXXXXXXXXXXXXXOOOOOOOOOOOOoooooo      XXXXXXXXXXXXXXXXXXOOOOOOOOOOOOoooooo      XXXXXXXXXXXX",
"XXXXXXXXXXXXXXXXXXOOOOOOOOOOOOoooooo      XXXXXXXXXXXXXXXXXXOOOOOOOOOOOOoooooo      XXXXXXXXXXXX",
"XXXXXXXXXXXXXXXXXXOOOOOOOOOOOOoooooo      XXXXXXXXXXXXXXXXXXOOOOOOOOOOOOoooooo      XXXXXXXXXXXX",
"XXXXXXXXXXXXXXXXXXOOOOOOOOOOOOoooooo      XXXXXXXXXXXXXXXXXXOOOOOOOOOOOOoooooo      XXXXXXXXXXXX",
"XXXXXXXXXXXXXXXXXXOOOOOOoooooooooooo      XXXXXXXXXXXXXXXXXXOOOOOOoooooooooooo      XXXXXXXXXXXX",
"XXXXXXXXXXXXXXXXXXOOOOOOoooooooooooo      XXXXXXXXXXXXXXXXXXOOOOOOoooooooooooo      XXXXXXXXXXXX",
"XXXXXXXXXXXXXXXXXXOOOOOOoooooooooooo      XXXXXXXXXXXXXXXXXXOOOOOOoooooooooooo      XXXXXXXXXXXX",
"XXXXXXXXXXXXXXXXXXOOOOOOoooooooooooo      XXXXXXXXXXXXXXXXXXOOOOOOoooooooooooo      XXXXXXXXXXXX",
"XXXXXXXXXXXXXXXXXXOOOOOOoooooooooooo      XXXXXXXXXXXXXXXXXXOOOOOOoooooooooooo      XXXXXXXXXXXX",
"XXXXXXXXXXXXXXXXXXOOOOOOoooooooooooo      XXXXXXXXXXXXXXXXXXOOOOOOoooooooooooo      XXXXXXXXXXXX",
"XXXXXXXXXXXXXXXXXXoooooooooooooooooo      XXXXXXXXXXXXXXXXXXoooooooooooooooooo      XXXXXXXXXXXX",
"XXXXXXXXXXXXXXXXXXoooooooooooooooooo      XXXXXXXXXXXXXXXXXXoooooooooooooooooo      XXXXXXXXXXXX",
"XXXXXXXXXXXXXXXXXXoooooooooooooooooo      XXXXXXXXXXXXXXXXXXoooooooooooooooooo      XXXXXXXXXXXX",
"XXXXXXXXXXXXXXXXXXoooooooooooooooooo      XXXXXXXXXXXXXXXXXXoooooooooooooooooo      XXXXXXXXXXXX",
"XXXXXXXXXXXXXXXXXXoooooooooooooooooo      XXXXXXXXXXXXXXXXXXoooooooooooooooooo      XXXXXXXXXXXX",
"XXXXXXXXXXXXXXXXXXoooooooooooooooooo      XXXXXXXXXXXXXXXXXXoooooooooooooooooo      XXXXXXXXXXXX",
"XXXXXXXXXXXXXXXXXX                        XXXXXXXXXXXXXXXXXX                        XXXXXXXXXXXX",
"XXXXXXXXXXXXXXXXXX                        XXXXXXXXXXXXXXXXXX                        XXXXXXXXXXXX",
"XXXXXXXXXXXXXXXXXX                        XXXXXXXXXXXXXXXXXX                        XXXXXXXXXXXX",
"XXXXXXXXXXXXXXXXXX                        XXXXXXXXXXXXXXXXXX                        XXXXXXXXXXXX",
"XXXXXXXXXXXXXXXXXX                        XXXXXXXXXXXXXXXXXX                        XXXXXXXXXXXX",
"XXXXXXXXXXXXXXXXXX                        XXXXXXXXXXXXXXXXXX                        XXXXXXXXXXXX",
"XXXXXXXXXXXXXXXXXXXXXXXX++++++      XXXXXXXXXXXXXXXXXX......XXXXXXOOOOOO      XXXXXXXXXXXXXXXXXX",
"XXXXXXXXXXXXXXXXXXXXXXXX++++++      XXXXXXXXXXXXXXXXXX......XXXXXXOOOOOO      XXXXXXXXXXXXXXXXXX",
"XXXXXXXXXXXXXXXXXXXXXXXX++++++      XXXXXXXXXXXXXXXXXX......XXXXXXOOOOOO      XXXXXXXXXXXXXXXXXX",
"XXXXXXXXXXXXXXXXXXXXXXXX++++++      XXXXXXXXXXXXXXXXXX......XXXXXXOOOOOO      XXXXXXXXXXXXXXXXXX",
"XXXXXXXXXXXXXXXXXXXXXXXX++++++      XXXXXXXXXXXXXXXXXX......XXXXXXOOOOOO      XXXXXXXXXXXXXXXXXX",
"XXXXXXXXXXXXXXXXXXXXXXXX++++++      XXXXXXXXXXXXXXXXXX......XXXXXXOOOOOO      XXXXXXXXXXXXXXXXXX",
"XXXXXXXXXXXXXXXXXXXXXXXXOOOOOO      XXXXXXXXXXXXXXXXXX......XXXXXXOOOOOO      XXXXXXXXXXXXXXXXXX",
"XXXXXXXXXXXXXXXXXXXXXXXXOOOOOO      XXXXXXXXXXXXXXXXXX......XXXXXXOOOOOO      XXXXXXXXXXXXXXXXXX",
"XXXXXXXXXXXXXXXXXXXXXXXXOOOOOO      XXXXXXXXXXXXXXXXXX......XXXXXXOOOOOO      XXXXXXXXXXXXXXXXXX",
"XXXXXXXXXXXXXXXXXXXXXXXXOOOOOO      XXXXXXXXXXXXXXXXXX......XXXXXXOOOOOO      XXXXXXXXXXXXXXXXXX",
"XXXXXXXXXXXXXXXXXXXXXXXXOOOOOO      XXXXXXXXXXXXXXXXXX......XXXXXXOOOOOO      XXXXXXXXXXXXXXXXXX",
"XXXXXXXXXXXXXXXXXXXXXXXXOOOOOO      XXXXXXXXXXXXXXXXXX......XXXXXXOOOOOO      XXXXXXXXXXXXXXXXXX",
"XXXXXXXXXXXXXXXXXX++++++OOOOOOoooooo      XXXXXXXXXXXX......OOOOOOOOOOOOoooooo      XXXXXXXXXXXX",
"XXXXXXXXXXXXXXXXXX++++++OOOOOOoooooo      XXXXXXXXXXXX......OOOOOOOOOOOOoooooo      XXXXXXXXXXXX",
"XXXXXXXXXXXXXXXXXX++++++OOOOOOoooooo      XXXXXXXXXXXX......OOOOOOOOOOOOoooooo      XXXXXXXXXXXX",
"XXXXXXXXXXXXXXXXXX++++++OOOOOOoooooo      XXXXXXXXXXXX......OOOOOOOOOOOOoooooo      XXXXXXXXXXXX",
"XXXXXXXXXXXXXXXXXX++++++OOOOOOoooooo      XXXXXXXXXXXX......OOOOOOOOOOOOoooooo      XXXXXXXXXXXX",
"XXXXXXXXXXXXXXXXXX++++++OOOOOOoooooo      XXXXXXXXXXXX......OOOOOOOOOOOOoooooo      XXXXXXXXXXXX",
"XXXXXXXXXXXXXXXXXXOOOOOOOOOOOOoooooo      XXXXXXXXXXXX......OOOOOOOOOOOOoooooo      XXXXXXXXXXXX",
"XXXXXXXXXXXXXXXXXXOOOOOOOOOOOOoooooo      XXXXXXXXXXXX......OOOOOOOOOOOOoooooo      XXXXXXXXXXXX",
"XXXXXXXXXXXXXXXXXXOOOOOOOOOOOOoooooo      XXXXXXXXXXXX......OOOOOOOOOOOOoooooo      XXXXXXXXXXXX",
"XXXXXXXXXXXXXXXXXXOOOOOOOOOOOOoooooo      XXXXXXXXXXXX......OOOOOOOOOOOOoooooo      XXXXXXXXXXXX",
"XXXXXXXXXXXXXXXXXXOOOOOOOOOOOOoooooo      XXXXXXXXXXXX......OOOOOOOOOOOOoooooo      XXXXXXXXXXXX",
"XXXXXXXXXXXXXXXXXXOOOOOOOOOOOOoooooo      XXXXXXXXXXXX......OOOOOOOOOOOOoooooo      XXXXXXXXXXXX",
"XXXXXXXXXXXXXXXXXXOOOOOOoooooooooooo      XXXXXXXXXXXX......OOOOOOoooooooooooo      XXXXXXXXXXXX",
"XXXXXXXXXXXXXXXXXXOOOOOOoooooooooooo      XXXXXXXXXXXX......OOOOOOoooooooooooo      XXXXXXXXXXXX",
"XXXXXXXXXXXXXXXXXXOOOOOOoooooooooooo      XXXXXXXXXXXX......OOOOOOoooooooooooo      XXXXXXXXXXXX",
"XXXXXXXXXXXXXXXXXXOOOOOOoooooooooooo      XXXXXXXXXXXX......OOOOOOoooooooooooo      XXXXXXXXXXXX",
"XXXXXXXXXXXXXXXXXXOOOOOOoooooooooooo      XXXXXXXXXXXX......OOOOOOoooooooooooo      XXXXXXXXXXXX",
"XXXXXXXXXXXXXXXXXXOOOOOOoooooooooooo      XXXXXXXXXXXX......OOOOOOoooooooooooo      XXXXXXXXXXXX",
"XXXXXXXXXXXXXXXXXXoooooooooooooooooo      XXXXXXXXXXXXXXXXXXoooooooooooooooooo      XXXXXXXXXXXX",
"XXXXXXXXXXXXXXXXXXoooooooooooooooooo      XXXXXXXXXXXXXXXXXXoooooooooooooooooo      XXXXXXXXXXXX",
"XXXXXXXXXXXXXXXXXXoooooooooooooooooo      XXXXXXXXXXXXXXXXXXoooooooooooooooooo      XXXXXXXXXXXX",
"XXXXXXXXXXXXXXXXXXoooooooooooooooooo      XXXXXXXXXXXXXXXXXXoooooooooooooooooo      XXXXXXXXXXXX",
"XXXXXXXXXXXXXXXXXXoooooooooooooooooo      XXXXXXXXXXXXXXXXXXoooooooooooooooooo      XXXXXXXXXXXX",
"XXXXXXXXXXXXXXXXXXoooooooooooooooooo      XXXXXXXXXXXXXXXXXXoooooooooooooooooo      XXXXXXXXXXXX",
"XXXXXX............                        XXXXXXXXXXXXXXXXXX                        XXXXXXXXXXXX",
"XXXXXX............                        XXXXXXXXXXXXXXXXXX                        XXXXXXXXXXXX",
"XXXXXX............                        XXXXXXXXXXXXXXXXXX                        XXXXXXXXXXXX",
"XXXXXX............                        XXXXXXXXXXXXXXXXXX                        XXXXXXXXXXXX",
"XXXXXX............                        XXXXXXXXXXXXXXXXXX                        XXXXXXXXXXXX",
"XXXXXX............                        XXXXXXXXXXXXXXXXXX                        XXXXXXXXXXXX",
"XXXXXXXXXXXXXXXXXXXXXXXXXXXXXXXXXXXXXXXXXXXXXXXXXXXXXX......XXXXXXXXXXXXXXXXXXXXXXXXXXXXXXXXXXXX",
"XXXXXXXXXXXXXXXXXXXXXXXXXXXXXXXXXXXXXXXXXXXXXXXXXXXXXX......XXXXXXXXXXXXXXXXXXXXXXXXXXXXXXXXXXXX",
"XXXXXXXXXXXXXXXXXXXXXXXXXXXXXXXXXXXXXXXXXXXXXXXXXXXXXX......XXXXXXXXXXXXXXXXXXXXXXXXXXXXXXXXXXXX",
"XXXXXXXXXXXXXXXXXXXXXXXXXXXXXXXXXXXXXXXXXXXXXXXXXXXXXX......XXXXXXXXXXXXXXXXXXXXXXXXXXXXXXXXXXXX",
"XXXXXXXXXXXXXXXXXXXXXXXXXXXXXXXXXXXXXXXXXXXXXXXXXXXXXX......XXXXXXXXXXXXXXXXXXXXXXXXXXXXXXXXXXXX",
"XXXXXXXXXXXXXXXXXXXXXXXXXXXXXXXXXXXXXXXXXXXXXXXXXXXXXX......XXXXXXXXXXXXXXXXXXXXXXXXXXXXXXXXXXXX",
"XXXXXXXXXXXXXXXXXXXXXXXXXXXXXXXXXXXXXXXXXXXXXXXXXXXXXX......XXXXXXXXXXXXXXXXXXXXXXXXXXXXXXXXXXXX",
"XXXXXXXXXXXXXXXXXXXXXXXXXXXXXXXXXXXXXXXXXXXXXXXXXXXXXX......XXXXXXXXXXXXXXXXXXXXXXXXXXXXXXXXXXXX",
"XXXXXXXXXXXXXXXXXXXXXXXXXXXXXXXXXXXXXXXXXXXXXXXXXXXXXX......XXXXXXXXXXXXXXXXXXXXXXXXXXXXXXXXXXXX",
"XXXXXXXXXXXXXXXXXXXXXXXXXXXXXXXXXXXXXXXXXXXXXXXXXXXXXX......XXXXXXXXXXXXXXXXXXXXXXXXXXXXXXXXXXXX",
"XXXXXXXXXXXXXXXXXXXXXXXXXXXXXXXXXXXXXXXXXXXXXXXXXXXXXX......XXXXXXXXXXXXXXXXXXXXXXXXXXXXXXXXXXXX",
"XXXXXXXXXXXXXXXXXXXXXXXXXXXXXXXXXXXXXXXXXXXXXXXXXXXXXX......XXXXXXXXXXXXXXXXXXXXXXXXXXXXXXXXXXXX"
};
