/* XPM */
static char *result[] = {
/* columns rows colors chars-per-pixel */
"96 96 4 1 ",
"  c #25131A",
". c #362030",
"X c #3D253B",
"o c #ADC1CF",
/* pixels */
"XXXXXXXXXXXXXXXXXXXXXXXXXXXXXXXXXXXXXXXXXXXXXXXXXXXXXXXXXXXXXXXXXXXXXXXXXXXXXXXXXXXXXXXXXXXXXXXX",
"XXXXXXXXXXXXXXXXXXXXXXXXXXXXXXXXXXXXXXXXXXXXXXXXXXXXXXXXXXXXXXXXXXXXXXXXXXXXXXXXXXXXXXXXXXXXXXXX",
"XXXXXXXXXXXXXXXXXXXXXXXXXXXXXXXXXXXXXXXXXXXXXXXXXXXXXXXXXXXXXXXXXXXXXXXXXXXXXXXXXXXXXXXXXXXXXXXX",
"XXXXXXXXXXXXXXXXXXXXXXXXXXXXXXXXXXXXXXXXXXXXXXXXXXXXXXXXXXXXXXXXXXXXXXXXXXXXXXXXXXXXXXXXXXXXXXXX",
"XXXXXXXXXXXXXXXXXXXXXXXXXXXXXXXXXXXXXXXXXXXXXXXXXXXXXXXXXXXXXXXXXXXXXXXXXXXXXXXXXXXXXXXXXXXXXXXX",
"XXXXXXXXXXXXXXXXXXXXXXXXXXXXXXXXXXXXXXXXXXXXXXXXXXXXXXXXXXXXXXXXXXXXXXXXXXXXXXXXXXXXXXXXXXXXXXXX",
"XXXXXXXXXXXXXXXXXXXXXXXXXXXXXXXXXXXXXXXXXXXXXXXXXXXXXXXXXXXXXXXXXXXXXXXXXXXXXXXXXXXXXXXXXXXXXXXX",
"XXXXXXXXXXXXXXXXXXXXXXXXXXXXXXXXXXXXXXXXXXXXXXXXXXXXXXXXXXXXXXXXXXXXXXXXXXXXXXXXXXXXXXXXXXXXXXXX",
"XXXXXXXXXXXXXXXXXXXXXXXXXXXXXXXXXXXXXXXXXXXXXXXXXXXXXXXXXXXXXXXXXXXXXXXXXXXXXXXXXXXXXXXXXXXXXXXX",
"XXXXXXXXXXXXXXXXXXXXXXXXXXXXXXXXXXXXXXXXXXXXXXXXXXXXXXXXXXXXXXXXXXXXXXXXXXXXXXXXXXXXXXXXXXXXXXXX",
"XXXXXXXXXXXXXXXXXXXXXXXXXXXXXXXXXXXXXXXXXXXXXXXXXXXXXXXXXXXXXXXXXXXXXXXXXXXXXXXXXXXXXXXXXXXXXXXX",
"XXXXXXXXXXXXXXXXXXXXXXXXXXXXXXXXXXXXXXXXXXXXXXXXXXXXXXXXXXXXXXXXXXXXXXXXXXXXXXXXXXXXXXXXXXXXXXXX",
"XXXXXXXXXXXXXXXXXXXXXXXXXXXXXXXXXXXXXXXXXXXXXXXXXXXXXXXXXXXXXXXXXXXXXXXXXXXXXXXXXXXXXXXXXXXXXXXX",
"XXXXXXXXXXXXXXXXXXXXXXXXXXXXXXXXXXXXXXXXXXXXXXXXXXXXXXXXXXXXXXXXXXXXXXXXXXXXXXXXXXXXXXXXXXXXXXXX",
"XXXXXXXXXXXXXXXXXXXXXXXXXXXXXXXXXXXXXXXXXXXXXXXXXXXXXXXXXXXXXXXXXXXXXXXXXXXXXXXXXXXXXXXXXXXXXXXX",
"XXXXXXXXXXXXXXXXXXXXXXXXXXXXXXXXXXXXXXXXXXXXXXXXXXXXXXXXXXXXXXXXXXXXXXXXXXXXXXXXXXXXXXXXXXXXXXXX",
"XXXXXXXXXXXXXXXXXXXXXXXXXXXXXXXXXXXXXXXXXXXXXXXXXXXXXXXXXXXXXXXXXXXXXXXXXXXXXXXXXXXXXXXXXXXXXXXX",
"XXXXXXXXXXXXXXXXXXXXXXXXXXXXXXXXXXXXXXXXXXXXXXXXXXXXXXXXXXXXXXXXXXXXXXXXXXXXXXXXXXXXXXXXXXXXXXXX",
"XXXXXXXXXXXXXXXXXX                  XXXXXXXXXXXXXXXXXXXXXXXX                  XXXXXXXXXXXXXXXXXX",
"XXXXXXXXXXXXXXXXXX                  XXXXXXXXXXXXXXXXXXXXXXXX                  XXXXXXXXXXXXXXXXXX",
"XXXXXXXXXXXXXXXXXX                  XXXXXXXXXXXXXXXXXXXXXXXX                  XXXXXXXXXXXXXXXXXX",
"XXXXXXXXXXXXXXXXXX                  XXXXXXXXXXXXXXXXXXXXXXXX                  XXXXXXXXXXXXXXXXXX",
"XXXXXXXXXXXXXXXXXX                  XXXXXXXXXXXXXXXXXXXXXXXX                  XXXXXXXXXXXXXXXXXX",
"XXXXXXXXXXXXXXXXXX                  XXXXXXXXXXXXXXXXXXXXXXXX                  XXXXXXXXXXXXXXXXXX",
"XXXXXXXXXXXXXXXXXX      oooooo      XXXXXXXXXXXXXXXXXXXXXXXX      oooooo      XXXXXXXXXXXXXXXXXX",
"XXXXXXXXXXXXXXXXXX      oooooo      XXXXXXXXXXXXXXXXXXXXXXXX      oooooo      XXXXXXXXXXXXXXXXXX",
"XXXXXXXXXXXXXXXXXX      oooooo      XXXXXXXXXXXXXXXXXXXXXXXX      oooooo      XXXXXXXXXXXXXXXXXX",
"XXXXXXXXXXXXXXXXXX      oooooo      XXXXXXXXXXXXXXXXXXXXXXXX      oooooo      XXXXXXXXXXXXXXXXXX",
"XXXXXXXXXXXXXXXXXX      oooooo      XXXXXXXXXXXXXXXXXXXXXXXX      oooooo      XXXXXXXXXXXXXXXXXX",
"XXXXXXXXXXXXXXXXXX      oooooo      XXXXXXXXXXXXXXXXXXXXXXXX      oooooo      XXXXXXXXXXXXXXXXXX",
"XXXXXXXXXXXXXXXXXXooooooooooooooooooXXXXXXXXXXXXXXXXXXXXXXXXooooooooooooooooooXXXXXXXXXXXXXXXXXX",
"XXXXXXXXXXXXXXXXXXooooooooooooooooooXXXXXXXXXXXXXXXXXXXXXXXXooooooooooooooooooXXXXXXXXXXXXXXXXXX",
"XXXXXXXXXXXXXXXXXXooooooooooooooooooXXXXXXXXXXXXXXXXXXXXXXXXooooooooooooooooooXXXXXXXXXXXXXXXXXX",
"XXXXXXXXXXXXXXXXXXooooooooooooooooooXXXXXXXXXXXXXXXXXXXXXXXXooooooooooooooooooXXXXXXXXXXXXXXXXXX",
"XXXXXXXXXXXXXXXXXXooooooooooooooooooXXXXXXXXXXXXXXXXXXXXXXXXooooooooooooooooooXXXXXXXXXXXXXXXXXX",
"XXXXXXXXXXXXXXXXXXooooooooooooooooooXXXXXXXXXXXXXXXXXXXXXXXXooooooooooooooooooXXXXXXXXXXXXXXXXXX",
"XXXXXXXXXXXXXXXXXX                  XXXXXXXXXXXXXXXXXXXXXXXX                  XXXXXXXXXXXXXXXXXX",
"XXXXXXXXXXXXXXXXXX                  XXXXXXXXXXXXXXXXXXXXXXXX                  XXXXXXXXXXXXXXXXXX",
"XXXXXXXXXXXXXXXXXX                  XXXXXXXXXXXXXXXXXXXXXXXX                  XXXXXXXXXXXXXXXXXX",
"XXXXXXXXXXXXXXXXXX                  XXXXXXXXXXXXXXXXXXXXXXXX                  XXXXXXXXXXXXXXXXXX",
"XXXXXXXXXXXXXXXXXX                  XXXXXXXXXXXXXXXXXXXXXXXX                  XXXXXXXXXXXXXXXXXX",
"XXXXXXXXXXXXXXXXXX                  XXXXXXXXXXXXXXXXXXXXXXXX                  XXXXXXXXXXXXXXXXXX",
"XXXXXXXXXXXXXXXXXXXXXXXXXXXXXXXXXXXXXXXXXXXXXXXXXXXXXX......XXXXXXXXXXXXXXXXXXXXXXXXXXXXXXXXXXXX",
"XXXXXXXXXXXXXXXXXXXXXXXXXXXXXXXXXXXXXXXXXXXXXXXXXXXXXX......XXXXXXXXXXXXXXXXXXXXXXXXXXXXXXXXXXXX",
"XXXXXXXXXXXXXXXXXXXXXXXXXXXXXXXXXXXXXXXXXXXXXXXXXXXXXX......XXXXXXXXXXXXXXXXXXXXXXXXXXXXXXXXXXXX",
"XXXXXXXXXXXXXXXXXXXXXXXXXXXXXXXXXXXXXXXXXXXXXXXXXXXXXX......XXXXXXXXXXXXXXXXXXXXXXXXXXXXXXXXXXXX",
"XXXXXXXXXXXXXXXXXXXXXXXXXXXXXXXXXXXXXXXXXXXXXXXXXXXXXX......XXXXXXXXXXXXXXXXXXXXXXXXXXXXXXXXXXXX",
"XXXXXXXXXXXXXXXXXXXXXXXXXXXXXXXXXXXXXXXXXXXXXXXXXXXXXX......XXXXXXXXXXXXXXXXXXXXXXXXXXXXXXXXXXXX",
"XXXXXXXXXXXXXXXXXXXXXXXXXXXXXXXXXXXXXXXXXXXXXXXXXXXXXX......XXXXXXXXXXXXXXXXXXXXXXXXXXXXXXXXXXXX",
"XXXXXXXXXXXXXXXXXXXXXXXXXXXXXXXXXXXXXXXXXXXXXXXXXXXXXX......XXXXXXXXXXXXXXXXXXXXXXXXXXXXXXXXXXXX",
"XXXXXXXXXXXXXXXXXXXXXXXXXXXXXXXXXXXXXXXXXXXXXXXXXXXXXX......XXXXXXXXXXXXXXXXXXXXXXXXXXXXXXXXXXXX",
"XXXXXXXXXXXXXXXXXXXXXXXXXXXXXXXXXXXXXXXXXXXXXXXXXXXXXX......XXXXXXXXXXXXXXXXXXXXXXXXXXXXXXXXXXXX",
"XXXXXXXXXXXXXXXXXXXXXXXXXXXXXXXXXXXXXXXXXXXXXXXXXXXXXX......XXXXXXXXXXXXXXXXXXXXXXXXXXXXXXXXXXXX",
"XXXXXXXXXXXXXXXXXXXXXXXXXXXXXXXXXXXXXXXXXXXXXXXXXXXXXX......XXXXXXXXXXXXXXXXXXXXXXXXXXXXXXXXXXXX",
"XXXXXXXXXXXXXXXXXXXXXXXXXXXXXXXXXXXXXXXXXXXXXXXXXXXXXX......XXXXXXXXXXXXXXXXXXXXXXXXXXXXXXXXXXXX",
"XXXXXXXXXXXXXXXXXXXXXXXXXXXXXXXXXXXXXXXXXXXXXXXXXXXXXX......XXXXXXXXXXXXXXXXXXXXXXXXXXXXXXXXXXXX",
"XXXXXXXXXXXXXXXXXXXXXXXXXXXXXXXXXXXXXXXXXXXXXXXXXXXXXX......XXXXXXXXXXXXXXXXXXXXXXXXXXXXXXXXXXXX",
"XXXXXXXXXXXXXXXXXXXXXXXXXXXXXXXXXXXXXXXXXXXXXXXXXXXXXX......XXXXXXXXXXXXXXXXXXXXXXXXXXXXXXXXXXXX",
"XXXXXXXXXXXXXXXXXXXXXXXXXXXXXXXXXXXXXXXXXXXXXXXXXXXXXX......XXXXXXXXXXXXXXXXXXXXXXXXXXXXXXXXXXXX",
"XXXXXXXXXXXXXXXXXXXXXXXXXXXXXXXXXXXXXXXXXXXXXXXXXXXXXX......XXXXXXXXXXXXXXXXXXXXXXXXXXXXXXXXXXXX",
"XXXXXXXXXXXXXXXXXX                  XXXXXXXXXXXXXXXXXX......                  XXXXXXXXXXXXXXXXXX",
"XXXXXXXXXXXXXXXXXX                  XXXXXXXXXXXXXXXXXX......                  XXXXXXXXXXXXXXXXXX",
"XXXXXXXXXXXXXXXXXX                  XXXXXXXXXXXXXXXXXX......                  XXXXXXXXXXXXXXXXXX",
"XXXXXXXXXXXXXXXXXX                  XXXXXXXXXXXXXXXXXX......                  XXXXXXXXXXXXXXXXXX",
"XXXXXXXXXXXXXXXXXX                  XXXXXXXXXXXXXXXXXX......                  XXXXXXXXXXXXXXXXXX",
"XXXXXXXXXXXXXXXXXX                  XXXXXXXXXXXXXXXXXX......                  XXXXXXXXXXXXXXXXXX",
"XXXXXXXXXXXXXXXXXX      oooooo      XXXXXXXXXXXXXXXXXX......      oooooo      XXXXXXXXXXXXXXXXXX",
"XXXXXXXXXXXXXXXXXX      oooooo      XXXXXXXXXXXXXXXXXX......      oooooo      XXXXXXXXXXXXXXXXXX",
"XXXXXXXXXXXXXXXXXX      oooooo      XXXXXXXXXXXXXXXXXX......      oooooo      XXXXXXXXXXXXXXXXXX",
"XXXXXXXXXXXXXXXXXX      oooooo      XXXXXXXXXXXXXXXXXX......      oooooo      XXXXXXXXXXXXXXXXXX",
"XXXXXXXXXXXXXXXXXX      oooooo      XXXXXXXXXXXXXXXXXX......      oooooo      XXXXXXXXXXXXXXXXXX",
"XXXXXXXXXXXXXXXXXX      oooooo      XXXXXXXXXXXXXXXXXX......      oooooo      XXXXXXXXXXXXXXXXXX",
"XXXXXXXXXXXXXXXXXXooooooooooooooooooXXXXXXXXXXXXXXXXXXXXXXXXooooooooooooooooooXXXXXXXXXXXXXXXXXX",
"XXXXXXXXXXXXXXXXXXooooooooooooooooooXXXXXXXXXXXXXXXXXXXXXXXXooooooooooooooooooXXXXXXXXXXXXXXXXXX",
"XXXXXXXXXXXXXXXXXXooooooooooooooooooXXXXXXXXXXXXXXXXXXXXXXXXooooooooooooooooooXXXXXXXXXXXXXXXXXX",
"XXXXXXXXXXXXXXXXXXooooooooooooooooooXXXXXXXXXXXXXXXXXXXXXXXXooooooooooooooooooXXXXXXXXXXXXXXXXXX",
"XXXXXXXXXXXXXXXXXXooooooooooooooooooXXXXXXXXXXXXXXXXXXXXXXXXooooooooooooooooooXXXXXXXXXXXXXXXXXX",
"XXXXXXXXXXXXXXXXXXooooooooooooooooooXXXXXXXXXXXXXXXXXXXXXXXXooooooooooooooooooXXXXXXXXXXXXXXXXXX",
"XXXXXX............                  XXXXXXXXXXXXXXXXXXXXXXXX                  XXXXXXXXXXXXXXXXXX",
"XXXXXX............                  XXXXXXXXXXXXXXXXXXXXXXXX                  XXXXXXXXXXXXXXXXXX",
"XXXXXX............                  XXXXXXXXXXXXXXXXXXXXXXXX                  XXXXXXXXXXXXXXXXXX",
"XXXXXX............                  XXXXXXXXXXXXXXXXXXXXXXXX                  XXXXXXXXXXXXXXXXXX",
"XXXXXX............                  XXXXXXXXXXXXXXXXXXXXXXXX                  XXXXXXXXXXXXXXXXXX",
"XXXXXX............                  XXXXXXXXXXXXXXXXXXXXXXXX                  XXXXXXXXXXXXXXXXXX",
"XXXXXXXXXXXXXXXXXXXXXXXXXXXXXXXXXXXXXXXXXXXXXXXXXXXXXX......XXXXXXXXXXXXXXXXXXXXXXXXXXXXXXXXXXXX",
"XXXXXXXXXXXXXXXXXXXXXXXXXXXXXXXXXXXXXXXXXXXXXXXXXXXXXX......XXXXXXXXXXXXXXXXXXXXXXXXXXXXXXXXXXXX",
"XXXXXXXXXXXXXXXXXXXXXXXXXXXXXXXXXXXXXXXXXXXXXXXXXXXXXX......XXXXXXXXXXXXXXXXXXXXXXXXXXXXXXXXXXXX",
"XXXXXXXXXXXXXXXXXXXXXXXXXXXXXXXXXXXXXXXXXXXXXXXXXXXXXX......XXXXXXXXXXXXXXXXXXXXXXXXXXXXXXXXXXXX",
"XXXXXXXXXXXXXXXXXXXXXXXXXXXXXXXXXXXXXXXXXXXXXXXXXXXXXX......XXXXXXXXXXXXXXXXXXXXXXXXXXXXXXXXXXXX",
"XXXXXXXXXXXXXXXXXXXXXXXXXXXXXXXXXXXXXXXXXXXXXXXXXXXXXX......XXXXXXXXXXXXXXXXXXXXXXXXXXXXXXXXXXXX",
"XXXXXXXXXXXXXXXXXXXXXXXXXXXXXXXXXXXXXXXXXXXXXXXXXXXXXX......XXXXXXXXXXXXXXXXXXXXXXXXXXXXXXXXXXXX",
"XXXXXXXXXXXXXXXXXXXXXXXXXXXXXXXXXXXXXXXXXXXXXXXXXXXXXX......XXXXXXXXXXXXXXXXXXXXXXXXXXXXXXXXXXXX",
"XXXXXXXXXXXXXXXXXXXXXXXXXXXXXXXXXXXXXXXXXXXXXXXXXXXXXX......XXXXXXXXXXXXXXXXXXXXXXXXXXXXXXXXXXXX",
"XXXXXXXXXXXXXXXXXXXXXXXXXXXXXXXXXXXXXXXXXXXXXXXXXXXXXX......XXXXXXXXXXXXXXXXXXXXXXXXXXXXXXXXXXXX",
"XXXXXXXXXXXXXXXXXXXXXXXXXXXXXXXXXXXXXXXXXXXXXXXXXXXXXX......XXXXXXXXXXXXXXXXXXXXXXXXXXXXXXXXXXXX",
"XXXXXXXXXXXXXXXXXXXXXXXXXXXXXXXXXXXXXXXXXXXXXXXXXXXXXX......XXXXXXXXXXXXXXXXXXXXXXXXXXXXXXXXXXXX"
};
