/* XPM */
static char *result[] = {
/* columns rows colors chars-per-pixel */
"96 96 5 1 ",
"  c #25131A",
". c #362030",
"X c #3D253B",
"o c #90919E",
"O c #ADC1CF",
/* pixels */
"XXXXXXXXXXXXXXXXXXXXXXXXXXXXXXXXXXXXXXXXXXXXXXXXXXXXXXXXXXXXXXXXXXXXXXXXXXXXXXXXXXXXXXXXXXXXXXXX",
"XXXXXXXXXXXXXXXXXXXXXXXXXXXXXXXXXXXXXXXXXXXXXXXXXXXXXXXXXXXXXXXXXXXXXXXXXXXXXXXXXXXXXXXXXXXXXXXX",
"XXXXXXXXXXXXXXXXXXXXXXXXXXXXXXXXXXXXXXXXXXXXXXXXXXXXXXXXXXXXXXXXXXXXXXXXXXXXXXXXXXXXXXXXXXXXXXXX",
"XXXXXXXXXXXXXXXXXXXXXXXXXXXXXXXXXXXXXXXXXXXXXXXXXXXXXXXXXXXXXXXXXXXXXXXXXXXXXXXXXXXXXXXXXXXXXXXX",
"XXXXXXXXXXXXXXXXXXXXXXXXXXXXXXXXXXXXXXXXXXXXXXXXXXXXXXXXXXXXXXXXXXXXXXXXXXXXXXXXXXXXXXXXXXXXXXXX",
"XXXXXXXXXXXXXXXXXXXXXXXXXXXXXXXXXXXXXXXXXXXXXXXXXXXXXXXXXXXXXXXXXXXXXXXXXXXXXXXXXXXXXXXXXXXXXXXX",
"XXXXXXXXXXXXXXXXXXXXXXXXXXXXXXXXXXXXXXXXXXXXXXXXXXXXXXXXXXXXXXXXXXXXXXXXXXXXXXXXXXXXXXXXXXXXXXXX",
"XXXXXXXXXXXXXXXXXXXXXXXXXXXXXXXXXXXXXXXXXXXXXXXXXXXXXXXXXXXXXXXXXXXXXXXXXXXXXXXXXXXXXXXXXXXXXXXX",
"XXXXXXXXXXXXXXXXXXXXXXXXXXXXXXXXXXXXXXXXXXXXXXXXXXXXXXXXXXXXXXXXXXXXXXXXXXXXXXXXXXXXXXXXXXXXXXXX",
"XXXXXXXXXXXXXXXXXXXXXXXXXXXXXXXXXXXXXXXXXXXXXXXXXXXXXXXXXXXXXXXXXXXXXXXXXXXXXXXXXXXXXXXXXXXXXXXX",
"XXXXXXXXXXXXXXXXXXXXXXXXXXXXXXXXXXXXXXXXXXXXXXXXXXXXXXXXXXXXXXXXXXXXXXXXXXXXXXXXXXXXXXXXXXXXXXXX",
"XXXXXXXXXXXXXXXXXXXXXXXXXXXXXXXXXXXXXXXXXXXXXXXXXXXXXXXXXXXXXXXXXXXXXXXXXXXXXXXXXXXXXXXXXXXXXXXX",
"XXXXXXXXXXXXXXXXXXXXXXXXOOOOOO      XXXXXXXXXXXXXXXXXXXXXXXXXXXXXXOOOOOO      XXXXXXXXXXXXXXXXXX",
"XXXXXXXXXXXXXXXXXXXXXXXXOOOOOO      XXXXXXXXXXXXXXXXXXXXXXXXXXXXXXOOOOOO      XXXXXXXXXXXXXXXXXX",
"XXXXXXXXXXXXXXXXXXXXXXXXOOOOOO      XXXXXXXXXXXXXXXXXXXXXXXXXXXXXXOOOOOO      XXXXXXXXXXXXXXXXXX",
"XXXXXXXXXXXXXXXXXXXXXXXXOOOOOO      XXXXXXXXXXXXXXXXXXXXXXXXXXXXXXOOOOOO      XXXXXXXXXXXXXXXXXX",
"XXXXXXXXXXXXXXXXXXXXXXXXOOOOOO      XXXXXXXXXXXXXXXXXXXXXXXXXXXXXXOOOOOO      XXXXXXXXXXXXXXXXXX",
"XXXXXXXXXXXXXXXXXXXXXXXXOOOOOO      XXXXXXXXXXXXXXXXXXXXXXXXXXXXXXOOOOOO      XXXXXXXXXXXXXXXXXX",
"XXXXXXXXXXXXXXXXXXOOOOOOOOOOOOoooooo      XXXXXXXXXXXXXXXXXXOOOOOOOOOOOOoooooo      XXXXXXXXXXXX",
"XXXXXXXXXXXXXXXXXXOOOOOOOOOOOOoooooo      XXXXXXXXXXXXXXXXXXOOOOOOOOOOOOoooooo      XXXXXXXXXXXX",
"XXXXXXXXXXXXXXXXXXOOOOOOOOOOOOoooooo      XXXXXXXXXXXXXXXXXXOOOOOOOOOOOOoooooo      XXXXXXXXXXXX",
"XXXXXXXXXXXXXXXXXXOOOOOOOOOOOOoooooo      XXXXXXXXXXXXXXXXXXOOOOOOOOOOOOoooooo      XXXXXXXXXXXX",
"XXXXXXXXXXXXXXXXXXOOOOOOOOOOOOoooooo      XXXXXXXXXXXXXXXXXXOOOOOOOOOOOOoooooo      XXXXXXXXXXXX",
"XXXXXXXXXXXXXXXXXXOOOOOOOOOOOOoooooo      XXXXXXXXXXXXXXXXXXOOOOOOOOOOOOoooooo      XXXXXXXXXXXX",
"XXXXXXXXXXXXXXXXXXOOOOOOoooooooooooo      XXXXXXXXXXXXXXXXXXOOOOOOoooooooooooo      XXXXXXXXXXXX",
"XXXXXXXXXXXXXXXXXXOOOOOOoooooooooooo      XXXXXXXXXXXXXXXXXXOOOOOOoooooooooooo      XXXXXXXXXXXX",
"XXXXXXXXXXXXXXXXXXOOOOOOoooooooooooo      XXXXXXXXXXXXXXXXXXOOOOOOoooooooooooo      XXXXXXXXXXXX",
"XXXXXXXXXXXXXXXXXXOOOOOOoooooooooooo      XXXXXXXXXXXXXXXXXXOOOOOOoooooooooooo      XXXXXXXXXXXX",
"XXXXXXXXXXXXXXXXXXOOOOOOoooooooooooo      XXXXXXXXXXXXXXXXXXOOOOOOoooooooooooo      XXXXXXXXXXXX",
"XXXXXXXXXXXXXXXXXXOOOOOOoooooooooooo      XXXXXXXXXXXXXXXXXXOOOOOOoooooooooooo      XXXXXXXXXXXX",
"XXXXXXXXXXXXXXXXXXoooooooooooooooooo      XXXXXXXXXXXXXXXXXXoooooooooooooooooo      XXXXXXXXXXXX",
"XXXXXXXXXXXXXXXXXXoooooooooooooooooo      XXXXXXXXXXXXXXXXXXoooooooooooooooooo      XXXXXXXXXXXX",
"XXXXXXXXXXXXXXXXXXoooooooooooooooooo      XXXXXXXXXXXXXXXXXXoooooooooooooooooo      XXXXXXXXXXXX",
"XXXXXXXXXXXXXXXXXXoooooooooooooooooo      XXXXXXXXXXXXXXXXXXoooooooooooooooooo      XXXXXXXXXXXX",
"XXXXXXXXXXXXXXXXXXoooooooooooooooooo      XXXXXXXXXXXXXXXXXXoooooooooooooooooo      XXXXXXXXXXXX",
"XXXXXXXXXXXXXXXXXXoooooooooooooooooo      XXXXXXXXXXXXXXXXXXoooooooooooooooooo      XXXXXXXXXXXX",
"XXXXXXXXXXXXXXXXXX                        XXXXXXXXXXXXXXXXXX                        XXXXXXXXXXXX",
"XXXXXXXXXXXXXXXXXX                        XXXXXXXXXXXXXXXXXX                        XXXXXXXXXXXX",
"XXXXXXXXXXXXXXXXXX                        XXXXXXXXXXXXXXXXXX                        XXXXXXXXXXXX",
"XXXXXXXXXXXXXXXXXX                        XXXXXXXXXXXXXXXXXX                        XXXXXXXXXXXX",
"XXXXXXXXXXXXXXXXXX                        XXXXXXXXXXXXXXXXXX                        XXXXXXXXXXXX",
"XXXXXXXXXXXXXXXXXX                        XXXXXXXXXXXXXXXXXX                        XXXXXXXXXXXX",
"XXXXXXXXXXXXXXXXXXXXXXXXXXXXXXXXXXXXXXXXXXXXXXXXXXXXXX......XXXXXXXXXXXXXXXXXXXXXXXXXXXXXXXXXXXX",
"XXXXXXXXXXXXXXXXXXXXXXXXXXXXXXXXXXXXXXXXXXXXXXXXXXXXXX......XXXXXXXXXXXXXXXXXXXXXXXXXXXXXXXXXXXX",
"XXXXXXXXXXXXXXXXXXXXXXXXXXXXXXXXXXXXXXXXXXXXXXXXXXXXXX......XXXXXXXXXXXXXXXXXXXXXXXXXXXXXXXXXXXX",
"XXXXXXXXXXXXXXXXXXXXXXXXXXXXXXXXXXXXXXXXXXXXXXXXXXXXXX......XXXXXXXXXXXXXXXXXXXXXXXXXXXXXXXXXXXX",
"XXXXXXXXXXXXXXXXXXXXXXXXXXXXXXXXXXXXXXXXXXXXXXXXXXXXXX......XXXXXXXXXXXXXXXXXXXXXXXXXXXXXXXXXXXX",
"XXXXXXXXXXXXXXXXXXXXXXXXXXXXXXXXXXXXXXXXXXXXXXXXXXXXXX......XXXXXXXXXXXXXXXXXXXXXXXXXXXXXXXXXXXX",
"XXXXXXXXXXXXXXXXXXXXXXXXXXXXXXXXXXXXXXXXXXXXXXXXXXXXXX......XXXXXXXXXXXXXXXXXXXXXXXXXXXXXXXXXXXX",
"XXXXXXXXXXXXXXXXXXXXXXXXXXXXXXXXXXXXXXXXXXXXXXXXXXXXXX......XXXXXXXXXXXXXXXXXXXXXXXXXXXXXXXXXXXX",
"XXXXXXXXXXXXXXXXXXXXXXXXXXXXXXXXXXXXXXXXXXXXXXXXXXXXXX......XXXXXXXXXXXXXXXXXXXXXXXXXXXXXXXXXXXX",
"XXXXXXXXXXXXXXXXXXXXXXXXXXXXXXXXXXXXXXXXXXXXXXXXXXXXXX......XXXXXXXXXXXXXXXXXXXXXXXXXXXXXXXXXXXX",
"XXXXXXXXXXXXXXXXXXXXXXXXXXXXXXXXXXXXXXXXXXXXXXXXXXXXXX......XXXXXXXXXXXXXXXXXXXXXXXXXXXXXXXXXXXX",
"XXXXXXXXXXXXXXXXXXXXXXXXXXXXXXXXXXXXXXXXXXXXXXXXXXXXXX......XXXXXXXXXXXXXXXXXXXXXXXXXXXXXXXXXXXX",
"XXXXXXXXXXXXXXXXXXXXXXXXOOOOOO      XXXXXXXXXXXXXXXXXX......XXXXXXOOOOOO      XXXXXXXXXXXXXXXXXX",
"XXXXXXXXXXXXXXXXXXXXXXXXOOOOOO      XXXXXXXXXXXXXXXXXX......XXXXXXOOOOOO      XXXXXXXXXXXXXXXXXX",
"XXXXXXXXXXXXXXXXXXXXXXXXOOOOOO      XXXXXXXXXXXXXXXXXX......XXXXXXOOOOOO      XXXXXXXXXXXXXXXXXX",
"XXXXXXXXXXXXXXXXXXXXXXXXOOOOOO      XXXXXXXXXXXXXXXXXX......XXXXXXOOOOOO      XXXXXXXXXXXXXXXXXX",
"XXXXXXXXXXXXXXXXXXXXXXXXOOOOOO      XXXXXXXXXXXXXXXXXX......XXXXXXOOOOOO      XXXXXXXXXXXXXXXXXX",
"XXXXXXXXXXXXXXXXXXXXXXXXOOOOOO      XXXXXXXXXXXXXXXXXX......XXXXXXOOOOOO      XXXXXXXXXXXXXXXXXX",
"XXXXXXXXXXXXXXXXXXOOOOOOOOOOOOoooooo      XXXXXXXXXXXX......OOOOOOOOOOOOoooooo      XXXXXXXXXXXX",
"XXXXXXXXXXXXXXXXXXOOOOOOOOOOOOoooooo      XXXXXXXXXXXX......OOOOOOOOOOOOoooooo      XXXXXXXXXXXX",
"XXXXXXXXXXXXXXXXXXOOOOOOOOOOOOoooooo      XXXXXXXXXXXX......OOOOOOOOOOOOoooooo      XXXXXXXXXXXX",
"XXXXXXXXXXXXXXXXXXOOOOOOOOOOOOoooooo      XXXXXXXXXXXX......OOOOOOOOOOOOoooooo      XXXXXXXXXXXX",
"XXXXXXXXXXXXXXXXXXOOOOOOOOOOOOoooooo      XXXXXXXXXXXX......OOOOOOOOOOOOoooooo      XXXXXXXXXXXX",
"XXXXXXXXXXXXXXXXXXOOOOOOOOOOOOoooooo      XXXXXXXXXXXX......OOOOOOOOOOOOoooooo      XXXXXXXXXXXX",
"XXXXXXXXXXXXXXXXXXOOOOOOoooooooooooo      XXXXXXXXXXXX......OOOOOOoooooooooooo      XXXXXXXXXXXX",
"XXXXXXXXXXXXXXXXXXOOOOOOoooooooooooo      XXXXXXXXXXXX......OOOOOOoooooooooooo      XXXXXXXXXXXX",
"XXXXXXXXXXXXXXXXXXOOOOOOoooooooooooo      XXXXXXXXXXXX......OOOOOOoooooooooooo      XXXXXXXXXXXX",
"XXXXXXXXXXXXXXXXXXOOOOOOoooooooooooo      XXXXXXXXXXXX......OOOOOOoooooooooooo      XXXXXXXXXXXX",
"XXXXXXXXXXXXXXXXXXOOOOOOoooooooooooo      XXXXXXXXXXXX......OOOOOOoooooooooooo      XXXXXXXXXXXX",
"XXXXXXXXXXXXXXXXXXOOOOOOoooooooooooo      XXXXXXXXXXXX......OOOOOOoooooooooooo      XXXXXXXXXXXX",
"XXXXXXXXXXXXXXXXXXoooooooooooooooooo      XXXXXXXXXXXXXXXXXXoooooooooooooooooo      XXXXXXXXXXXX",
"XXXXXXXXXXXXXXXXXXoooooooooooooooooo      XXXXXXXXXXXXXXXXXXoooooooooooooooooo      XXXXXXXXXXXX",
"XXXXXXXXXXXXXXXXXXoooooooooooooooooo      XXXXXXXXXXXXXXXXXXoooooooooooooooooo      XXXXXXXXXXXX",
"XXXXXXXXXXXXXXXXXXoooooooooooooooooo      XXXXXXXXXXXXXXXXXXoooooooooooooooooo      XXXXXXXXXXXX",
"XXXXXXXXXXXXXXXXXXoooooooooooooooooo      XXXXXXXXXXXXXXXXXXoooooooooooooooooo      XXXXXXXXXXXX",
"XXXXXXXXXXXXXXXXXXoooooooooooooooooo      XXXXXXXXXXXXXXXXXXoooooooooooooooooo      XXXXXXXXXXXX",
"XXXXXX............                        XXXXXXXXXXXXXXXXXX                        XXXXXXXXXXXX",
"XXXXXX............                        XXXXXXXXXXXXXXXXXX                        XXXXXXXXXXXX",
"XXXXXX............                        XXXXXXXXXXXXXXXXXX                        XXXXXXXXXXXX",
"XXXXXX............                        XXXXXXXXXXXXXXXXXX                        XXXXXXXXXXXX",
"XXXXXX............                        XXXXXXXXXXXXXXXXXX                        XXXXXXXXXXXX",
"XXXXXX............                        XXXXXXXXXXXXXXXXXX                        XXXXXXXXXXXX",
"XXXXXXXXXXXXXXXXXXXXXXXXXXXXXXXXXXXXXXXXXXXXXXXXXXXXXX......XXXXXXXXXXXXXXXXXXXXXXXXXXXXXXXXXXXX",
"XXXXXXXXXXXXXXXXXXXXXXXXXXXXXXXXXXXXXXXXXXXXXXXXXXXXXX......XXXXXXXXXXXXXXXXXXXXXXXXXXXXXXXXXXXX",
"XXXXXXXXXXXXXXXXXXXXXXXXXXXXXXXXXXXXXXXXXXXXXXXXXXXXXX......XXXXXXXXXXXXXXXXXXXXXXXXXXXXXXXXXXXX",
"XXXXXXXXXXXXXXXXXXXXXXXXXXXXXXXXXXXXXXXXXXXXXXXXXXXXXX......XXXXXXXXXXXXXXXXXXXXXXXXXXXXXXXXXXXX",
"XXXXXXXXXXXXXXXXXXXXXXXXXXXXXXXXXXXXXXXXXXXXXXXXXXXXXX......XXXXXXXXXXXXXXXXXXXXXXXXXXXXXXXXXXXX",
"XXXXXXXXXXXXXXXXXXXXXXXXXXXXXXXXXXXXXXXXXXXXXXXXXXXXXX......XXXXXXXXXXXXXXXXXXXXXXXXXXXXXXXXXXXX",
"XXXXXXXXXXXXXXXXXXXXXXXXXXXXXXXXXXXXXXXXXXXXXXXXXXXXXX......XXXXXXXXXXXXXXXXXXXXXXXXXXXXXXXXXXXX",
"XXXXXXXXXXXXXXXXXXXXXXXXXXXXXXXXXXXXXXXXXXXXXXXXXXXXXX......XXXXXXXXXXXXXXXXXXXXXXXXXXXXXXXXXXXX",
"XXXXXXXXXXXXXXXXXXXXXXXXXXXXXXXXXXXXXXXXXXXXXXXXXXXXXX......XXXXXXXXXXXXXXXXXXXXXXXXXXXXXXXXXXXX",
"XXXXXXXXXXXXXXXXXXXXXXXXXXXXXXXXXXXXXXXXXXXXXXXXXXXXXX......XXXXXXXXXXXXXXXXXXXXXXXXXXXXXXXXXXXX",
"XXXXXXXXXXXXXXXXXXXXXXXXXXXXXXXXXXXXXXXXXXXXXXXXXXXXXX......XXXXXXXXXXXXXXXXXXXXXXXXXXXXXXXXXXXX",
"XXXXXXXXXXXXXXXXXXXXXXXXXXXXXXXXXXXXXXXXXXXXXXXXXXXXXX......XXXXXXXXXXXXXXXXXXXXXXXXXXXXXXXXXXXX"
};
