/* XPM */
static char *result[] = {
/* columns rows colors chars-per-pixel */
"96 96 4 1 ",
"  c #25131A",
". c #927A5D",
"X c #B19D83",
"o c None",
/* pixels */
"oooooooooooooooooooooooooooooooooooooooooooooooooooooooooooooooooooooooooooooooooooooooooooooooo",
"oooooooooooooooooooooooooooooooooooooooooooooooooooooooooooooooooooooooooooooooooooooooooooooooo",
"oooooooooooooooooooooooooooooooooooooooooooooooooooooooooooooooooooooooooooooooooooooooooooooooo",
"oooooooooooooooooooooooooooooooooooooooooooooooooooooooooooooooooooooooooooooooooooooooooooooooo",
"oooooooooooooooooooooooooooooooooooooooooooooooooooooooooooooooooooooooooooooooooooooooooooooooo",
"oooooooooooooooooooooooooooooooooooooooooooooooooooooooooooooooooooooooooooooooooooooooooooooooo",
"oooooooooooooooooooooooooooooooooooooooooooooooooooooooooooooooooooooooooooooooooooooooooooooooo",
"oooooooooooooooooooooooooooooooooooooooooooooooooooooooooooooooooooooooooooooooooooooooooooooooo",
"oooooooooooooooooooooooooooooooooooooooooooooooooooooooooooooooooooooooooooooooooooooooooooooooo",
"oooooooooooooooooooooooooooooooooooooooooooooooooooooooooooooooooooooooooooooooooooooooooooooooo",
"oooooooooooooooooooooooooooooooooooooooooooooooooooooooooooooooooooooooooooooooooooooooooooooooo",
"oooooooooooooooooooooooooooooooooooooooooooooooooooooooooooooooooooooooooooooooooooooooooooooooo",
"oooooooooooooooooooooooooooooooooooooooooo      oooooooooooooooooooooooooooooooooooooooooooooooo",
"oooooooooooooooooooooooooooooooooooooooooo      oooooooooooooooooooooooooooooooooooooooooooooooo",
"oooooooooooooooooooooooooooooooooooooooooo      oooooooooooooooooooooooooooooooooooooooooooooooo",
"oooooooooooooooooooooooooooooooooooooooooo      oooooooooooooooooooooooooooooooooooooooooooooooo",
"oooooooooooooooooooooooooooooooooooooooooo      oooooooooooooooooooooooooooooooooooooooooooooooo",
"oooooooooooooooooooooooooooooooooooooooooo      oooooooooooooooooooooooooooooooooooooooooooooooo",
"oooooooooooooooooooooooooooooooooooo      ......      oooooooooooooooooooooooooooooooooooooooooo",
"oooooooooooooooooooooooooooooooooooo      ......      oooooooooooooooooooooooooooooooooooooooooo",
"oooooooooooooooooooooooooooooooooooo      ......      oooooooooooooooooooooooooooooooooooooooooo",
"oooooooooooooooooooooooooooooooooooo      ......      oooooooooooooooooooooooooooooooooooooooooo",
"oooooooooooooooooooooooooooooooooooo      ......      oooooooooooooooooooooooooooooooooooooooooo",
"oooooooooooooooooooooooooooooooooooo      ......      oooooooooooooooooooooooooooooooooooooooooo",
"oooooooooooooooooooooooooooooo      ..................      oooooooooooooooooooooooooooooooooooo",
"oooooooooooooooooooooooooooooo      ..................      oooooooooooooooooooooooooooooooooooo",
"oooooooooooooooooooooooooooooo      ..................      oooooooooooooooooooooooooooooooooooo",
"oooooooooooooooooooooooooooooo      ..................      oooooooooooooooooooooooooooooooooooo",
"oooooooooooooooooooooooooooooo      ..................      oooooooooooooooooooooooooooooooooooo",
"oooooooooooooooooooooooooooooo      ..................      oooooooooooooooooooooooooooooooooooo",
"oooooooooooooooooo            ......XXXXXX            oooooooooooooooooooooooooooooooooooooooooo",
"oooooooooooooooooo            ......XXXXXX            oooooooooooooooooooooooooooooooooooooooooo",
"oooooooooooooooooo            ......XXXXXX            oooooooooooooooooooooooooooooooooooooooooo",
"oooooooooooooooooo            ......XXXXXX            oooooooooooooooooooooooooooooooooooooooooo",
"oooooooooooooooooo            ......XXXXXX            oooooooooooooooooooooooooooooooooooooooooo",
"oooooooooooooooooo            ......XXXXXX            oooooooooooooooooooooooooooooooooooooooooo",
"oooooooooooo      ......XXXXXXXXXXXX      oooooooooooooooooooooooooooooooooooooooooooooooooooooo",
"oooooooooooo      ......XXXXXXXXXXXX      oooooooooooooooooooooooooooooooooooooooooooooooooooooo",
"oooooooooooo      ......XXXXXXXXXXXX      oooooooooooooooooooooooooooooooooooooooooooooooooooooo",
"oooooooooooo      ......XXXXXXXXXXXX      oooooooooooooooooooooooooooooooooooooooooooooooooooooo",
"oooooooooooo      ......XXXXXXXXXXXX      oooooooooooooooooooooooooooooooooooooooooooooooooooooo",
"oooooooooooo      ......XXXXXXXXXXXX      oooooooooooooooooooooooooooooooooooooooooooooooooooooo",
"oooooooooooooooooo      XXXXXX      oooooooooooo      oooooooooooooooooooooooooooooooooooooooooo",
"oooooooooooooooooo      XXXXXX      oooooooooooo      oooooooooooooooooooooooooooooooooooooooooo",
"oooooooooooooooooo      XXXXXX      oooooooooooo      oooooooooooooooooooooooooooooooooooooooooo",
"oooooooooooooooooo      XXXXXX      oooooooooooo      oooooooooooooooooooooooooooooooooooooooooo",
"oooooooooooooooooo      XXXXXX      oooooooooooo      oooooooooooooooooooooooooooooooooooooooooo",
"oooooooooooooooooo      XXXXXX      oooooooooooo      oooooooooooooooooooooooooooooooooooooooooo",
"oooooooooooooooooooooooo      oooooooooooo      ......      oooooooooooooooooooooooooooooooooooo",
"oooooooooooooooooooooooo      oooooooooooo      ......      oooooooooooooooooooooooooooooooooooo",
"oooooooooooooooooooooooo      oooooooooooo      ......      oooooooooooooooooooooooooooooooooooo",
"oooooooooooooooooooooooo      oooooooooooo      ......      oooooooooooooooooooooooooooooooooooo",
"oooooooooooooooooooooooo      oooooooooooo      ......      oooooooooooooooooooooooooooooooooooo",
"oooooooooooooooooooooooo      oooooooooooo      ......      oooooooooooooooooooooooooooooooooooo",
"oooooooooooooooooooooooooooooooooooo      ..................      oooooooooooooooooooooooooooooo",
"oooooooooooooooooooooooooooooooooooo      ..................      oooooooooooooooooooooooooooooo",
"oooooooooooooooooooooooooooooooooooo      ..................      oooooooooooooooooooooooooooooo",
"oooooooooooooooooooooooooooooooooooo      ..................      oooooooooooooooooooooooooooooo",
"oooooooooooooooooooooooooooooooooooo      ..................      oooooooooooooooooooooooooooooo",
"oooooooooooooooooooooooooooooooooooo      ..................      oooooooooooooooooooooooooooooo",
"oooooooooooooooooooooooooooooooooooooooooo            XXXXXX......            oooooooooooooooooo",
"oooooooooooooooooooooooooooooooooooooooooo            XXXXXX......            oooooooooooooooooo",
"oooooooooooooooooooooooooooooooooooooooooo            XXXXXX......            oooooooooooooooooo",
"oooooooooooooooooooooooooooooooooooooooooo            XXXXXX......            oooooooooooooooooo",
"oooooooooooooooooooooooooooooooooooooooooo            XXXXXX......            oooooooooooooooooo",
"oooooooooooooooooooooooooooooooooooooooooo            XXXXXX......            oooooooooooooooooo",
"oooooooooooooooooooooooooooooooooooooooooooooooooooooo      XXXXXXXXXXXX......      oooooooooooo",
"oooooooooooooooooooooooooooooooooooooooooooooooooooooo      XXXXXXXXXXXX......      oooooooooooo",
"oooooooooooooooooooooooooooooooooooooooooooooooooooooo      XXXXXXXXXXXX......      oooooooooooo",
"oooooooooooooooooooooooooooooooooooooooooooooooooooooo      XXXXXXXXXXXX......      oooooooooooo",
"oooooooooooooooooooooooooooooooooooooooooooooooooooooo      XXXXXXXXXXXX......      oooooooooooo",
"oooooooooooooooooooooooooooooooooooooooooooooooooooooo      XXXXXXXXXXXX......      oooooooooooo",
"oooooooooooooooooooooooooooooooooooooooooooooooooooooooooooo      XXXXXX      oooooooooooooooooo",
"oooooooooooooooooooooooooooooooooooooooooooooooooooooooooooo      XXXXXX      oooooooooooooooooo",
"oooooooooooooooooooooooooooooooooooooooooooooooooooooooooooo      XXXXXX      oooooooooooooooooo",
"oooooooooooooooooooooooooooooooooooooooooooooooooooooooooooo      XXXXXX      oooooooooooooooooo",
"oooooooooooooooooooooooooooooooooooooooooooooooooooooooooooo      XXXXXX      oooooooooooooooooo",
"oooooooooooooooooooooooooooooooooooooooooooooooooooooooooooo      XXXXXX      oooooooooooooooooo",
"oooooooooooooooooooooooooooooooooooooooooooooooooooooooooooooooooo      oooooooooooooooooooooooo",
"oooooooooooooooooooooooooooooooooooooooooooooooooooooooooooooooooo      oooooooooooooooooooooooo",
"oooooooooooooooooooooooooooooooooooooooooooooooooooooooooooooooooo      oooooooooooooooooooooooo",
"oooooooooooooooooooooooooooooooooooooooooooooooooooooooooooooooooo      oooooooooooooooooooooooo",
"oooooooooooooooooooooooooooooooooooooooooooooooooooooooooooooooooo      oooooooooooooooooooooooo",
"oooooooooooooooooooooooooooooooooooooooooooooooooooooooooooooooooo      oooooooooooooooooooooooo",
"oooooooooooooooooooooooooooooooooooooooooooooooooooooooooooooooooooooooooooooooooooooooooooooooo",
"oooooooooooooooooooooooooooooooooooooooooooooooooooooooooooooooooooooooooooooooooooooooooooooooo",
"oooooooooooooooooooooooooooooooooooooooooooooooooooooooooooooooooooooooooooooooooooooooooooooooo",
"oooooooooooooooooooooooooooooooooooooooooooooooooooooooooooooooooooooooooooooooooooooooooooooooo",
"oooooooooooooooooooooooooooooooooooooooooooooooooooooooooooooooooooooooooooooooooooooooooooooooo",
"oooooooooooooooooooooooooooooooooooooooooooooooooooooooooooooooooooooooooooooooooooooooooooooooo",
"oooooooooooooooooooooooooooooooooooooooooooooooooooooooooooooooooooooooooooooooooooooooooooooooo",
"oooooooooooooooooooooooooooooooooooooooooooooooooooooooooooooooooooooooooooooooooooooooooooooooo",
"oooooooooooooooooooooooooooooooooooooooooooooooooooooooooooooooooooooooooooooooooooooooooooooooo",
"oooooooooooooooooooooooooooooooooooooooooooooooooooooooooooooooooooooooooooooooooooooooooooooooo",
"oooooooooooooooooooooooooooooooooooooooooooooooooooooooooooooooooooooooooooooooooooooooooooooooo",
"oooooooooooooooooooooooooooooooooooooooooooooooooooooooooooooooooooooooooooooooooooooooooooooooo"
};
