/* XPM */
static char *result[] = {
/* columns rows colors chars-per-pixel */
"96 96 4 1 ",
"  c #25131A",
". c #90919E",
"X c #ADC1CF",
"o c None",
/* pixels */
"oooooooooooooooooooooooooooooooooooooooooooooooooooooooooooooooooooooooooooooooooooooooooooooooo",
"oooooooooooooooooooooooooooooooooooooooooooooooooooooooooooooooooooooooooooooooooooooooooooooooo",
"oooooooooooooooooooooooooooooooooooooooooooooooooooooooooooooooooooooooooooooooooooooooooooooooo",
"oooooooooooooooooooooooooooooooooooooooooooooooooooooooooooooooooooooooooooooooooooooooooooooooo",
"oooooooooooooooooooooooooooooooooooooooooooooooooooooooooooooooooooooooooooooooooooooooooooooooo",
"oooooooooooooooooooooooooooooooooooooooooooooooooooooooooooooooooooooooooooooooooooooooooooooooo",
"oooooooooooooooooooooooooooooooooooooooooooooooooooooooooooooooooooooooooooooooooooooooooooooooo",
"oooooooooooooooooooooooooooooooooooooooooooooooooooooooooooooooooooooooooooooooooooooooooooooooo",
"oooooooooooooooooooooooooooooooooooooooooooooooooooooooooooooooooooooooooooooooooooooooooooooooo",
"oooooooooooooooooooooooooooooooooooooooooooooooooooooooooooooooooooooooooooooooooooooooooooooooo",
"oooooooooooooooooooooooooooooooooooooooooooooooooooooooooooooooooooooooooooooooooooooooooooooooo",
"oooooooooooooooooooooooooooooooooooooooooooooooooooooooooooooooooooooooooooooooooooooooooooooooo",
"oooooooooooooooooooooooooooooooooooooooooooooooooooooooooooooooooooooooooooooooooooooooooooooooo",
"oooooooooooooooooooooooooooooooooooooooooooooooooooooooooooooooooooooooooooooooooooooooooooooooo",
"oooooooooooooooooooooooooooooooooooooooooooooooooooooooooooooooooooooooooooooooooooooooooooooooo",
"oooooooooooooooooooooooooooooooooooooooooooooooooooooooooooooooooooooooooooooooooooooooooooooooo",
"oooooooooooooooooooooooooooooooooooooooooooooooooooooooooooooooooooooooooooooooooooooooooooooooo",
"oooooooooooooooooooooooooooooooooooooooooooooooooooooooooooooooooooooooooooooooooooooooooooooooo",
"oooooooooooooooooooooooooooooooooooooooooooooooooooooooooooooooooooooooooooooooooooooooooooooooo",
"oooooooooooooooooooooooooooooooooooooooooooooooooooooooooooooooooooooooooooooooooooooooooooooooo",
"oooooooooooooooooooooooooooooooooooooooooooooooooooooooooooooooooooooooooooooooooooooooooooooooo",
"oooooooooooooooooooooooooooooooooooooooooooooooooooooooooooooooooooooooooooooooooooooooooooooooo",
"oooooooooooooooooooooooooooooooooooooooooooooooooooooooooooooooooooooooooooooooooooooooooooooooo",
"oooooooooooooooooooooooooooooooooooooooooooooooooooooooooooooooooooooooooooooooooooooooooooooooo",
"oooooooooooooooooooooooooooooo      ......XXXXXXXXXXXX      oooooooooooooooooooooooooooooooooooo",
"oooooooooooooooooooooooooooooo      ......XXXXXXXXXXXX      oooooooooooooooooooooooooooooooooooo",
"oooooooooooooooooooooooooooooo      ......XXXXXXXXXXXX      oooooooooooooooooooooooooooooooooooo",
"oooooooooooooooooooooooooooooo      ......XXXXXXXXXXXX      oooooooooooooooooooooooooooooooooooo",
"oooooooooooooooooooooooooooooo      ......XXXXXXXXXXXX      oooooooooooooooooooooooooooooooooooo",
"oooooooooooooooooooooooooooooo      ......XXXXXXXXXXXX      oooooooooooooooooooooooooooooooooooo",
"oooooooooooooooooooooooo      ......oooooooooooo      XXXXXX      oooooooooooooooooooooooooooooo",
"oooooooooooooooooooooooo      ......oooooooooooo      XXXXXX      oooooooooooooooooooooooooooooo",
"oooooooooooooooooooooooo      ......oooooooooooo      XXXXXX      oooooooooooooooooooooooooooooo",
"oooooooooooooooooooooooo      ......oooooooooooo      XXXXXX      oooooooooooooooooooooooooooooo",
"oooooooooooooooooooooooo      ......oooooooooooo      XXXXXX      oooooooooooooooooooooooooooooo",
"oooooooooooooooooooooooo      ......oooooooooooo      XXXXXX      oooooooooooooooooooooooooooooo",
"oooooooooooooooooooooooo      ......oooooooooooo      XXXXXX      oooooooooooooooooooooooooooooo",
"oooooooooooooooooooooooo      ......oooooooooooo      XXXXXX      oooooooooooooooooooooooooooooo",
"oooooooooooooooooooooooo      ......oooooooooooo      XXXXXX      oooooooooooooooooooooooooooooo",
"oooooooooooooooooooooooo      ......oooooooooooo      XXXXXX      oooooooooooooooooooooooooooooo",
"oooooooooooooooooooooooo      ......oooooooooooo      XXXXXX      oooooooooooooooooooooooooooooo",
"oooooooooooooooooooooooo      ......oooooooooooo      XXXXXX      oooooooooooooooooooooooooooooo",
"oooooooooooooooooooooooooooooo      XXXXXX............      oooooooooooooooooooooooooooooooooooo",
"oooooooooooooooooooooooooooooo      XXXXXX............      oooooooooooooooooooooooooooooooooooo",
"oooooooooooooooooooooooooooooo      XXXXXX............      oooooooooooooooooooooooooooooooooooo",
"oooooooooooooooooooooooooooooo      XXXXXX............      oooooooooooooooooooooooooooooooooooo",
"oooooooooooooooooooooooooooooo      XXXXXX............      oooooooooooooooooooooooooooooooooooo",
"oooooooooooooooooooooooooooooo      XXXXXX............      oooooooooooooooooooooooooooooooooooo",
"oooooooooooooooooooooooooooooooooooo      ......      oooooooooooooooooooooooooooooooooooooooooo",
"oooooooooooooooooooooooooooooooooooo      ......      oooooooooooooooooooooooooooooooooooooooooo",
"oooooooooooooooooooooooooooooooooooo      ......      oooooooooooooooooooooooooooooooooooooooooo",
"oooooooooooooooooooooooooooooooooooo      ......      oooooooooooooooooooooooooooooooooooooooooo",
"oooooooooooooooooooooooooooooooooooo      ......      oooooooooooooooooooooooooooooooooooooooooo",
"oooooooooooooooooooooooooooooooooooo      ......      oooooooooooooooooooooooooooooooooooooooooo",
"oooooooooooooooooooooooooooooooooooooooooo......      oooooooooooooooooooooooooooooooooooooooooo",
"oooooooooooooooooooooooooooooooooooooooooo......      oooooooooooooooooooooooooooooooooooooooooo",
"oooooooooooooooooooooooooooooooooooooooooo......      oooooooooooooooooooooooooooooooooooooooooo",
"oooooooooooooooooooooooooooooooooooooooooo......      oooooooooooooooooooooooooooooooooooooooooo",
"oooooooooooooooooooooooooooooooooooooooooo......      oooooooooooooooooooooooooooooooooooooooooo",
"oooooooooooooooooooooooooooooooooooooooooo......      oooooooooooooooooooooooooooooooooooooooooo",
"oooooooooooooooooooooooooooooo                              oooooooooooooooooooooooooooooooooooo",
"oooooooooooooooooooooooooooooo                              oooooooooooooooooooooooooooooooooooo",
"oooooooooooooooooooooooooooooo                              oooooooooooooooooooooooooooooooooooo",
"oooooooooooooooooooooooooooooo                              oooooooooooooooooooooooooooooooooooo",
"oooooooooooooooooooooooooooooo                              oooooooooooooooooooooooooooooooooooo",
"oooooooooooooooooooooooooooooo                              oooooooooooooooooooooooooooooooooooo",
"oooooooooooooooooooooooooooooo      ......XXXXXXXXXXXX      oooooooooooooooooooooooooooooooooooo",
"oooooooooooooooooooooooooooooo      ......XXXXXXXXXXXX      oooooooooooooooooooooooooooooooooooo",
"oooooooooooooooooooooooooooooo      ......XXXXXXXXXXXX      oooooooooooooooooooooooooooooooooooo",
"oooooooooooooooooooooooooooooo      ......XXXXXXXXXXXX      oooooooooooooooooooooooooooooooooooo",
"oooooooooooooooooooooooooooooo      ......XXXXXXXXXXXX      oooooooooooooooooooooooooooooooooooo",
"oooooooooooooooooooooooooooooo      ......XXXXXXXXXXXX      oooooooooooooooooooooooooooooooooooo",
"oooooooooooooooooooooooooooooo      ............XXXXXX      oooooooooooooooooooooooooooooooooooo",
"oooooooooooooooooooooooooooooo      ............XXXXXX      oooooooooooooooooooooooooooooooooooo",
"oooooooooooooooooooooooooooooo      ............XXXXXX      oooooooooooooooooooooooooooooooooooo",
"oooooooooooooooooooooooooooooo      ............XXXXXX      oooooooooooooooooooooooooooooooooooo",
"oooooooooooooooooooooooooooooo      ............XXXXXX      oooooooooooooooooooooooooooooooooooo",
"oooooooooooooooooooooooooooooo      ............XXXXXX      oooooooooooooooooooooooooooooooooooo",
"oooooooooooooooooooooooooooooo                              oooooooooooooooooooooooooooooooooooo",
"oooooooooooooooooooooooooooooo                              oooooooooooooooooooooooooooooooooooo",
"oooooooooooooooooooooooooooooo                              oooooooooooooooooooooooooooooooooooo",
"oooooooooooooooooooooooooooooo                              oooooooooooooooooooooooooooooooooooo",
"oooooooooooooooooooooooooooooo                              oooooooooooooooooooooooooooooooooooo",
"oooooooooooooooooooooooooooooo                              oooooooooooooooooooooooooooooooooooo",
"oooooooooooooooooooooooooooooooooooooooooooooooooooooooooooooooooooooooooooooooooooooooooooooooo",
"oooooooooooooooooooooooooooooooooooooooooooooooooooooooooooooooooooooooooooooooooooooooooooooooo",
"oooooooooooooooooooooooooooooooooooooooooooooooooooooooooooooooooooooooooooooooooooooooooooooooo",
"oooooooooooooooooooooooooooooooooooooooooooooooooooooooooooooooooooooooooooooooooooooooooooooooo",
"oooooooooooooooooooooooooooooooooooooooooooooooooooooooooooooooooooooooooooooooooooooooooooooooo",
"oooooooooooooooooooooooooooooooooooooooooooooooooooooooooooooooooooooooooooooooooooooooooooooooo",
"oooooooooooooooooooooooooooooooooooooooooooooooooooooooooooooooooooooooooooooooooooooooooooooooo",
"oooooooooooooooooooooooooooooooooooooooooooooooooooooooooooooooooooooooooooooooooooooooooooooooo",
"oooooooooooooooooooooooooooooooooooooooooooooooooooooooooooooooooooooooooooooooooooooooooooooooo",
"oooooooooooooooooooooooooooooooooooooooooooooooooooooooooooooooooooooooooooooooooooooooooooooooo",
"oooooooooooooooooooooooooooooooooooooooooooooooooooooooooooooooooooooooooooooooooooooooooooooooo",
"oooooooooooooooooooooooooooooooooooooooooooooooooooooooooooooooooooooooooooooooooooooooooooooooo"
};
