/* XPM */
static char *result[] = {
/* columns rows colors chars-per-pixel */
"96 96 4 1 ",
"  c #25131A",
". c #90919E",
"X c #ADC1CF",
"o c None",
/* pixels */
"oooooooooooooooooooooooooooooooooooooooooooooooooooooooooooooooooooooooooooooooooooooooooooooooo",
"oooooooooooooooooooooooooooooooooooooooooooooooooooooooooooooooooooooooooooooooooooooooooooooooo",
"oooooooooooooooooooooooooooooooooooooooooooooooooooooooooooooooooooooooooooooooooooooooooooooooo",
"oooooooooooooooooooooooooooooooooooooooooooooooooooooooooooooooooooooooooooooooooooooooooooooooo",
"oooooooooooooooooooooooooooooooooooooooooooooooooooooooooooooooooooooooooooooooooooooooooooooooo",
"oooooooooooooooooooooooooooooooooooooooooooooooooooooooooooooooooooooooooooooooooooooooooooooooo",
"oooooooooooooooooooooooooooooooooooooooooooooooooooooooooooooooooooooooooooooooooooooooooooooooo",
"oooooooooooooooooooooooooooooooooooooooooooooooooooooooooooooooooooooooooooooooooooooooooooooooo",
"oooooooooooooooooooooooooooooooooooooooooooooooooooooooooooooooooooooooooooooooooooooooooooooooo",
"oooooooooooooooooooooooooooooooooooooooooooooooooooooooooooooooooooooooooooooooooooooooooooooooo",
"oooooooooooooooooooooooooooooooooooooooooooooooooooooooooooooooooooooooooooooooooooooooooooooooo",
"oooooooooooooooooooooooooooooooooooooooooooooooooooooooooooooooooooooooooooooooooooooooooooooooo",
"oooooooooooooooooooooooooooooooooooooooooooooooooooooooooooooooooooooooooooooooooooooooooooooooo",
"oooooooooooooooooooooooooooooooooooooooooooooooooooooooooooooooooooooooooooooooooooooooooooooooo",
"oooooooooooooooooooooooooooooooooooooooooooooooooooooooooooooooooooooooooooooooooooooooooooooooo",
"oooooooooooooooooooooooooooooooooooooooooooooooooooooooooooooooooooooooooooooooooooooooooooooooo",
"oooooooooooooooooooooooooooooooooooooooooooooooooooooooooooooooooooooooooooooooooooooooooooooooo",
"oooooooooooooooooooooooooooooooooooooooooooooooooooooooooooooooooooooooooooooooooooooooooooooooo",
"oooooooooooooooooooooooooooooooooooooooooooooooooooooooooooooooooooooooooooooooooooooooooooooooo",
"oooooooooooooooooooooooooooooooooooooooooooooooooooooooooooooooooooooooooooooooooooooooooooooooo",
"oooooooooooooooooooooooooooooooooooooooooooooooooooooooooooooooooooooooooooooooooooooooooooooooo",
"oooooooooooooooooooooooooooooooooooooooooooooooooooooooooooooooooooooooooooooooooooooooooooooooo",
"oooooooooooooooooooooooooooooooooooooooooooooooooooooooooooooooooooooooooooooooooooooooooooooooo",
"oooooooooooooooooooooooooooooooooooooooooooooooooooooooooooooooooooooooooooooooooooooooooooooooo",
"oooooooooooooooooooooooooooooooooooo      XXXXXXXXXXXX......      oooooooooooooooooooooooooooooo",
"oooooooooooooooooooooooooooooooooooo      XXXXXXXXXXXX......      oooooooooooooooooooooooooooooo",
"oooooooooooooooooooooooooooooooooooo      XXXXXXXXXXXX......      oooooooooooooooooooooooooooooo",
"oooooooooooooooooooooooooooooooooooo      XXXXXXXXXXXX......      oooooooooooooooooooooooooooooo",
"oooooooooooooooooooooooooooooooooooo      XXXXXXXXXXXX......      oooooooooooooooooooooooooooooo",
"oooooooooooooooooooooooooooooooooooo      XXXXXXXXXXXX......      oooooooooooooooooooooooooooooo",
"oooooooooooooooooooooooooooooo      XXXXXXoooooooooooo      ......      oooooooooooooooooooooooo",
"oooooooooooooooooooooooooooooo      XXXXXXoooooooooooo      ......      oooooooooooooooooooooooo",
"oooooooooooooooooooooooooooooo      XXXXXXoooooooooooo      ......      oooooooooooooooooooooooo",
"oooooooooooooooooooooooooooooo      XXXXXXoooooooooooo      ......      oooooooooooooooooooooooo",
"oooooooooooooooooooooooooooooo      XXXXXXoooooooooooo      ......      oooooooooooooooooooooooo",
"oooooooooooooooooooooooooooooo      XXXXXXoooooooooooo      ......      oooooooooooooooooooooooo",
"oooooooooooooooooooooooooooooo      XXXXXXoooooooooooo      ......      oooooooooooooooooooooooo",
"oooooooooooooooooooooooooooooo      XXXXXXoooooooooooo      ......      oooooooooooooooooooooooo",
"oooooooooooooooooooooooooooooo      XXXXXXoooooooooooo      ......      oooooooooooooooooooooooo",
"oooooooooooooooooooooooooooooo      XXXXXXoooooooooooo      ......      oooooooooooooooooooooooo",
"oooooooooooooooooooooooooooooo      XXXXXXoooooooooooo      ......      oooooooooooooooooooooooo",
"oooooooooooooooooooooooooooooo      XXXXXXoooooooooooo      ......      oooooooooooooooooooooooo",
"oooooooooooooooooooooooooooooooooooo      ............XXXXXX      oooooooooooooooooooooooooooooo",
"oooooooooooooooooooooooooooooooooooo      ............XXXXXX      oooooooooooooooooooooooooooooo",
"oooooooooooooooooooooooooooooooooooo      ............XXXXXX      oooooooooooooooooooooooooooooo",
"oooooooooooooooooooooooooooooooooooo      ............XXXXXX      oooooooooooooooooooooooooooooo",
"oooooooooooooooooooooooooooooooooooo      ............XXXXXX      oooooooooooooooooooooooooooooo",
"oooooooooooooooooooooooooooooooooooo      ............XXXXXX      oooooooooooooooooooooooooooooo",
"oooooooooooooooooooooooooooooooooooooooooo      XXXXXX      oooooooooooooooooooooooooooooooooooo",
"oooooooooooooooooooooooooooooooooooooooooo      XXXXXX      oooooooooooooooooooooooooooooooooooo",
"oooooooooooooooooooooooooooooooooooooooooo      XXXXXX      oooooooooooooooooooooooooooooooooooo",
"oooooooooooooooooooooooooooooooooooooooooo      XXXXXX      oooooooooooooooooooooooooooooooooooo",
"oooooooooooooooooooooooooooooooooooooooooo      XXXXXX      oooooooooooooooooooooooooooooooooooo",
"oooooooooooooooooooooooooooooooooooooooooo      XXXXXX      oooooooooooooooooooooooooooooooooooo",
"oooooooooooooooooooooooooooooooooooo      ......ooooooXXXXXX      oooooooooooooooooooooooooooooo",
"oooooooooooooooooooooooooooooooooooo      ......ooooooXXXXXX      oooooooooooooooooooooooooooooo",
"oooooooooooooooooooooooooooooooooooo      ......ooooooXXXXXX      oooooooooooooooooooooooooooooo",
"oooooooooooooooooooooooooooooooooooo      ......ooooooXXXXXX      oooooooooooooooooooooooooooooo",
"oooooooooooooooooooooooooooooooooooo      ......ooooooXXXXXX      oooooooooooooooooooooooooooooo",
"oooooooooooooooooooooooooooooooooooo      ......ooooooXXXXXX      oooooooooooooooooooooooooooooo",
"oooooooooooooooooooooooooooooooooooo      ......oooooo......      oooooooooooooooooooooooooooooo",
"oooooooooooooooooooooooooooooooooooo      ......oooooo......      oooooooooooooooooooooooooooooo",
"oooooooooooooooooooooooooooooooooooo      ......oooooo......      oooooooooooooooooooooooooooooo",
"oooooooooooooooooooooooooooooooooooo      ......oooooo......      oooooooooooooooooooooooooooooo",
"oooooooooooooooooooooooooooooooooooo      ......oooooo......      oooooooooooooooooooooooooooooo",
"oooooooooooooooooooooooooooooooooooo      ......oooooo......      oooooooooooooooooooooooooooooo",
"oooooooooooooooooooooooooooooooooooooooooo      ......      oooooooooooooooooooooooooooooooooooo",
"oooooooooooooooooooooooooooooooooooooooooo      ......      oooooooooooooooooooooooooooooooooooo",
"oooooooooooooooooooooooooooooooooooooooooo      ......      oooooooooooooooooooooooooooooooooooo",
"oooooooooooooooooooooooooooooooooooooooooo      ......      oooooooooooooooooooooooooooooooooooo",
"oooooooooooooooooooooooooooooooooooooooooo      ......      oooooooooooooooooooooooooooooooooooo",
"oooooooooooooooooooooooooooooooooooooooooo      ......      oooooooooooooooooooooooooooooooooooo",
"oooooooooooooooooooooooooooooooooooooooooooooooo      oooooooooooooooooooooooooooooooooooooooooo",
"oooooooooooooooooooooooooooooooooooooooooooooooo      oooooooooooooooooooooooooooooooooooooooooo",
"oooooooooooooooooooooooooooooooooooooooooooooooo      oooooooooooooooooooooooooooooooooooooooooo",
"oooooooooooooooooooooooooooooooooooooooooooooooo      oooooooooooooooooooooooooooooooooooooooooo",
"oooooooooooooooooooooooooooooooooooooooooooooooo      oooooooooooooooooooooooooooooooooooooooooo",
"oooooooooooooooooooooooooooooooooooooooooooooooo      oooooooooooooooooooooooooooooooooooooooooo",
"oooooooooooooooooooooooooooooooooooooooooooooooooooooooooooooooooooooooooooooooooooooooooooooooo",
"oooooooooooooooooooooooooooooooooooooooooooooooooooooooooooooooooooooooooooooooooooooooooooooooo",
"oooooooooooooooooooooooooooooooooooooooooooooooooooooooooooooooooooooooooooooooooooooooooooooooo",
"oooooooooooooooooooooooooooooooooooooooooooooooooooooooooooooooooooooooooooooooooooooooooooooooo",
"oooooooooooooooooooooooooooooooooooooooooooooooooooooooooooooooooooooooooooooooooooooooooooooooo",
"oooooooooooooooooooooooooooooooooooooooooooooooooooooooooooooooooooooooooooooooooooooooooooooooo",
"oooooooooooooooooooooooooooooooooooooooooooooooooooooooooooooooooooooooooooooooooooooooooooooooo",
"oooooooooooooooooooooooooooooooooooooooooooooooooooooooooooooooooooooooooooooooooooooooooooooooo",
"oooooooooooooooooooooooooooooooooooooooooooooooooooooooooooooooooooooooooooooooooooooooooooooooo",
"oooooooooooooooooooooooooooooooooooooooooooooooooooooooooooooooooooooooooooooooooooooooooooooooo",
"oooooooooooooooooooooooooooooooooooooooooooooooooooooooooooooooooooooooooooooooooooooooooooooooo",
"oooooooooooooooooooooooooooooooooooooooooooooooooooooooooooooooooooooooooooooooooooooooooooooooo",
"oooooooooooooooooooooooooooooooooooooooooooooooooooooooooooooooooooooooooooooooooooooooooooooooo",
"oooooooooooooooooooooooooooooooooooooooooooooooooooooooooooooooooooooooooooooooooooooooooooooooo",
"oooooooooooooooooooooooooooooooooooooooooooooooooooooooooooooooooooooooooooooooooooooooooooooooo",
"oooooooooooooooooooooooooooooooooooooooooooooooooooooooooooooooooooooooooooooooooooooooooooooooo",
"oooooooooooooooooooooooooooooooooooooooooooooooooooooooooooooooooooooooooooooooooooooooooooooooo",
"oooooooooooooooooooooooooooooooooooooooooooooooooooooooooooooooooooooooooooooooooooooooooooooooo"
};
