/* XPM */
static char *result[] = {
/* columns rows colors chars-per-pixel */
"16 16 8 1 ",
"  c #25131A",
". c #BC4C51",
"X c #CF686D",
"o c #C09344",
"O c #FFD569",
"+ c #90919E",
"@ c #ADC1CF",
"# c None",
/* pixels */
"################",
"################",
"################",
"####        ####",
"#   +@+@@@++   #",
"# @@        @@ #",
"# +OOXXXXXXOO+ #",
"# +OOXXXXXXOO+ #",
"## oo......oo ##",
"## oo......oo ##",
"## oo......oo ##",
"## oo......oo ##",
"## oooo..oooo ##",
"###  oooooo  ###",
"#####  oo  #####",
"#######  #######"
};
