/* XPM */
static char *result[] = {
/* columns rows colors chars-per-pixel */
"96 96 4 1 ",
"  c #25131A",
". c #927A5D",
"X c #B19D83",
"o c None",
/* pixels */
"oooooooooooooooooooooooooooooooooooooooooooooooooooooooooooooooooooooooooooooooooooooooooooooooo",
"oooooooooooooooooooooooooooooooooooooooooooooooooooooooooooooooooooooooooooooooooooooooooooooooo",
"oooooooooooooooooooooooooooooooooooooooooooooooooooooooooooooooooooooooooooooooooooooooooooooooo",
"oooooooooooooooooooooooooooooooooooooooooooooooooooooooooooooooooooooooooooooooooooooooooooooooo",
"oooooooooooooooooooooooooooooooooooooooooooooooooooooooooooooooooooooooooooooooooooooooooooooooo",
"oooooooooooooooooooooooooooooooooooooooooooooooooooooooooooooooooooooooooooooooooooooooooooooooo",
"oooooooooooooooooooooooooooooooooooooooooo                              oooooooooooooooooooooooo",
"oooooooooooooooooooooooooooooooooooooooooo                              oooooooooooooooooooooooo",
"oooooooooooooooooooooooooooooooooooooooooo                              oooooooooooooooooooooooo",
"oooooooooooooooooooooooooooooooooooooooooo                              oooooooooooooooooooooooo",
"oooooooooooooooooooooooooooooooooooooooooo                              oooooooooooooooooooooooo",
"oooooooooooooooooooooooooooooooooooooooooo                              oooooooooooooooooooooooo",
"oooooooooooooooooooooooooooooooooooo      XXXXXXXXXXXX..................      oooooooooooooooooo",
"oooooooooooooooooooooooooooooooooooo      XXXXXXXXXXXX..................      oooooooooooooooooo",
"oooooooooooooooooooooooooooooooooooo      XXXXXXXXXXXX..................      oooooooooooooooooo",
"oooooooooooooooooooooooooooooooooooo      XXXXXXXXXXXX..................      oooooooooooooooooo",
"oooooooooooooooooooooooooooooooooooo      XXXXXXXXXXXX..................      oooooooooooooooooo",
"oooooooooooooooooooooooooooooooooooo      XXXXXXXXXXXX..................      oooooooooooooooooo",
"ooooooooooooooooooooooooooooooooooooXXXXXXXXXXXXXXXXXXXXXXXX..................      oooooooooooo",
"ooooooooooooooooooooooooooooooooooooXXXXXXXXXXXXXXXXXXXXXXXX..................      oooooooooooo",
"ooooooooooooooooooooooooooooooooooooXXXXXXXXXXXXXXXXXXXXXXXX..................      oooooooooooo",
"ooooooooooooooooooooooooooooooooooooXXXXXXXXXXXXXXXXXXXXXXXX..................      oooooooooooo",
"ooooooooooooooooooooooooooooooooooooXXXXXXXXXXXXXXXXXXXXXXXX..................      oooooooooooo",
"ooooooooooooooooooooooooooooooooooooXXXXXXXXXXXXXXXXXXXXXXXX..................      oooooooooooo",
"oooooooooooooooooooooooooooooooooooo      ooooooXXXXXX      oooooooooooo......      oooooooooooo",
"oooooooooooooooooooooooooooooooooooo      ooooooXXXXXX      oooooooooooo......      oooooooooooo",
"oooooooooooooooooooooooooooooooooooo      ooooooXXXXXX      oooooooooooo......      oooooooooooo",
"oooooooooooooooooooooooooooooooooooo      ooooooXXXXXX      oooooooooooo......      oooooooooooo",
"oooooooooooooooooooooooooooooooooooo      ooooooXXXXXX      oooooooooooo......      oooooooooooo",
"oooooooooooooooooooooooooooooooooooo      ooooooXXXXXX      oooooooooooo......      oooooooooooo",
"oooooooooooooooooooooooooooooooooooo            XXXXXX                  ......      oooooooooooo",
"oooooooooooooooooooooooooooooooooooo            XXXXXX                  ......      oooooooooooo",
"oooooooooooooooooooooooooooooooooooo            XXXXXX                  ......      oooooooooooo",
"oooooooooooooooooooooooooooooooooooo            XXXXXX                  ......      oooooooooooo",
"oooooooooooooooooooooooooooooooooooo            XXXXXX                  ......      oooooooooooo",
"oooooooooooooooooooooooooooooooooooo            XXXXXX                  ......      oooooooooooo",
"ooooooooooooooooooooooooooooooooooooXXXXXXXXXXXXXXXXXXXXXXXXXXXXXX............      oooooooooooo",
"ooooooooooooooooooooooooooooooooooooXXXXXXXXXXXXXXXXXXXXXXXXXXXXXX............      oooooooooooo",
"ooooooooooooooooooooooooooooooooooooXXXXXXXXXXXXXXXXXXXXXXXXXXXXXX............      oooooooooooo",
"ooooooooooooooooooooooooooooooooooooXXXXXXXXXXXXXXXXXXXXXXXXXXXXXX............      oooooooooooo",
"ooooooooooooooooooooooooooooooooooooXXXXXXXXXXXXXXXXXXXXXXXXXXXXXX............      oooooooooooo",
"ooooooooooooooooooooooooooooooooooooXXXXXXXXXXXXXXXXXXXXXXXXXXXXXX............      oooooooooooo",
"oooooooooooooooooooooooooooooooooooo      XXXXXX      XXXXXX......            oooooooooooooooooo",
"oooooooooooooooooooooooooooooooooooo      XXXXXX      XXXXXX......            oooooooooooooooooo",
"oooooooooooooooooooooooooooooooooooo      XXXXXX      XXXXXX......            oooooooooooooooooo",
"oooooooooooooooooooooooooooooooooooo      XXXXXX      XXXXXX......            oooooooooooooooooo",
"oooooooooooooooooooooooooooooooooooo      XXXXXX      XXXXXX......            oooooooooooooooooo",
"oooooooooooooooooooooooooooooooooooo      XXXXXX      XXXXXX......            oooooooooooooooooo",
"oooooooooooooooooo      oooooooooooooooooo      oooooo            oooooooooooooooooooooooooooooo",
"oooooooooooooooooo      oooooooooooooooooo      oooooo            oooooooooooooooooooooooooooooo",
"oooooooooooooooooo      oooooooooooooooooo      oooooo            oooooooooooooooooooooooooooooo",
"oooooooooooooooooo      oooooooooooooooooo      oooooo            oooooooooooooooooooooooooooooo",
"oooooooooooooooooo      oooooooooooooooooo      oooooo            oooooooooooooooooooooooooooooo",
"oooooooooooooooooo      oooooooooooooooooo      oooooo            oooooooooooooooooooooooooooooo",
"oooooooooooo      ......      oooooooooooooooooooooooooooooooooooooooooooooooooooooooooooooooooo",
"oooooooooooo      ......      oooooooooooooooooooooooooooooooooooooooooooooooooooooooooooooooooo",
"oooooooooooo      ......      oooooooooooooooooooooooooooooooooooooooooooooooooooooooooooooooooo",
"oooooooooooo      ......      oooooooooooooooooooooooooooooooooooooooooooooooooooooooooooooooooo",
"oooooooooooo      ......      oooooooooooooooooooooooooooooooooooooooooooooooooooooooooooooooooo",
"oooooooooooo      ......      oooooooooooooooooooooooooooooooooooooooooooooooooooooooooooooooooo",
"oooooo      ..................      oooooooooooooooooooooooooooooooooooooooooooooooooooooooooooo",
"oooooo      ..................      oooooooooooooooooooooooooooooooooooooooooooooooooooooooooooo",
"oooooo      ..................      oooooooooooooooooooooooooooooooooooooooooooooooooooooooooooo",
"oooooo      ..................      oooooooooooooooooooooooooooooooooooooooooooooooooooooooooooo",
"oooooo      ..................      oooooooooooooooooooooooooooooooooooooooooooooooooooooooooooo",
"oooooo      ..................      oooooooooooooooooooooooooooooooooooooooooooooooooooooooooooo",
"oooooooooooo            XXXXXX......            oooooooooooooooooooooooooooooooooooooooooooooooo",
"oooooooooooo            XXXXXX......            oooooooooooooooooooooooooooooooooooooooooooooooo",
"oooooooooooo            XXXXXX......            oooooooooooooooooooooooooooooooooooooooooooooooo",
"oooooooooooo            XXXXXX......            oooooooooooooooooooooooooooooooooooooooooooooooo",
"oooooooooooo            XXXXXX......            oooooooooooooooooooooooooooooooooooooooooooooooo",
"oooooooooooo            XXXXXX......            oooooooooooooooooooooooooooooooooooooooooooooooo",
"oooooooooooooooooooooooo      XXXXXXXXXXXX......      oooooooooooooooooooooooooooooooooooooooooo",
"oooooooooooooooooooooooo      XXXXXXXXXXXX......      oooooooooooooooooooooooooooooooooooooooooo",
"oooooooooooooooooooooooo      XXXXXXXXXXXX......      oooooooooooooooooooooooooooooooooooooooooo",
"oooooooooooooooooooooooo      XXXXXXXXXXXX......      oooooooooooooooooooooooooooooooooooooooooo",
"oooooooooooooooooooooooo      XXXXXXXXXXXX......      oooooooooooooooooooooooooooooooooooooooooo",
"oooooooooooooooooooooooo      XXXXXXXXXXXX......      oooooooooooooooooooooooooooooooooooooooooo",
"oooooooooooooooooooooooooooooo      XXXXXX      oooooooooooooooooooooooooooooooooooooooooooooooo",
"oooooooooooooooooooooooooooooo      XXXXXX      oooooooooooooooooooooooooooooooooooooooooooooooo",
"oooooooooooooooooooooooooooooo      XXXXXX      oooooooooooooooooooooooooooooooooooooooooooooooo",
"oooooooooooooooooooooooooooooo      XXXXXX      oooooooooooooooooooooooooooooooooooooooooooooooo",
"oooooooooooooooooooooooooooooo      XXXXXX      oooooooooooooooooooooooooooooooooooooooooooooooo",
"oooooooooooooooooooooooooooooo      XXXXXX      oooooooooooooooooooooooooooooooooooooooooooooooo",
"oooooooooooooooooooooooooooooooooooo      oooooooooooooooooooooooooooooooooooooooooooooooooooooo",
"oooooooooooooooooooooooooooooooooooo      oooooooooooooooooooooooooooooooooooooooooooooooooooooo",
"oooooooooooooooooooooooooooooooooooo      oooooooooooooooooooooooooooooooooooooooooooooooooooooo",
"oooooooooooooooooooooooooooooooooooo      oooooooooooooooooooooooooooooooooooooooooooooooooooooo",
"oooooooooooooooooooooooooooooooooooo      oooooooooooooooooooooooooooooooooooooooooooooooooooooo",
"oooooooooooooooooooooooooooooooooooo      oooooooooooooooooooooooooooooooooooooooooooooooooooooo",
"oooooooooooooooooooooooooooooooooooooooooooooooooooooooooooooooooooooooooooooooooooooooooooooooo",
"oooooooooooooooooooooooooooooooooooooooooooooooooooooooooooooooooooooooooooooooooooooooooooooooo",
"oooooooooooooooooooooooooooooooooooooooooooooooooooooooooooooooooooooooooooooooooooooooooooooooo",
"oooooooooooooooooooooooooooooooooooooooooooooooooooooooooooooooooooooooooooooooooooooooooooooooo",
"oooooooooooooooooooooooooooooooooooooooooooooooooooooooooooooooooooooooooooooooooooooooooooooooo",
"oooooooooooooooooooooooooooooooooooooooooooooooooooooooooooooooooooooooooooooooooooooooooooooooo"
};
