/* XPM */
static char *result[] = {
/* columns rows colors chars-per-pixel */
"16 16 8 1 ",
"  c #25131A",
". c #895A45",
"X c #BC4C51",
"o c #BF704D",
"O c #D1851E",
"+ c #FFD569",
"@ c #ADC1CF",
"# c None",
/* pixels */
"################",
"################",
"######## #######",
"####### X ######",
"###### XX ######",
"##### XXXX #####",
"##### XOXXX ####",
"#### XO+XXX ####",
"##### O+OX #####",
"#### @@oo@@ ####",
"##### .... #####",
"###### @@ ######",
"######  . ######",
"###### .. ######",
"#######  #######",
"################"
};
