/* XPM */
static char *result[] = {
/* columns rows colors chars-per-pixel */
"96 96 4 1 ",
"  c #25131A",
". c #919173",
"X c #D3D4A7",
"o c None",
/* pixels */
"            oooooooooooooooooooooooooooooooooooooooooooooooooooooooooooooooooooooooooooooooooooo",
"            oooooooooooooooooooooooooooooooooooooooooooooooooooooooooooooooooooooooooooooooooooo",
"            oooooooooooooooooooooooooooooooooooooooooooooooooooooooooooooooooooooooooooooooooooo",
"            oooooooooooooooooooooooooooooooooooooooooooooooooooooooooooooooooooooooooooooooooooo",
"            oooooooooooooooooooooooooooooooooooooooooooooooooooooooooooooooooooooooooooooooooooo",
"            oooooooooooooooooooooooooooooooooooooooooooooooooooooooooooooooooooooooooooooooooooo",
"      XXXXXX      oooooooooooooooooooooooooooooooooooooooooooooooooooooooooooooooooooooooooooooo",
"      XXXXXX      oooooooooooooooooooooooooooooooooooooooooooooooooooooooooooooooooooooooooooooo",
"      XXXXXX      oooooooooooooooooooooooooooooooooooooooooooooooooooooooooooooooooooooooooooooo",
"      XXXXXX      oooooooooooooooooooooooooooooooooooooooooooooooooooooooooooooooooooooooooooooo",
"      XXXXXX      oooooooooooooooooooooooooooooooooooooooooooooooooooooooooooooooooooooooooooooo",
"      XXXXXX      oooooooooooooooooooooooooooooooooooooooooooooooooooooooooooooooooooooooooooooo",
"      XXXXXXXXXXXX      oooooooooooooooooooooooooooooooooooooooooooooooooooooooooooooooooooooooo",
"      XXXXXXXXXXXX      oooooooooooooooooooooooooooooooooooooooooooooooooooooooooooooooooooooooo",
"      XXXXXXXXXXXX      oooooooooooooooooooooooooooooooooooooooooooooooooooooooooooooooooooooooo",
"      XXXXXXXXXXXX      oooooooooooooooooooooooooooooooooooooooooooooooooooooooooooooooooooooooo",
"      XXXXXXXXXXXX      oooooooooooooooooooooooooooooooooooooooooooooooooooooooooooooooooooooooo",
"      XXXXXXXXXXXX      oooooooooooooooooooooooooooooooooooooooooooooooooooooooooooooooooooooooo",
"      XXXXXX      XXXXXX      oooooooooooooooooooooooooooooooooooooooooooooooooooooooooooooooooo",
"      XXXXXX      XXXXXX      oooooooooooooooooooooooooooooooooooooooooooooooooooooooooooooooooo",
"      XXXXXX      XXXXXX      oooooooooooooooooooooooooooooooooooooooooooooooooooooooooooooooooo",
"      XXXXXX      XXXXXX      oooooooooooooooooooooooooooooooooooooooooooooooooooooooooooooooooo",
"      XXXXXX      XXXXXX      oooooooooooooooooooooooooooooooooooooooooooooooooooooooooooooooooo",
"      XXXXXX      XXXXXX      oooooooooooooooooooooooooooooooooooooooooooooooooooooooooooooooooo",
"            XXXXXX      XXXXXX      oooooooooooooooooooooooooooooooooooooooooooooooooooooooooooo",
"            XXXXXX      XXXXXX      oooooooooooooooooooooooooooooooooooooooooooooooooooooooooooo",
"            XXXXXX      XXXXXX      oooooooooooooooooooooooooooooooooooooooooooooooooooooooooooo",
"            XXXXXX      XXXXXX      oooooooooooooooooooooooooooooooooooooooooooooooooooooooooooo",
"            XXXXXX      XXXXXX      oooooooooooooooooooooooooooooooooooooooooooooooooooooooooooo",
"            XXXXXX      XXXXXX      oooooooooooooooooooooooooooooooooooooooooooooooooooooooooooo",
"      XXXXXX      XXXXXX      ......            oooooooooooooooooooooooooooooooooooooooooooooooo",
"      XXXXXX      XXXXXX      ......            oooooooooooooooooooooooooooooooooooooooooooooooo",
"      XXXXXX      XXXXXX      ......            oooooooooooooooooooooooooooooooooooooooooooooooo",
"      XXXXXX      XXXXXX      ......            oooooooooooooooooooooooooooooooooooooooooooooooo",
"      XXXXXX      XXXXXX      ......            oooooooooooooooooooooooooooooooooooooooooooooooo",
"      XXXXXX      XXXXXX      ......            oooooooooooooooooooooooooooooooooooooooooooooooo",
"      XXXXXX      oooooo......      XXXXXX......                        oooooooooooooooooooooooo",
"      XXXXXX      oooooo......      XXXXXX......                        oooooooooooooooooooooooo",
"      XXXXXX      oooooo......      XXXXXX......                        oooooooooooooooooooooooo",
"      XXXXXX      oooooo......      XXXXXX......                        oooooooooooooooooooooooo",
"      XXXXXX      oooooo......      XXXXXX......                        oooooooooooooooooooooooo",
"      XXXXXX      oooooo......      XXXXXX......                        oooooooooooooooooooooooo",
"      XXXXXX            XXXXXXXXXXXXXXXXXX      ......XXXXXXXXXXXX......      oooooooooooooooooo",
"      XXXXXX            XXXXXXXXXXXXXXXXXX      ......XXXXXXXXXXXX......      oooooooooooooooooo",
"      XXXXXX            XXXXXXXXXXXXXXXXXX      ......XXXXXXXXXXXX......      oooooooooooooooooo",
"      XXXXXX            XXXXXXXXXXXXXXXXXX      ......XXXXXXXXXXXX......      oooooooooooooooooo",
"      XXXXXX            XXXXXXXXXXXXXXXXXX      ......XXXXXXXXXXXX......      oooooooooooooooooo",
"      XXXXXX            XXXXXXXXXXXXXXXXXX      ......XXXXXXXXXXXX......      oooooooooooooooooo",
"oooooo      XXXXXXXXXXXXooooooooooooXXXXXXoooooo      ......            oooooooooooooooooooooooo",
"oooooo      XXXXXXXXXXXXooooooooooooXXXXXXoooooo      ......            oooooooooooooooooooooooo",
"oooooo      XXXXXXXXXXXXooooooooooooXXXXXXoooooo      ......            oooooooooooooooooooooooo",
"oooooo      XXXXXXXXXXXXooooooooooooXXXXXXoooooo      ......            oooooooooooooooooooooooo",
"oooooo      XXXXXXXXXXXXooooooooooooXXXXXXoooooo      ......            oooooooooooooooooooooooo",
"oooooo      XXXXXXXXXXXXooooooooooooXXXXXXoooooo      ......            oooooooooooooooooooooooo",
"oooooo      XXXXXX      oooooo            ............      oooooooooooooooooooooooooooooooooooo",
"oooooo      XXXXXX      oooooo            ............      oooooooooooooooooooooooooooooooooooo",
"oooooo      XXXXXX      oooooo            ............      oooooooooooooooooooooooooooooooooooo",
"oooooo      XXXXXX      oooooo            ............      oooooooooooooooooooooooooooooooooooo",
"oooooo      XXXXXX      oooooo            ............      oooooooooooooooooooooooooooooooooooo",
"oooooo      XXXXXX      oooooo            ............      oooooooooooooooooooooooooooooooooooo",
"oooooo      ......            XXXXXXXXXXXX      ......            oooooooooooooooooooooooooooooo",
"oooooo      ......            XXXXXXXXXXXX      ......            oooooooooooooooooooooooooooooo",
"oooooo      ......            XXXXXXXXXXXX      ......            oooooooooooooooooooooooooooooo",
"oooooo      ......            XXXXXXXXXXXX      ......            oooooooooooooooooooooooooooooo",
"oooooo      ......            XXXXXXXXXXXX      ......            oooooooooooooooooooooooooooooo",
"oooooo      ......            XXXXXXXXXXXX      ......            oooooooooooooooooooooooooooooo",
"oooooooooooo      ......XXXXXX            oooooo      XXXXXX......      oooooooooooooooooooooooo",
"oooooooooooo      ......XXXXXX            oooooo      XXXXXX......      oooooooooooooooooooooooo",
"oooooooooooo      ......XXXXXX            oooooo      XXXXXX......      oooooooooooooooooooooooo",
"oooooooooooo      ......XXXXXX            oooooo      XXXXXX......      oooooooooooooooooooooooo",
"oooooooooooo      ......XXXXXX            oooooo      XXXXXX......      oooooooooooooooooooooooo",
"oooooooooooo      ......XXXXXX            oooooo      XXXXXX......      oooooooooooooooooooooooo",
"oooooooooooo      ......      oooooooooooooooooooooooo            oooooooooooooooooooooooooooooo",
"oooooooooooo      ......      oooooooooooooooooooooooo            oooooooooooooooooooooooooooooo",
"oooooooooooo      ......      oooooooooooooooooooooooo            oooooooooooooooooooooooooooooo",
"oooooooooooo      ......      oooooooooooooooooooooooo            oooooooooooooooooooooooooooooo",
"oooooooooooo      ......      oooooooooooooooooooooooo            oooooooooooooooooooooooooooooo",
"oooooooooooo      ......      oooooooooooooooooooooooo            oooooooooooooooooooooooooooooo",
"oooooooooooooooooo      ......      oooooooooooooooooooooooooooooooooooooooooooooooooooooooooooo",
"oooooooooooooooooo      ......      oooooooooooooooooooooooooooooooooooooooooooooooooooooooooooo",
"oooooooooooooooooo      ......      oooooooooooooooooooooooooooooooooooooooooooooooooooooooooooo",
"oooooooooooooooooo      ......      oooooooooooooooooooooooooooooooooooooooooooooooooooooooooooo",
"oooooooooooooooooo      ......      oooooooooooooooooooooooooooooooooooooooooooooooooooooooooooo",
"oooooooooooooooooo      ......      oooooooooooooooooooooooooooooooooooooooooooooooooooooooooooo",
"oooooooooooooooooooooooo      oooooooooooooooooooooooooooooooooooooooooooooooooooooooooooooooooo",
"oooooooooooooooooooooooo      oooooooooooooooooooooooooooooooooooooooooooooooooooooooooooooooooo",
"oooooooooooooooooooooooo      oooooooooooooooooooooooooooooooooooooooooooooooooooooooooooooooooo",
"oooooooooooooooooooooooo      oooooooooooooooooooooooooooooooooooooooooooooooooooooooooooooooooo",
"oooooooooooooooooooooooo      oooooooooooooooooooooooooooooooooooooooooooooooooooooooooooooooooo",
"oooooooooooooooooooooooo      oooooooooooooooooooooooooooooooooooooooooooooooooooooooooooooooooo",
"oooooooooooooooooooooooooooooooooooooooooooooooooooooooooooooooooooooooooooooooooooooooooooooooo",
"oooooooooooooooooooooooooooooooooooooooooooooooooooooooooooooooooooooooooooooooooooooooooooooooo",
"oooooooooooooooooooooooooooooooooooooooooooooooooooooooooooooooooooooooooooooooooooooooooooooooo",
"oooooooooooooooooooooooooooooooooooooooooooooooooooooooooooooooooooooooooooooooooooooooooooooooo",
"oooooooooooooooooooooooooooooooooooooooooooooooooooooooooooooooooooooooooooooooooooooooooooooooo",
"oooooooooooooooooooooooooooooooooooooooooooooooooooooooooooooooooooooooooooooooooooooooooooooooo"
};
