/* XPM */
static char *result[] = {
/* columns rows colors chars-per-pixel */
"16 16 8 1 ",
"  c #25131A",
". c #3D253B",
"X c #4C2F49",
"o c #483040",
"O c #543740",
"+ c #593756",
"@ c #6E4A48",
"# c #78514F",
/* pixels */
"+X++++++XXXXXXXX",
"X@@@@@@#XX#@@@@X",
"X@@@@@@#.X#@@@@X",
"X#######XX#####X",
"+X++++++XXXXXXXX",
"X@@@@@@@@@@@@@#X",
"X#@@@@@@@@@@@@#X",
"X##############X",
".OOOOOOOOOOOOOO.",
".OOOOOOOOOOOOOOX",
".oOOOOOOOOOOOOo.",
" ...............",
".oOOOOo.oOOOOOo.",
".OOOOOO.OOOOOOO ",
" oOOOOo oOOOOOo.",
"                "
};
