/* XPM */
static char *result[] = {
/* columns rows colors chars-per-pixel */
"128 128 3 1 ",
"  c #4C2F49",
". c #6E4A48",
"X c #78514F",
/* pixels */
"                                                                                                                                ",
"                                                                                                                                ",
"                                                                                                                                ",
"                                                                                                                                ",
"                                                                                                                                ",
"                                                                                                                                ",
"                                                                                                                                ",
"                                                                                                                                ",
"        ........................XXXXXXXX        ........XXXXXXXXXXXXXXXXXXXXXXXX        XXXXXXXXXXXXXXXX................        ",
"        ........................XXXXXXXX        ........XXXXXXXXXXXXXXXXXXXXXXXX        XXXXXXXXXXXXXXXX................        ",
"        ........................XXXXXXXX        ........XXXXXXXXXXXXXXXXXXXXXXXX        XXXXXXXXXXXXXXXX................        ",
"        ........................XXXXXXXX        ........XXXXXXXXXXXXXXXXXXXXXXXX        XXXXXXXXXXXXXXXX................        ",
"        ........................XXXXXXXX        ........XXXXXXXXXXXXXXXXXXXXXXXX        XXXXXXXXXXXXXXXX................        ",
"        ........................XXXXXXXX        ........XXXXXXXXXXXXXXXXXXXXXXXX        XXXXXXXXXXXXXXXX................        ",
"        ........................XXXXXXXX        ........XXXXXXXXXXXXXXXXXXXXXXXX        XXXXXXXXXXXXXXXX................        ",
"        ........................XXXXXXXX        ........XXXXXXXXXXXXXXXXXXXXXXXX        XXXXXXXXXXXXXXXX................        ",
"        ........................XXXXXXXX        ........................XXXXXXXX        XXXXXXXX........................        ",
"        ........................XXXXXXXX        ........................XXXXXXXX        XXXXXXXX........................        ",
"        ........................XXXXXXXX        ........................XXXXXXXX        XXXXXXXX........................        ",
"        ........................XXXXXXXX        ........................XXXXXXXX        XXXXXXXX........................        ",
"        ........................XXXXXXXX        ........................XXXXXXXX        XXXXXXXX........................        ",
"        ........................XXXXXXXX        ........................XXXXXXXX        XXXXXXXX........................        ",
"        ........................XXXXXXXX        ........................XXXXXXXX        XXXXXXXX........................        ",
"        ........................XXXXXXXX        ........................XXXXXXXX        XXXXXXXX........................        ",
"        ........................XXXXXXXX        ........................XXXXXXXX        XXXXXXXX........................        ",
"        ........................XXXXXXXX        ........................XXXXXXXX        XXXXXXXX........................        ",
"        ........................XXXXXXXX        ........................XXXXXXXX        XXXXXXXX........................        ",
"        ........................XXXXXXXX        ........................XXXXXXXX        XXXXXXXX........................        ",
"        ........................XXXXXXXX        ........................XXXXXXXX        XXXXXXXX........................        ",
"        ........................XXXXXXXX        ........................XXXXXXXX        XXXXXXXX........................        ",
"        ........................XXXXXXXX        ........................XXXXXXXX        XXXXXXXX........................        ",
"        ........................XXXXXXXX        ........................XXXXXXXX        XXXXXXXX........................        ",
"        ........................XXXXXXXX        ........................XXXXXXXX        XXXXXXXX........................        ",
"        ........................XXXXXXXX        ........................XXXXXXXX        XXXXXXXX........................        ",
"        ........................XXXXXXXX        ........................XXXXXXXX        XXXXXXXX........................        ",
"        ........................XXXXXXXX        ........................XXXXXXXX        XXXXXXXX........................        ",
"        ........................XXXXXXXX        ........................XXXXXXXX        XXXXXXXX........................        ",
"        ........................XXXXXXXX        ........................XXXXXXXX        XXXXXXXX........................        ",
"        ........................XXXXXXXX        ........................XXXXXXXX        XXXXXXXX........................        ",
"        ........................XXXXXXXX        ........................XXXXXXXX        XXXXXXXX........................        ",
"        ........................XXXXXXXX        XXXXXXXX................XXXXXXXX        XXXXXXXX........................        ",
"        ........................XXXXXXXX        XXXXXXXX................XXXXXXXX        XXXXXXXX........................        ",
"        ........................XXXXXXXX        XXXXXXXX................XXXXXXXX        XXXXXXXX........................        ",
"        ........................XXXXXXXX        XXXXXXXX................XXXXXXXX        XXXXXXXX........................        ",
"        ........................XXXXXXXX        XXXXXXXX................XXXXXXXX        XXXXXXXX........................        ",
"        ........................XXXXXXXX        XXXXXXXX................XXXXXXXX        XXXXXXXX........................        ",
"        ........................XXXXXXXX        XXXXXXXX................XXXXXXXX        XXXXXXXX........................        ",
"        ........................XXXXXXXX        XXXXXXXX................XXXXXXXX        XXXXXXXX........................        ",
"        ........................XXXXXXXX        XXXXXXXX................XXXXXXXX        XXXXXXXXXXXXXXXX........XXXXXXXX        ",
"        ........................XXXXXXXX        XXXXXXXX................XXXXXXXX        XXXXXXXXXXXXXXXX........XXXXXXXX        ",
"        ........................XXXXXXXX        XXXXXXXX................XXXXXXXX        XXXXXXXXXXXXXXXX........XXXXXXXX        ",
"        ........................XXXXXXXX        XXXXXXXX................XXXXXXXX        XXXXXXXXXXXXXXXX........XXXXXXXX        ",
"        ........................XXXXXXXX        XXXXXXXX................XXXXXXXX        XXXXXXXXXXXXXXXX........XXXXXXXX        ",
"        ........................XXXXXXXX        XXXXXXXX................XXXXXXXX        XXXXXXXXXXXXXXXX........XXXXXXXX        ",
"        ........................XXXXXXXX        XXXXXXXX................XXXXXXXX        XXXXXXXXXXXXXXXX........XXXXXXXX        ",
"        ........................XXXXXXXX        XXXXXXXX................XXXXXXXX        XXXXXXXXXXXXXXXX........XXXXXXXX        ",
"        ........................XXXXXXXX        XXXXXXXX................XXXXXXXX                                                ",
"        ........................XXXXXXXX        XXXXXXXX................XXXXXXXX                                                ",
"        ........................XXXXXXXX        XXXXXXXX................XXXXXXXX                                                ",
"        ........................XXXXXXXX        XXXXXXXX................XXXXXXXX                                                ",
"        ........................XXXXXXXX        XXXXXXXX................XXXXXXXX                                                ",
"        ........................XXXXXXXX        XXXXXXXX................XXXXXXXX                                                ",
"        ........................XXXXXXXX        XXXXXXXX................XXXXXXXX                                                ",
"        ........................XXXXXXXX        XXXXXXXX................XXXXXXXX                                                ",
"        ........................XXXXXXXX        XXXXXXXX................XXXXXXXX                                                ",
"        ........................XXXXXXXX        XXXXXXXX................XXXXXXXX                                                ",
"        ........................XXXXXXXX        XXXXXXXX................XXXXXXXX                                                ",
"        ........................XXXXXXXX        XXXXXXXX................XXXXXXXX                                                ",
"        ........................XXXXXXXX        XXXXXXXX................XXXXXXXX                                                ",
"        ........................XXXXXXXX        XXXXXXXX................XXXXXXXX                                                ",
"        ........................XXXXXXXX        XXXXXXXX................XXXXXXXX                                                ",
"        ........................XXXXXXXX        XXXXXXXX................XXXXXXXX                                                ",
"        ........................XXXXXXXX        ........................XXXXXXXX        XXXXXXXX........................        ",
"        ........................XXXXXXXX        ........................XXXXXXXX        XXXXXXXX........................        ",
"        ........................XXXXXXXX        ........................XXXXXXXX        XXXXXXXX........................        ",
"        ........................XXXXXXXX        ........................XXXXXXXX        XXXXXXXX........................        ",
"        ........................XXXXXXXX        ........................XXXXXXXX        XXXXXXXX........................        ",
"        ........................XXXXXXXX        ........................XXXXXXXX        XXXXXXXX........................        ",
"        ........................XXXXXXXX        ........................XXXXXXXX        XXXXXXXX........................        ",
"        ........................XXXXXXXX        ........................XXXXXXXX        XXXXXXXX........................        ",
"        ........................XXXXXXXX        ........................XXXXXXXX        XXXXXXXX........................        ",
"        ........................XXXXXXXX        ........................XXXXXXXX        XXXXXXXX........................        ",
"        ........................XXXXXXXX        ........................XXXXXXXX        XXXXXXXX........................        ",
"        ........................XXXXXXXX        ........................XXXXXXXX        XXXXXXXX........................        ",
"        ........................XXXXXXXX        ........................XXXXXXXX        XXXXXXXX........................        ",
"        ........................XXXXXXXX        ........................XXXXXXXX        XXXXXXXX........................        ",
"        ........................XXXXXXXX        ........................XXXXXXXX        XXXXXXXX........................        ",
"        ........................XXXXXXXX        ........................XXXXXXXX        XXXXXXXX........................        ",
"        ........................XXXXXXXX        ................................        XXXXXXXX........................        ",
"        ........................XXXXXXXX        ................................        XXXXXXXX........................        ",
"        ........................XXXXXXXX        ................................        XXXXXXXX........................        ",
"        ........................XXXXXXXX        ................................        XXXXXXXX........................        ",
"        ........................XXXXXXXX        ................................        XXXXXXXX........................        ",
"        ........................XXXXXXXX        ................................        XXXXXXXX........................        ",
"        ........................XXXXXXXX        ................................        XXXXXXXX........................        ",
"        ........................XXXXXXXX        ................................        XXXXXXXX........................        ",
"        ........................XXXXXXXX        ................................        XXXXXXXX........................        ",
"        ........................XXXXXXXX        ................................        XXXXXXXX........................        ",
"        ........................XXXXXXXX        ................................        XXXXXXXX........................        ",
"        ........................XXXXXXXX        ................................        XXXXXXXX........................        ",
"        ........................XXXXXXXX        ................................        XXXXXXXX........................        ",
"        ........................XXXXXXXX        ................................        XXXXXXXX........................        ",
"        ........................XXXXXXXX        ................................        XXXXXXXX........................        ",
"        ........................XXXXXXXX        ................................        XXXXXXXX........................        ",
"        ........................XXXXXXXX        ................................        XXXXXXXX........................        ",
"        ........................XXXXXXXX        ................................        XXXXXXXX........................        ",
"        ........................XXXXXXXX        ................................        XXXXXXXX........................        ",
"        ........................XXXXXXXX        ................................        XXXXXXXX........................        ",
"        ........................XXXXXXXX        ................................        XXXXXXXX........................        ",
"        ........................XXXXXXXX        ................................        XXXXXXXX........................        ",
"        ........................XXXXXXXX        ................................        XXXXXXXX........................        ",
"        ........................XXXXXXXX        ................................        XXXXXXXX........................        ",
"        XXXXXXXX........XXXXXXXXXXXXXXXX        XXXXXXXXXXXXXXXXXXXXXXXX........        XXXXXXXXXXXXXXXX........XXXXXXXX        ",
"        XXXXXXXX........XXXXXXXXXXXXXXXX        XXXXXXXXXXXXXXXXXXXXXXXX........        XXXXXXXXXXXXXXXX........XXXXXXXX        ",
"        XXXXXXXX........XXXXXXXXXXXXXXXX        XXXXXXXXXXXXXXXXXXXXXXXX........        XXXXXXXXXXXXXXXX........XXXXXXXX        ",
"        XXXXXXXX........XXXXXXXXXXXXXXXX        XXXXXXXXXXXXXXXXXXXXXXXX........        XXXXXXXXXXXXXXXX........XXXXXXXX        ",
"        XXXXXXXX........XXXXXXXXXXXXXXXX        XXXXXXXXXXXXXXXXXXXXXXXX........        XXXXXXXXXXXXXXXX........XXXXXXXX        ",
"        XXXXXXXX........XXXXXXXXXXXXXXXX        XXXXXXXXXXXXXXXXXXXXXXXX........        XXXXXXXXXXXXXXXX........XXXXXXXX        ",
"        XXXXXXXX........XXXXXXXXXXXXXXXX        XXXXXXXXXXXXXXXXXXXXXXXX........        XXXXXXXXXXXXXXXX........XXXXXXXX        ",
"        XXXXXXXX........XXXXXXXXXXXXXXXX        XXXXXXXXXXXXXXXXXXXXXXXX........        XXXXXXXXXXXXXXXX........XXXXXXXX        ",
"                                                                                                                                ",
"                                                                                                                                ",
"                                                                                                                                ",
"                                                                                                                                ",
"                                                                                                                                ",
"                                                                                                                                ",
"                                                                                                                                ",
"                                                                                                                                "
};
