/* XPM */
static char *result[] = {
/* columns rows colors chars-per-pixel */
"128 128 5 1 ",
"  c #3D253B",
". c #4C2F49",
"X c #593756",
"o c #6E4A48",
"O c #78514F",
/* pixels */
"XXXXXXXX........XXXXXXXXXXXXXXXXXXXXXXXXXXXXXXXXXXXXXXXX........................................................................",
"XXXXXXXX........XXXXXXXXXXXXXXXXXXXXXXXXXXXXXXXXXXXXXXXX........................................................................",
"XXXXXXXX........XXXXXXXXXXXXXXXXXXXXXXXXXXXXXXXXXXXXXXXX........................................................................",
"XXXXXXXX........XXXXXXXXXXXXXXXXXXXXXXXXXXXXXXXXXXXXXXXX........................................................................",
"XXXXXXXX........XXXXXXXXXXXXXXXXXXXXXXXXXXXXXXXXXXXXXXXX........................................................................",
"XXXXXXXX........XXXXXXXXXXXXXXXXXXXXXXXXXXXXXXXXXXXXXXXX........................................................................",
"XXXXXXXX........XXXXXXXXXXXXXXXXXXXXXXXXXXXXXXXXXXXXXXXX........................................................................",
"XXXXXXXX........XXXXXXXXXXXXXXXXXXXXXXXXXXXXXXXXXXXXXXXX........................................................................",
"........ooooooooooooooooooooooooooooooooooooooooOOOOOOOO........OOOOOOOOOOOOOOOOoooooooooooooooooooooooooooooooooooooooo........",
"........ooooooooooooooooooooooooooooooooooooooooOOOOOOOO........OOOOOOOOOOOOOOOOoooooooooooooooooooooooooooooooooooooooo........",
"........ooooooooooooooooooooooooooooooooooooooooOOOOOOOO........OOOOOOOOOOOOOOOOoooooooooooooooooooooooooooooooooooooooo........",
"........ooooooooooooooooooooooooooooooooooooooooOOOOOOOO........OOOOOOOOOOOOOOOOoooooooooooooooooooooooooooooooooooooooo........",
"........ooooooooooooooooooooooooooooooooooooooooOOOOOOOO........OOOOOOOOOOOOOOOOoooooooooooooooooooooooooooooooooooooooo........",
"........ooooooooooooooooooooooooooooooooooooooooOOOOOOOO........OOOOOOOOOOOOOOOOoooooooooooooooooooooooooooooooooooooooo........",
"........ooooooooooooooooooooooooooooooooooooooooOOOOOOOO........OOOOOOOOOOOOOOOOoooooooooooooooooooooooooooooooooooooooo........",
"........ooooooooooooooooooooooooooooooooooooooooOOOOOOOO........OOOOOOOOOOOOOOOOoooooooooooooooooooooooooooooooooooooooo........",
"........ooooooooooooooooooooooooooooooooooooooooOOOOOOOO        OOOOOOOOoooooooooooooooooooooooooooooooooooooooooooooooo........",
"........ooooooooooooooooooooooooooooooooooooooooOOOOOOOO        OOOOOOOOoooooooooooooooooooooooooooooooooooooooooooooooo........",
"........ooooooooooooooooooooooooooooooooooooooooOOOOOOOO        OOOOOOOOoooooooooooooooooooooooooooooooooooooooooooooooo........",
"........ooooooooooooooooooooooooooooooooooooooooOOOOOOOO        OOOOOOOOoooooooooooooooooooooooooooooooooooooooooooooooo........",
"........ooooooooooooooooooooooooooooooooooooooooOOOOOOOO        OOOOOOOOoooooooooooooooooooooooooooooooooooooooooooooooo........",
"........ooooooooooooooooooooooooooooooooooooooooOOOOOOOO        OOOOOOOOoooooooooooooooooooooooooooooooooooooooooooooooo........",
"........ooooooooooooooooooooooooooooooooooooooooOOOOOOOO        OOOOOOOOoooooooooooooooooooooooooooooooooooooooooooooooo........",
"........ooooooooooooooooooooooooooooooooooooooooOOOOOOOO        OOOOOOOOoooooooooooooooooooooooooooooooooooooooooooooooo........",
"........OOOOOOOOOOOOOOOOOOOOOOOOOOOOOOOOOOOOOOOOOOOOOOOO........OOOOOOOOoooooooooooooooooooooooooooooooooooooooooooooooo........",
"........OOOOOOOOOOOOOOOOOOOOOOOOOOOOOOOOOOOOOOOOOOOOOOOO........OOOOOOOOoooooooooooooooooooooooooooooooooooooooooooooooo........",
"........OOOOOOOOOOOOOOOOOOOOOOOOOOOOOOOOOOOOOOOOOOOOOOOO........OOOOOOOOoooooooooooooooooooooooooooooooooooooooooooooooo........",
"........OOOOOOOOOOOOOOOOOOOOOOOOOOOOOOOOOOOOOOOOOOOOOOOO........OOOOOOOOoooooooooooooooooooooooooooooooooooooooooooooooo........",
"........OOOOOOOOOOOOOOOOOOOOOOOOOOOOOOOOOOOOOOOOOOOOOOOO........OOOOOOOOoooooooooooooooooooooooooooooooooooooooooooooooo........",
"........OOOOOOOOOOOOOOOOOOOOOOOOOOOOOOOOOOOOOOOOOOOOOOOO........OOOOOOOOoooooooooooooooooooooooooooooooooooooooooooooooo........",
"........OOOOOOOOOOOOOOOOOOOOOOOOOOOOOOOOOOOOOOOOOOOOOOOO........OOOOOOOOoooooooooooooooooooooooooooooooooooooooooooooooo........",
"........OOOOOOOOOOOOOOOOOOOOOOOOOOOOOOOOOOOOOOOOOOOOOOOO........OOOOOOOOoooooooooooooooooooooooooooooooooooooooooooooooo........",
"XXXXXXXX........XXXXXXXXXXXXXXXXXXXXXXXXXXXXXXXXXXXXXXXXXXXXXXXXOOOOOOOOoooooooooooooooooooooooooooooooooooooooooooooooo........",
"XXXXXXXX........XXXXXXXXXXXXXXXXXXXXXXXXXXXXXXXXXXXXXXXXXXXXXXXXOOOOOOOOoooooooooooooooooooooooooooooooooooooooooooooooo........",
"XXXXXXXX........XXXXXXXXXXXXXXXXXXXXXXXXXXXXXXXXXXXXXXXXXXXXXXXXOOOOOOOOoooooooooooooooooooooooooooooooooooooooooooooooo........",
"XXXXXXXX........XXXXXXXXXXXXXXXXXXXXXXXXXXXXXXXXXXXXXXXXXXXXXXXXOOOOOOOOoooooooooooooooooooooooooooooooooooooooooooooooo........",
"XXXXXXXX........XXXXXXXXXXXXXXXXXXXXXXXXXXXXXXXXXXXXXXXXXXXXXXXXOOOOOOOOoooooooooooooooooooooooooooooooooooooooooooooooo........",
"XXXXXXXX........XXXXXXXXXXXXXXXXXXXXXXXXXXXXXXXXXXXXXXXXXXXXXXXXOOOOOOOOoooooooooooooooooooooooooooooooooooooooooooooooo........",
"XXXXXXXX........XXXXXXXXXXXXXXXXXXXXXXXXXXXXXXXXXXXXXXXXXXXXXXXXOOOOOOOOoooooooooooooooooooooooooooooooooooooooooooooooo........",
"XXXXXXXX........XXXXXXXXXXXXXXXXXXXXXXXXXXXXXXXXXXXXXXXXXXXXXXXXOOOOOOOOoooooooooooooooooooooooooooooooooooooooooooooooo........",
"........OOOOOOOOOOOOOOOOooooooooooooooooooooooooOOOOOOOOXXXXXXXXOOOOOOOOoooooooooooooooooooooooooooooooooooooooooooooooo........",
"........OOOOOOOOOOOOOOOOooooooooooooooooooooooooOOOOOOOOXXXXXXXXOOOOOOOOoooooooooooooooooooooooooooooooooooooooooooooooo........",
"........OOOOOOOOOOOOOOOOooooooooooooooooooooooooOOOOOOOOXXXXXXXXOOOOOOOOoooooooooooooooooooooooooooooooooooooooooooooooo........",
"........OOOOOOOOOOOOOOOOooooooooooooooooooooooooOOOOOOOOXXXXXXXXOOOOOOOOoooooooooooooooooooooooooooooooooooooooooooooooo........",
"........OOOOOOOOOOOOOOOOooooooooooooooooooooooooOOOOOOOOXXXXXXXXOOOOOOOOoooooooooooooooooooooooooooooooooooooooooooooooo........",
"........OOOOOOOOOOOOOOOOooooooooooooooooooooooooOOOOOOOOXXXXXXXXOOOOOOOOoooooooooooooooooooooooooooooooooooooooooooooooo........",
"........OOOOOOOOOOOOOOOOooooooooooooooooooooooooOOOOOOOOXXXXXXXXOOOOOOOOoooooooooooooooooooooooooooooooooooooooooooooooo........",
"........OOOOOOOOOOOOOOOOooooooooooooooooooooooooOOOOOOOOXXXXXXXXOOOOOOOOoooooooooooooooooooooooooooooooooooooooooooooooo........",
"........OOOOOOOOOOOOOOOOooooooooooooooooooooooooOOOOOOOO........OOOOOOOOOOOOOOOOOOOOOOOOOOOOOOOOOOOOOOOOooooooooOOOOOOOO........",
"........OOOOOOOOOOOOOOOOooooooooooooooooooooooooOOOOOOOO........OOOOOOOOOOOOOOOOOOOOOOOOOOOOOOOOOOOOOOOOooooooooOOOOOOOO........",
"........OOOOOOOOOOOOOOOOooooooooooooooooooooooooOOOOOOOO........OOOOOOOOOOOOOOOOOOOOOOOOOOOOOOOOOOOOOOOOooooooooOOOOOOOO........",
"........OOOOOOOOOOOOOOOOooooooooooooooooooooooooOOOOOOOO........OOOOOOOOOOOOOOOOOOOOOOOOOOOOOOOOOOOOOOOOooooooooOOOOOOOO........",
"........OOOOOOOOOOOOOOOOooooooooooooooooooooooooOOOOOOOO........OOOOOOOOOOOOOOOOOOOOOOOOOOOOOOOOOOOOOOOOooooooooOOOOOOOO........",
"........OOOOOOOOOOOOOOOOooooooooooooooooooooooooOOOOOOOO........OOOOOOOOOOOOOOOOOOOOOOOOOOOOOOOOOOOOOOOOooooooooOOOOOOOO........",
"........OOOOOOOOOOOOOOOOooooooooooooooooooooooooOOOOOOOO........OOOOOOOOOOOOOOOOOOOOOOOOOOOOOOOOOOOOOOOOooooooooOOOOOOOO........",
"........OOOOOOOOOOOOOOOOooooooooooooooooooooooooOOOOOOOO........OOOOOOOOOOOOOOOOOOOOOOOOOOOOOOOOOOOOOOOOooooooooOOOOOOOO........",
"........OOOOOOOOooooooooooooooooooooooooooooooooOOOOOOOO........................................XXXXXXXXXXXXXXXX................",
"........OOOOOOOOooooooooooooooooooooooooooooooooOOOOOOOO........................................XXXXXXXXXXXXXXXX................",
"........OOOOOOOOooooooooooooooooooooooooooooooooOOOOOOOO........................................XXXXXXXXXXXXXXXX................",
"........OOOOOOOOooooooooooooooooooooooooooooooooOOOOOOOO........................................XXXXXXXXXXXXXXXX................",
"........OOOOOOOOooooooooooooooooooooooooooooooooOOOOOOOO........................................XXXXXXXXXXXXXXXX................",
"........OOOOOOOOooooooooooooooooooooooooooooooooOOOOOOOO........................................XXXXXXXXXXXXXXXX................",
"........OOOOOOOOooooooooooooooooooooooooooooooooOOOOOOOO........................................XXXXXXXXXXXXXXXX................",
"........OOOOOOOOooooooooooooooooooooooooooooooooOOOOOOOO........................................XXXXXXXXXXXXXXXX................",
"........ooooooooooooooooooooooooooooooooooooooooOOOOOOOO................XXXXXXXXXXXXXXXXXXXXXXXX................................",
"........ooooooooooooooooooooooooooooooooooooooooOOOOOOOO................XXXXXXXXXXXXXXXXXXXXXXXX................................",
"........ooooooooooooooooooooooooooooooooooooooooOOOOOOOO................XXXXXXXXXXXXXXXXXXXXXXXX................................",
"........ooooooooooooooooooooooooooooooooooooooooOOOOOOOO................XXXXXXXXXXXXXXXXXXXXXXXX................................",
"........ooooooooooooooooooooooooooooooooooooooooOOOOOOOO................XXXXXXXXXXXXXXXXXXXXXXXX................................",
"........ooooooooooooooooooooooooooooooooooooooooOOOOOOOO................XXXXXXXXXXXXXXXXXXXXXXXX................................",
"........ooooooooooooooooooooooooooooooooooooooooOOOOOOOO................XXXXXXXXXXXXXXXXXXXXXXXX................................",
"........ooooooooooooooooooooooooooooooooooooooooOOOOOOOO................XXXXXXXXXXXXXXXXXXXXXXXX................................",
"........ooooooooooooooooooooooooooooooooooooooooOOOOOOOO........OOOOOOOOoooooooooooooooooooooooooooooooooooooooooooooooo........",
"........ooooooooooooooooooooooooooooooooooooooooOOOOOOOO........OOOOOOOOoooooooooooooooooooooooooooooooooooooooooooooooo........",
"........ooooooooooooooooooooooooooooooooooooooooOOOOOOOO........OOOOOOOOoooooooooooooooooooooooooooooooooooooooooooooooo........",
"........ooooooooooooooooooooooooooooooooooooooooOOOOOOOO........OOOOOOOOoooooooooooooooooooooooooooooooooooooooooooooooo........",
"........ooooooooooooooooooooooooooooooooooooooooOOOOOOOO........OOOOOOOOoooooooooooooooooooooooooooooooooooooooooooooooo........",
"........ooooooooooooooooooooooooooooooooooooooooOOOOOOOO........OOOOOOOOoooooooooooooooooooooooooooooooooooooooooooooooo........",
"........ooooooooooooooooooooooooooooooooooooooooOOOOOOOO........OOOOOOOOoooooooooooooooooooooooooooooooooooooooooooooooo........",
"........ooooooooooooooooooooooooooooooooooooooooOOOOOOOO........OOOOOOOOoooooooooooooooooooooooooooooooooooooooooooooooo........",
"........ooooooooooooooooooooooooooooooooooooooooOOOOOOOO........OOOOOOOOoooooooooooooooooooooooooooooooooooooooooooooooo........",
"........ooooooooooooooooooooooooooooooooooooooooOOOOOOOO........OOOOOOOOoooooooooooooooooooooooooooooooooooooooooooooooo........",
"........ooooooooooooooooooooooooooooooooooooooooOOOOOOOO........OOOOOOOOoooooooooooooooooooooooooooooooooooooooooooooooo........",
"........ooooooooooooooooooooooooooooooooooooooooOOOOOOOO........OOOOOOOOoooooooooooooooooooooooooooooooooooooooooooooooo........",
"........ooooooooooooooooooooooooooooooooooooooooOOOOOOOO........OOOOOOOOoooooooooooooooooooooooooooooooooooooooooooooooo........",
"........ooooooooooooooooooooooooooooooooooooooooOOOOOOOO........OOOOOOOOoooooooooooooooooooooooooooooooooooooooooooooooo........",
"........ooooooooooooooooooooooooooooooooooooooooOOOOOOOO........OOOOOOOOoooooooooooooooooooooooooooooooooooooooooooooooo........",
"........ooooooooooooooooooooooooooooooooooooooooOOOOOOOO........OOOOOOOOoooooooooooooooooooooooooooooooooooooooooooooooo........",
"........ooooooooooooooooooooooooooooooooooooooooooooooooXXXXXXXXOOOOOOOOoooooooooooooooooooooooooooooooooooooooooooooooo........",
"........ooooooooooooooooooooooooooooooooooooooooooooooooXXXXXXXXOOOOOOOOoooooooooooooooooooooooooooooooooooooooooooooooo........",
"........ooooooooooooooooooooooooooooooooooooooooooooooooXXXXXXXXOOOOOOOOoooooooooooooooooooooooooooooooooooooooooooooooo........",
"........ooooooooooooooooooooooooooooooooooooooooooooooooXXXXXXXXOOOOOOOOoooooooooooooooooooooooooooooooooooooooooooooooo........",
"........ooooooooooooooooooooooooooooooooooooooooooooooooXXXXXXXXOOOOOOOOoooooooooooooooooooooooooooooooooooooooooooooooo........",
"........ooooooooooooooooooooooooooooooooooooooooooooooooXXXXXXXXOOOOOOOOoooooooooooooooooooooooooooooooooooooooooooooooo........",
"........ooooooooooooooooooooooooooooooooooooooooooooooooXXXXXXXXOOOOOOOOoooooooooooooooooooooooooooooooooooooooooooooooo........",
"........ooooooooooooooooooooooooooooooooooooooooooooooooXXXXXXXXOOOOOOOOoooooooooooooooooooooooooooooooooooooooooooooooo........",
"........ooooooooooooooooooooooooooooooooooooooooooooooooXXXXXXXXOOOOOOOOoooooooooooooooooooooooooooooooooooooooooooooooo........",
"........ooooooooooooooooooooooooooooooooooooooooooooooooXXXXXXXXOOOOOOOOoooooooooooooooooooooooooooooooooooooooooooooooo........",
"........ooooooooooooooooooooooooooooooooooooooooooooooooXXXXXXXXOOOOOOOOoooooooooooooooooooooooooooooooooooooooooooooooo........",
"........ooooooooooooooooooooooooooooooooooooooooooooooooXXXXXXXXOOOOOOOOoooooooooooooooooooooooooooooooooooooooooooooooo........",
"........ooooooooooooooooooooooooooooooooooooooooooooooooXXXXXXXXOOOOOOOOoooooooooooooooooooooooooooooooooooooooooooooooo........",
"........ooooooooooooooooooooooooooooooooooooooooooooooooXXXXXXXXOOOOOOOOoooooooooooooooooooooooooooooooooooooooooooooooo........",
"........ooooooooooooooooooooooooooooooooooooooooooooooooXXXXXXXXOOOOOOOOoooooooooooooooooooooooooooooooooooooooooooooooo........",
"........ooooooooooooooooooooooooooooooooooooooooooooooooXXXXXXXXOOOOOOOOoooooooooooooooooooooooooooooooooooooooooooooooo........",
"........oooooooooooooooooooooooooooooooooooooooooooooooo........OOOOOOOOoooooooooooooooooooooooooooooooooooooooooooooooo........",
"........oooooooooooooooooooooooooooooooooooooooooooooooo........OOOOOOOOoooooooooooooooooooooooooooooooooooooooooooooooo........",
"........oooooooooooooooooooooooooooooooooooooooooooooooo........OOOOOOOOoooooooooooooooooooooooooooooooooooooooooooooooo........",
"........oooooooooooooooooooooooooooooooooooooooooooooooo........OOOOOOOOoooooooooooooooooooooooooooooooooooooooooooooooo........",
"........oooooooooooooooooooooooooooooooooooooooooooooooo........OOOOOOOOoooooooooooooooooooooooooooooooooooooooooooooooo........",
"........oooooooooooooooooooooooooooooooooooooooooooooooo........OOOOOOOOoooooooooooooooooooooooooooooooooooooooooooooooo........",
"........oooooooooooooooooooooooooooooooooooooooooooooooo........OOOOOOOOoooooooooooooooooooooooooooooooooooooooooooooooo........",
"........oooooooooooooooooooooooooooooooooooooooooooooooo........OOOOOOOOoooooooooooooooooooooooooooooooooooooooooooooooo........",
"........OOOOOOOOOOOOOOOOOOOOOOOOOOOOOOOOooooooooOOOOOOOO........OOOOOOOOOOOOOOOOOOOOOOOOoooooooooooooooooooooooooooooooo........",
"........OOOOOOOOOOOOOOOOOOOOOOOOOOOOOOOOooooooooOOOOOOOO........OOOOOOOOOOOOOOOOOOOOOOOOoooooooooooooooooooooooooooooooo........",
"........OOOOOOOOOOOOOOOOOOOOOOOOOOOOOOOOooooooooOOOOOOOO........OOOOOOOOOOOOOOOOOOOOOOOOoooooooooooooooooooooooooooooooo........",
"........OOOOOOOOOOOOOOOOOOOOOOOOOOOOOOOOooooooooOOOOOOOO........OOOOOOOOOOOOOOOOOOOOOOOOoooooooooooooooooooooooooooooooo........",
"........OOOOOOOOOOOOOOOOOOOOOOOOOOOOOOOOooooooooOOOOOOOO........OOOOOOOOOOOOOOOOOOOOOOOOoooooooooooooooooooooooooooooooo........",
"........OOOOOOOOOOOOOOOOOOOOOOOOOOOOOOOOooooooooOOOOOOOO........OOOOOOOOOOOOOOOOOOOOOOOOoooooooooooooooooooooooooooooooo........",
"........OOOOOOOOOOOOOOOOOOOOOOOOOOOOOOOOooooooooOOOOOOOO........OOOOOOOOOOOOOOOOOOOOOOOOoooooooooooooooooooooooooooooooo........",
"........OOOOOOOOOOOOOOOOOOOOOOOOOOOOOOOOooooooooOOOOOOOO........OOOOOOOOOOOOOOOOOOOOOOOOoooooooooooooooooooooooooooooooo........",
"................................................................................................................................",
"................................................................................................................................",
"................................................................................................................................",
"................................................................................................................................",
"................................................................................................................................",
"................................................................................................................................",
"................................................................................................................................",
"................................................................................................................................"
};
