/* XPM */
static char *result[] = {
/* columns rows colors chars-per-pixel */
"96 96 5 1 ",
"  c #3D253B",
". c #4C2F49",
"X c #593756",
"o c #6E4A48",
"O c #78514F",
/* pixels */
"XXXXXX......XXXXXXXXXXXXXXXXXXXXXXXXXXXXXX......................................................",
"XXXXXX......XXXXXXXXXXXXXXXXXXXXXXXXXXXXXX......................................................",
"XXXXXX......XXXXXXXXXXXXXXXXXXXXXXXXXXXXXX......................................................",
"XXXXXX......XXXXXXXXXXXXXXXXXXXXXXXXXXXXXX......................................................",
"XXXXXX......XXXXXXXXXXXXXXXXXXXXXXXXXXXXXX......................................................",
"XXXXXX......XXXXXXXXXXXXXXXXXXXXXXXXXXXXXX......................................................",
"......ooooooooooooooooooooooooooooooOOOOOO......OOOOOOOOOOOOoooooooooooooooooooooooooooooo......",
"......ooooooooooooooooooooooooooooooOOOOOO......OOOOOOOOOOOOoooooooooooooooooooooooooooooo......",
"......ooooooooooooooooooooooooooooooOOOOOO......OOOOOOOOOOOOoooooooooooooooooooooooooooooo......",
"......ooooooooooooooooooooooooooooooOOOOOO......OOOOOOOOOOOOoooooooooooooooooooooooooooooo......",
"......ooooooooooooooooooooooooooooooOOOOOO......OOOOOOOOOOOOoooooooooooooooooooooooooooooo......",
"......ooooooooooooooooooooooooooooooOOOOOO......OOOOOOOOOOOOoooooooooooooooooooooooooooooo......",
"......ooooooooooooooooooooooooooooooOOOOOO      OOOOOOoooooooooooooooooooooooooooooooooooo......",
"......ooooooooooooooooooooooooooooooOOOOOO      OOOOOOoooooooooooooooooooooooooooooooooooo......",
"......ooooooooooooooooooooooooooooooOOOOOO      OOOOOOoooooooooooooooooooooooooooooooooooo......",
"......ooooooooooooooooooooooooooooooOOOOOO      OOOOOOoooooooooooooooooooooooooooooooooooo......",
"......ooooooooooooooooooooooooooooooOOOOOO      OOOOOOoooooooooooooooooooooooooooooooooooo......",
"......ooooooooooooooooooooooooooooooOOOOOO      OOOOOOoooooooooooooooooooooooooooooooooooo......",
"......OOOOOOOOOOOOOOOOOOOOOOOOOOOOOOOOOOOO......OOOOOOoooooooooooooooooooooooooooooooooooo......",
"......OOOOOOOOOOOOOOOOOOOOOOOOOOOOOOOOOOOO......OOOOOOoooooooooooooooooooooooooooooooooooo......",
"......OOOOOOOOOOOOOOOOOOOOOOOOOOOOOOOOOOOO......OOOOOOoooooooooooooooooooooooooooooooooooo......",
"......OOOOOOOOOOOOOOOOOOOOOOOOOOOOOOOOOOOO......OOOOOOoooooooooooooooooooooooooooooooooooo......",
"......OOOOOOOOOOOOOOOOOOOOOOOOOOOOOOOOOOOO......OOOOOOoooooooooooooooooooooooooooooooooooo......",
"......OOOOOOOOOOOOOOOOOOOOOOOOOOOOOOOOOOOO......OOOOOOoooooooooooooooooooooooooooooooooooo......",
"XXXXXX......XXXXXXXXXXXXXXXXXXXXXXXXXXXXXXXXXXXXOOOOOOoooooooooooooooooooooooooooooooooooo......",
"XXXXXX......XXXXXXXXXXXXXXXXXXXXXXXXXXXXXXXXXXXXOOOOOOoooooooooooooooooooooooooooooooooooo......",
"XXXXXX......XXXXXXXXXXXXXXXXXXXXXXXXXXXXXXXXXXXXOOOOOOoooooooooooooooooooooooooooooooooooo......",
"XXXXXX......XXXXXXXXXXXXXXXXXXXXXXXXXXXXXXXXXXXXOOOOOOoooooooooooooooooooooooooooooooooooo......",
"XXXXXX......XXXXXXXXXXXXXXXXXXXXXXXXXXXXXXXXXXXXOOOOOOoooooooooooooooooooooooooooooooooooo......",
"XXXXXX......XXXXXXXXXXXXXXXXXXXXXXXXXXXXXXXXXXXXOOOOOOoooooooooooooooooooooooooooooooooooo......",
"......OOOOOOOOOOOOooooooooooooooooooOOOOOOXXXXXXOOOOOOoooooooooooooooooooooooooooooooooooo......",
"......OOOOOOOOOOOOooooooooooooooooooOOOOOOXXXXXXOOOOOOoooooooooooooooooooooooooooooooooooo......",
"......OOOOOOOOOOOOooooooooooooooooooOOOOOOXXXXXXOOOOOOoooooooooooooooooooooooooooooooooooo......",
"......OOOOOOOOOOOOooooooooooooooooooOOOOOOXXXXXXOOOOOOoooooooooooooooooooooooooooooooooooo......",
"......OOOOOOOOOOOOooooooooooooooooooOOOOOOXXXXXXOOOOOOoooooooooooooooooooooooooooooooooooo......",
"......OOOOOOOOOOOOooooooooooooooooooOOOOOOXXXXXXOOOOOOoooooooooooooooooooooooooooooooooooo......",
"......OOOOOOOOOOOOooooooooooooooooooOOOOOO......OOOOOOOOOOOOOOOOOOOOOOOOOOOOOOooooooOOOOOO......",
"......OOOOOOOOOOOOooooooooooooooooooOOOOOO......OOOOOOOOOOOOOOOOOOOOOOOOOOOOOOooooooOOOOOO......",
"......OOOOOOOOOOOOooooooooooooooooooOOOOOO......OOOOOOOOOOOOOOOOOOOOOOOOOOOOOOooooooOOOOOO......",
"......OOOOOOOOOOOOooooooooooooooooooOOOOOO......OOOOOOOOOOOOOOOOOOOOOOOOOOOOOOooooooOOOOOO......",
"......OOOOOOOOOOOOooooooooooooooooooOOOOOO......OOOOOOOOOOOOOOOOOOOOOOOOOOOOOOooooooOOOOOO......",
"......OOOOOOOOOOOOooooooooooooooooooOOOOOO......OOOOOOOOOOOOOOOOOOOOOOOOOOOOOOooooooOOOOOO......",
"......OOOOOOooooooooooooooooooooooooOOOOOO..............................XXXXXXXXXXXX............",
"......OOOOOOooooooooooooooooooooooooOOOOOO..............................XXXXXXXXXXXX............",
"......OOOOOOooooooooooooooooooooooooOOOOOO..............................XXXXXXXXXXXX............",
"......OOOOOOooooooooooooooooooooooooOOOOOO..............................XXXXXXXXXXXX............",
"......OOOOOOooooooooooooooooooooooooOOOOOO..............................XXXXXXXXXXXX............",
"......OOOOOOooooooooooooooooooooooooOOOOOO..............................XXXXXXXXXXXX............",
"......ooooooooooooooooooooooooooooooOOOOOO............XXXXXXXXXXXXXXXXXX........................",
"......ooooooooooooooooooooooooooooooOOOOOO............XXXXXXXXXXXXXXXXXX........................",
"......ooooooooooooooooooooooooooooooOOOOOO............XXXXXXXXXXXXXXXXXX........................",
"......ooooooooooooooooooooooooooooooOOOOOO............XXXXXXXXXXXXXXXXXX........................",
"......ooooooooooooooooooooooooooooooOOOOOO............XXXXXXXXXXXXXXXXXX........................",
"......ooooooooooooooooooooooooooooooOOOOOO............XXXXXXXXXXXXXXXXXX........................",
"......ooooooooooooooooooooooooooooooOOOOOO......OOOOOOoooooooooooooooooooooooooooooooooooo......",
"......ooooooooooooooooooooooooooooooOOOOOO......OOOOOOoooooooooooooooooooooooooooooooooooo......",
"......ooooooooooooooooooooooooooooooOOOOOO......OOOOOOoooooooooooooooooooooooooooooooooooo......",
"......ooooooooooooooooooooooooooooooOOOOOO......OOOOOOoooooooooooooooooooooooooooooooooooo......",
"......ooooooooooooooooooooooooooooooOOOOOO......OOOOOOoooooooooooooooooooooooooooooooooooo......",
"......ooooooooooooooooooooooooooooooOOOOOO......OOOOOOoooooooooooooooooooooooooooooooooooo......",
"......ooooooooooooooooooooooooooooooOOOOOO......OOOOOOoooooooooooooooooooooooooooooooooooo......",
"......ooooooooooooooooooooooooooooooOOOOOO......OOOOOOoooooooooooooooooooooooooooooooooooo......",
"......ooooooooooooooooooooooooooooooOOOOOO......OOOOOOoooooooooooooooooooooooooooooooooooo......",
"......ooooooooooooooooooooooooooooooOOOOOO......OOOOOOoooooooooooooooooooooooooooooooooooo......",
"......ooooooooooooooooooooooooooooooOOOOOO......OOOOOOoooooooooooooooooooooooooooooooooooo......",
"......ooooooooooooooooooooooooooooooOOOOOO......OOOOOOoooooooooooooooooooooooooooooooooooo......",
"......ooooooooooooooooooooooooooooooooooooXXXXXXOOOOOOoooooooooooooooooooooooooooooooooooo......",
"......ooooooooooooooooooooooooooooooooooooXXXXXXOOOOOOoooooooooooooooooooooooooooooooooooo......",
"......ooooooooooooooooooooooooooooooooooooXXXXXXOOOOOOoooooooooooooooooooooooooooooooooooo......",
"......ooooooooooooooooooooooooooooooooooooXXXXXXOOOOOOoooooooooooooooooooooooooooooooooooo......",
"......ooooooooooooooooooooooooooooooooooooXXXXXXOOOOOOoooooooooooooooooooooooooooooooooooo......",
"......ooooooooooooooooooooooooooooooooooooXXXXXXOOOOOOoooooooooooooooooooooooooooooooooooo......",
"......ooooooooooooooooooooooooooooooooooooXXXXXXOOOOOOoooooooooooooooooooooooooooooooooooo......",
"......ooooooooooooooooooooooooooooooooooooXXXXXXOOOOOOoooooooooooooooooooooooooooooooooooo......",
"......ooooooooooooooooooooooooooooooooooooXXXXXXOOOOOOoooooooooooooooooooooooooooooooooooo......",
"......ooooooooooooooooooooooooooooooooooooXXXXXXOOOOOOoooooooooooooooooooooooooooooooooooo......",
"......ooooooooooooooooooooooooooooooooooooXXXXXXOOOOOOoooooooooooooooooooooooooooooooooooo......",
"......ooooooooooooooooooooooooooooooooooooXXXXXXOOOOOOoooooooooooooooooooooooooooooooooooo......",
"......oooooooooooooooooooooooooooooooooooo......OOOOOOoooooooooooooooooooooooooooooooooooo......",
"......oooooooooooooooooooooooooooooooooooo......OOOOOOoooooooooooooooooooooooooooooooooooo......",
"......oooooooooooooooooooooooooooooooooooo......OOOOOOoooooooooooooooooooooooooooooooooooo......",
"......oooooooooooooooooooooooooooooooooooo......OOOOOOoooooooooooooooooooooooooooooooooooo......",
"......oooooooooooooooooooooooooooooooooooo......OOOOOOoooooooooooooooooooooooooooooooooooo......",
"......oooooooooooooooooooooooooooooooooooo......OOOOOOoooooooooooooooooooooooooooooooooooo......",
"......OOOOOOOOOOOOOOOOOOOOOOOOooooooOOOOOO......OOOOOOOOOOOOOOOOOOoooooooooooooooooooooooo......",
"......OOOOOOOOOOOOOOOOOOOOOOOOooooooOOOOOO......OOOOOOOOOOOOOOOOOOoooooooooooooooooooooooo......",
"......OOOOOOOOOOOOOOOOOOOOOOOOooooooOOOOOO......OOOOOOOOOOOOOOOOOOoooooooooooooooooooooooo......",
"......OOOOOOOOOOOOOOOOOOOOOOOOooooooOOOOOO......OOOOOOOOOOOOOOOOOOoooooooooooooooooooooooo......",
"......OOOOOOOOOOOOOOOOOOOOOOOOooooooOOOOOO......OOOOOOOOOOOOOOOOOOoooooooooooooooooooooooo......",
"......OOOOOOOOOOOOOOOOOOOOOOOOooooooOOOOOO......OOOOOOOOOOOOOOOOOOoooooooooooooooooooooooo......",
"................................................................................................",
"................................................................................................",
"................................................................................................",
"................................................................................................",
"................................................................................................",
"................................................................................................"
};
