/* XPM */
static char *result[] = {
/* columns rows colors chars-per-pixel */
"96 96 3 1 ",
"  c #4C2F49",
". c #6E4A48",
"X c #78514F",
/* pixels */
"                                                                                                ",
"                                                                                                ",
"                                                                                                ",
"                                                                                                ",
"                                                                                                ",
"                                                                                                ",
"      ..................XXXXXX      ......XXXXXXXXXXXXXXXXXX      XXXXXXXXXXXX............      ",
"      ..................XXXXXX      ......XXXXXXXXXXXXXXXXXX      XXXXXXXXXXXX............      ",
"      ..................XXXXXX      ......XXXXXXXXXXXXXXXXXX      XXXXXXXXXXXX............      ",
"      ..................XXXXXX      ......XXXXXXXXXXXXXXXXXX      XXXXXXXXXXXX............      ",
"      ..................XXXXXX      ......XXXXXXXXXXXXXXXXXX      XXXXXXXXXXXX............      ",
"      ..................XXXXXX      ......XXXXXXXXXXXXXXXXXX      XXXXXXXXXXXX............      ",
"      ..................XXXXXX      ..................XXXXXX      XXXXXX..................      ",
"      ..................XXXXXX      ..................XXXXXX      XXXXXX..................      ",
"      ..................XXXXXX      ..................XXXXXX      XXXXXX..................      ",
"      ..................XXXXXX      ..................XXXXXX      XXXXXX..................      ",
"      ..................XXXXXX      ..................XXXXXX      XXXXXX..................      ",
"      ..................XXXXXX      ..................XXXXXX      XXXXXX..................      ",
"      ..................XXXXXX      ..................XXXXXX      XXXXXX..................      ",
"      ..................XXXXXX      ..................XXXXXX      XXXXXX..................      ",
"      ..................XXXXXX      ..................XXXXXX      XXXXXX..................      ",
"      ..................XXXXXX      ..................XXXXXX      XXXXXX..................      ",
"      ..................XXXXXX      ..................XXXXXX      XXXXXX..................      ",
"      ..................XXXXXX      ..................XXXXXX      XXXXXX..................      ",
"      ..................XXXXXX      ..................XXXXXX      XXXXXX..................      ",
"      ..................XXXXXX      ..................XXXXXX      XXXXXX..................      ",
"      ..................XXXXXX      ..................XXXXXX      XXXXXX..................      ",
"      ..................XXXXXX      ..................XXXXXX      XXXXXX..................      ",
"      ..................XXXXXX      ..................XXXXXX      XXXXXX..................      ",
"      ..................XXXXXX      ..................XXXXXX      XXXXXX..................      ",
"      ..................XXXXXX      XXXXXX............XXXXXX      XXXXXX..................      ",
"      ..................XXXXXX      XXXXXX............XXXXXX      XXXXXX..................      ",
"      ..................XXXXXX      XXXXXX............XXXXXX      XXXXXX..................      ",
"      ..................XXXXXX      XXXXXX............XXXXXX      XXXXXX..................      ",
"      ..................XXXXXX      XXXXXX............XXXXXX      XXXXXX..................      ",
"      ..................XXXXXX      XXXXXX............XXXXXX      XXXXXX..................      ",
"      ..................XXXXXX      XXXXXX............XXXXXX      XXXXXXXXXXXX......XXXXXX      ",
"      ..................XXXXXX      XXXXXX............XXXXXX      XXXXXXXXXXXX......XXXXXX      ",
"      ..................XXXXXX      XXXXXX............XXXXXX      XXXXXXXXXXXX......XXXXXX      ",
"      ..................XXXXXX      XXXXXX............XXXXXX      XXXXXXXXXXXX......XXXXXX      ",
"      ..................XXXXXX      XXXXXX............XXXXXX      XXXXXXXXXXXX......XXXXXX      ",
"      ..................XXXXXX      XXXXXX............XXXXXX      XXXXXXXXXXXX......XXXXXX      ",
"      ..................XXXXXX      XXXXXX............XXXXXX                                    ",
"      ..................XXXXXX      XXXXXX............XXXXXX                                    ",
"      ..................XXXXXX      XXXXXX............XXXXXX                                    ",
"      ..................XXXXXX      XXXXXX............XXXXXX                                    ",
"      ..................XXXXXX      XXXXXX............XXXXXX                                    ",
"      ..................XXXXXX      XXXXXX............XXXXXX                                    ",
"      ..................XXXXXX      XXXXXX............XXXXXX                                    ",
"      ..................XXXXXX      XXXXXX............XXXXXX                                    ",
"      ..................XXXXXX      XXXXXX............XXXXXX                                    ",
"      ..................XXXXXX      XXXXXX............XXXXXX                                    ",
"      ..................XXXXXX      XXXXXX............XXXXXX                                    ",
"      ..................XXXXXX      XXXXXX............XXXXXX                                    ",
"      ..................XXXXXX      ..................XXXXXX      XXXXXX..................      ",
"      ..................XXXXXX      ..................XXXXXX      XXXXXX..................      ",
"      ..................XXXXXX      ..................XXXXXX      XXXXXX..................      ",
"      ..................XXXXXX      ..................XXXXXX      XXXXXX..................      ",
"      ..................XXXXXX      ..................XXXXXX      XXXXXX..................      ",
"      ..................XXXXXX      ..................XXXXXX      XXXXXX..................      ",
"      ..................XXXXXX      ..................XXXXXX      XXXXXX..................      ",
"      ..................XXXXXX      ..................XXXXXX      XXXXXX..................      ",
"      ..................XXXXXX      ..................XXXXXX      XXXXXX..................      ",
"      ..................XXXXXX      ..................XXXXXX      XXXXXX..................      ",
"      ..................XXXXXX      ..................XXXXXX      XXXXXX..................      ",
"      ..................XXXXXX      ..................XXXXXX      XXXXXX..................      ",
"      ..................XXXXXX      ........................      XXXXXX..................      ",
"      ..................XXXXXX      ........................      XXXXXX..................      ",
"      ..................XXXXXX      ........................      XXXXXX..................      ",
"      ..................XXXXXX      ........................      XXXXXX..................      ",
"      ..................XXXXXX      ........................      XXXXXX..................      ",
"      ..................XXXXXX      ........................      XXXXXX..................      ",
"      ..................XXXXXX      ........................      XXXXXX..................      ",
"      ..................XXXXXX      ........................      XXXXXX..................      ",
"      ..................XXXXXX      ........................      XXXXXX..................      ",
"      ..................XXXXXX      ........................      XXXXXX..................      ",
"      ..................XXXXXX      ........................      XXXXXX..................      ",
"      ..................XXXXXX      ........................      XXXXXX..................      ",
"      ..................XXXXXX      ........................      XXXXXX..................      ",
"      ..................XXXXXX      ........................      XXXXXX..................      ",
"      ..................XXXXXX      ........................      XXXXXX..................      ",
"      ..................XXXXXX      ........................      XXXXXX..................      ",
"      ..................XXXXXX      ........................      XXXXXX..................      ",
"      ..................XXXXXX      ........................      XXXXXX..................      ",
"      XXXXXX......XXXXXXXXXXXX      XXXXXXXXXXXXXXXXXX......      XXXXXXXXXXXX......XXXXXX      ",
"      XXXXXX......XXXXXXXXXXXX      XXXXXXXXXXXXXXXXXX......      XXXXXXXXXXXX......XXXXXX      ",
"      XXXXXX......XXXXXXXXXXXX      XXXXXXXXXXXXXXXXXX......      XXXXXXXXXXXX......XXXXXX      ",
"      XXXXXX......XXXXXXXXXXXX      XXXXXXXXXXXXXXXXXX......      XXXXXXXXXXXX......XXXXXX      ",
"      XXXXXX......XXXXXXXXXXXX      XXXXXXXXXXXXXXXXXX......      XXXXXXXXXXXX......XXXXXX      ",
"      XXXXXX......XXXXXXXXXXXX      XXXXXXXXXXXXXXXXXX......      XXXXXXXXXXXX......XXXXXX      ",
"                                                                                                ",
"                                                                                                ",
"                                                                                                ",
"                                                                                                ",
"                                                                                                ",
"                                                                                                "
};
