/* XPM */
static char *result[] = {
/* columns rows colors chars-per-pixel */
"128 128 5 1 ",
"  c #25131A",
". c #3D253B",
"X c #4C2F49",
"o c #6E4A48",
"O c #78514F",
/* pixels */
"XXXXXXXXXXXXXXXXXXXXXXXXXXXXXXXXXXXXXXXXXXXXXXXXXXXXXXXXXXXXXXXXXXXXXXXXXXXXXXXXXXXXXXXXXXXXXXXXXXXXXXXXXXXXXXXXXXXXXXXXXXXXXXXX",
"XXXXXXXXXXXXXXXXXXXXXXXXXXXXXXXXXXXXXXXXXXXXXXXXXXXXXXXXXXXXXXXXXXXXXXXXXXXXXXXXXXXXXXXXXXXXXXXXXXXXXXXXXXXXXXXXXXXXXXXXXXXXXXXX",
"XXXXXXXXXXXXXXXXXXXXXXXXXXXXXXXXXXXXXXXXXXXXXXXXXXXXXXXXXXXXXXXXXXXXXXXXXXXXXXXXXXXXXXXXXXXXXXXXXXXXXXXXXXXXXXXXXXXXXXXXXXXXXXXX",
"XXXXXXXXXXXXXXXXXXXXXXXXXXXXXXXXXXXXXXXXXXXXXXXXXXXXXXXXXXXXXXXXXXXXXXXXXXXXXXXXXXXXXXXXXXXXXXXXXXXXXXXXXXXXXXXXXXXXXXXXXXXXXXXX",
"XXXXXXXXXXXXXXXXXXXXXXXXXXXXXXXXXXXXXXXXXXXXXXXXXXXXXXXXXXXXXXXXXXXXXXXXXXXXXXXXXXXXXXXXXXXXXXXXXXXXXXXXXXXXXXXXXXXXXXXXXXXXXXXX",
"XXXXXXXXXXXXXXXXXXXXXXXXXXXXXXXXXXXXXXXXXXXXXXXXXXXXXXXXXXXXXXXXXXXXXXXXXXXXXXXXXXXXXXXXXXXXXXXXXXXXXXXXXXXXXXXXXXXXXXXXXXXXXXXX",
"XXXXXXXXXXXXXXXXXXXXXXXXXXXXXXXXXXXXXXXXXXXXXXXXXXXXXXXXXXXXXXXXXXXXXXXXXXXXXXXXXXXXXXXXXXXXXXXXXXXXXXXXXXXXXXXXXXXXXXXXXXXXXXXX",
"XXXXXXXXXXXXXXXXXXXXXXXXXXXXXXXXXXXXXXXXXXXXXXXXXXXXXXXXXXXXXXXXXXXXXXXXXXXXXXXXXXXXXXXXXXXXXXXXXXXXXXXXXXXXXXXXXXXXXXXXXXXXXXXX",
"XXXXXXXXXXXXXXXXOOOOOOOOOOOOOOOOOOOOOOOOOOOOOOOOXXXXXXXXXXXXXXXXXXXXXXXXXXXXXXXXOOOOOOOOOOOOOOOOOOOOOOOOOOOOOOOOXXXXXXXXXXXXXXXX",
"XXXXXXXXXXXXXXXXOOOOOOOOOOOOOOOOOOOOOOOOOOOOOOOOXXXXXXXXXXXXXXXXXXXXXXXXXXXXXXXXOOOOOOOOOOOOOOOOOOOOOOOOOOOOOOOOXXXXXXXXXXXXXXXX",
"XXXXXXXXXXXXXXXXOOOOOOOOOOOOOOOOOOOOOOOOOOOOOOOOXXXXXXXXXXXXXXXXXXXXXXXXXXXXXXXXOOOOOOOOOOOOOOOOOOOOOOOOOOOOOOOOXXXXXXXXXXXXXXXX",
"XXXXXXXXXXXXXXXXOOOOOOOOOOOOOOOOOOOOOOOOOOOOOOOOXXXXXXXXXXXXXXXXXXXXXXXXXXXXXXXXOOOOOOOOOOOOOOOOOOOOOOOOOOOOOOOOXXXXXXXXXXXXXXXX",
"XXXXXXXXXXXXXXXXOOOOOOOOOOOOOOOOOOOOOOOOOOOOOOOOXXXXXXXXXXXXXXXXXXXXXXXXXXXXXXXXOOOOOOOOOOOOOOOOOOOOOOOOOOOOOOOOXXXXXXXXXXXXXXXX",
"XXXXXXXXXXXXXXXXOOOOOOOOOOOOOOOOOOOOOOOOOOOOOOOOXXXXXXXXXXXXXXXXXXXXXXXXXXXXXXXXOOOOOOOOOOOOOOOOOOOOOOOOOOOOOOOOXXXXXXXXXXXXXXXX",
"XXXXXXXXXXXXXXXXOOOOOOOOOOOOOOOOOOOOOOOOOOOOOOOOXXXXXXXXXXXXXXXXXXXXXXXXXXXXXXXXOOOOOOOOOOOOOOOOOOOOOOOOOOOOOOOOXXXXXXXXXXXXXXXX",
"XXXXXXXXXXXXXXXXOOOOOOOOOOOOOOOOOOOOOOOOOOOOOOOOXXXXXXXXXXXXXXXXXXXXXXXXXXXXXXXXOOOOOOOOOOOOOOOOOOOOOOOOOOOOOOOOXXXXXXXXXXXXXXXX",
"XXXXXXXXOOOOOOOOooooooooooooooooooooooooOOOOOOOOOOOOOOOOXXXXXXXXXXXXXXXXooooooooooooooooooooooooooooooooOOOOOOOOOOOOOOOOXXXXXXXX",
"XXXXXXXXOOOOOOOOooooooooooooooooooooooooOOOOOOOOOOOOOOOOXXXXXXXXXXXXXXXXooooooooooooooooooooooooooooooooOOOOOOOOOOOOOOOOXXXXXXXX",
"XXXXXXXXOOOOOOOOooooooooooooooooooooooooOOOOOOOOOOOOOOOOXXXXXXXXXXXXXXXXooooooooooooooooooooooooooooooooOOOOOOOOOOOOOOOOXXXXXXXX",
"XXXXXXXXOOOOOOOOooooooooooooooooooooooooOOOOOOOOOOOOOOOOXXXXXXXXXXXXXXXXooooooooooooooooooooooooooooooooOOOOOOOOOOOOOOOOXXXXXXXX",
"XXXXXXXXOOOOOOOOooooooooooooooooooooooooOOOOOOOOOOOOOOOOXXXXXXXXXXXXXXXXooooooooooooooooooooooooooooooooOOOOOOOOOOOOOOOOXXXXXXXX",
"XXXXXXXXOOOOOOOOooooooooooooooooooooooooOOOOOOOOOOOOOOOOXXXXXXXXXXXXXXXXooooooooooooooooooooooooooooooooOOOOOOOOOOOOOOOOXXXXXXXX",
"XXXXXXXXOOOOOOOOooooooooooooooooooooooooOOOOOOOOOOOOOOOOXXXXXXXXXXXXXXXXooooooooooooooooooooooooooooooooOOOOOOOOOOOOOOOOXXXXXXXX",
"XXXXXXXXOOOOOOOOooooooooooooooooooooooooOOOOOOOOOOOOOOOOXXXXXXXXXXXXXXXXooooooooooooooooooooooooooooooooOOOOOOOOOOOOOOOOXXXXXXXX",
"XXXXXXXXOOOOOOOOooooooooooooooooooooooooooooooooOOOOOOOOXXXXXXXXXXXXXXXXooooooooooooooooooooooooooooooooooooooooOOOOOOOOXXXXXXXX",
"XXXXXXXXOOOOOOOOooooooooooooooooooooooooooooooooOOOOOOOOXXXXXXXXXXXXXXXXooooooooooooooooooooooooooooooooooooooooOOOOOOOOXXXXXXXX",
"XXXXXXXXOOOOOOOOooooooooooooooooooooooooooooooooOOOOOOOOXXXXXXXXXXXXXXXXooooooooooooooooooooooooooooooooooooooooOOOOOOOOXXXXXXXX",
"XXXXXXXXOOOOOOOOooooooooooooooooooooooooooooooooOOOOOOOOXXXXXXXXXXXXXXXXooooooooooooooooooooooooooooooooooooooooOOOOOOOOXXXXXXXX",
"XXXXXXXXOOOOOOOOooooooooooooooooooooooooooooooooOOOOOOOOXXXXXXXXXXXXXXXXooooooooooooooooooooooooooooooooooooooooOOOOOOOOXXXXXXXX",
"XXXXXXXXOOOOOOOOooooooooooooooooooooooooooooooooOOOOOOOOXXXXXXXXXXXXXXXXooooooooooooooooooooooooooooooooooooooooOOOOOOOOXXXXXXXX",
"XXXXXXXXOOOOOOOOooooooooooooooooooooooooooooooooOOOOOOOOXXXXXXXXXXXXXXXXooooooooooooooooooooooooooooooooooooooooOOOOOOOOXXXXXXXX",
"XXXXXXXXOOOOOOOOooooooooooooooooooooooooooooooooOOOOOOOOXXXXXXXXXXXXXXXXooooooooooooooooooooooooooooooooooooooooOOOOOOOOXXXXXXXX",
"XXXXXXXXooooooooooooooooooooooooooooooooooooooooooooooooXXXXXXXXXXXXXXXXooooooooooooooooooooooooooooooooooooooooooooooooXXXXXXXX",
"XXXXXXXXooooooooooooooooooooooooooooooooooooooooooooooooXXXXXXXXXXXXXXXXooooooooooooooooooooooooooooooooooooooooooooooooXXXXXXXX",
"XXXXXXXXooooooooooooooooooooooooooooooooooooooooooooooooXXXXXXXXXXXXXXXXooooooooooooooooooooooooooooooooooooooooooooooooXXXXXXXX",
"XXXXXXXXooooooooooooooooooooooooooooooooooooooooooooooooXXXXXXXXXXXXXXXXooooooooooooooooooooooooooooooooooooooooooooooooXXXXXXXX",
"XXXXXXXXooooooooooooooooooooooooooooooooooooooooooooooooXXXXXXXXXXXXXXXXooooooooooooooooooooooooooooooooooooooooooooooooXXXXXXXX",
"XXXXXXXXooooooooooooooooooooooooooooooooooooooooooooooooXXXXXXXXXXXXXXXXooooooooooooooooooooooooooooooooooooooooooooooooXXXXXXXX",
"XXXXXXXXooooooooooooooooooooooooooooooooooooooooooooooooXXXXXXXXXXXXXXXXooooooooooooooooooooooooooooooooooooooooooooooooXXXXXXXX",
"XXXXXXXXooooooooooooooooooooooooooooooooooooooooooooooooXXXXXXXXXXXXXXXXooooooooooooooooooooooooooooooooooooooooooooooooXXXXXXXX",
"XXXXXXXXooooooooooooooooooooooooooooooooooooooooOOOOOOOOXXXXXXXXXXXXXXXXooooooooooooooooooooooooooooooooooooooooooooooooXXXXXXXX",
"XXXXXXXXooooooooooooooooooooooooooooooooooooooooOOOOOOOOXXXXXXXXXXXXXXXXooooooooooooooooooooooooooooooooooooooooooooooooXXXXXXXX",
"XXXXXXXXooooooooooooooooooooooooooooooooooooooooOOOOOOOOXXXXXXXXXXXXXXXXooooooooooooooooooooooooooooooooooooooooooooooooXXXXXXXX",
"XXXXXXXXooooooooooooooooooooooooooooooooooooooooOOOOOOOOXXXXXXXXXXXXXXXXooooooooooooooooooooooooooooooooooooooooooooooooXXXXXXXX",
"XXXXXXXXooooooooooooooooooooooooooooooooooooooooOOOOOOOOXXXXXXXXXXXXXXXXooooooooooooooooooooooooooooooooooooooooooooooooXXXXXXXX",
"XXXXXXXXooooooooooooooooooooooooooooooooooooooooOOOOOOOOXXXXXXXXXXXXXXXXooooooooooooooooooooooooooooooooooooooooooooooooXXXXXXXX",
"XXXXXXXXooooooooooooooooooooooooooooooooooooooooOOOOOOOOXXXXXXXXXXXXXXXXooooooooooooooooooooooooooooooooooooooooooooooooXXXXXXXX",
"XXXXXXXXooooooooooooooooooooooooooooooooooooooooOOOOOOOOXXXXXXXXXXXXXXXXooooooooooooooooooooooooooooooooooooooooooooooooXXXXXXXX",
"XXXXXXXXXXXXXXXXXXXXXXXXXXXXXXXXXXXXXXXXXXXXXXXXXXXXXXXXXXXXXXXXXXXXXXXXXXXXXXXXXXXXXXXXXXXXXXXXXXXXXXXXXXXXXXXXXXXXXXXXXXXXXXXX",
"XXXXXXXXXXXXXXXXXXXXXXXXXXXXXXXXXXXXXXXXXXXXXXXXXXXXXXXXXXXXXXXXXXXXXXXXXXXXXXXXXXXXXXXXXXXXXXXXXXXXXXXXXXXXXXXXXXXXXXXXXXXXXXXX",
"XXXXXXXXXXXXXXXXXXXXXXXXXXXXXXXXXXXXXXXXXXXXXXXXXXXXXXXXXXXXXXXXXXXXXXXXXXXXXXXXXXXXXXXXXXXXXXXXXXXXXXXXXXXXXXXXXXXXXXXXXXXXXXXX",
"XXXXXXXXXXXXXXXXXXXXXXXXXXXXXXXXXXXXXXXXXXXXXXXXXXXXXXXXXXXXXXXXXXXXXXXXXXXXXXXXXXXXXXXXXXXXXXXXXXXXXXXXXXXXXXXXXXXXXXXXXXXXXXXX",
"XXXXXXXXXXXXXXXXXXXXXXXXXXXXXXXXXXXXXXXXXXXXXXXXXXXXXXXXXXXXXXXXXXXXXXXXXXXXXXXXXXXXXXXXXXXXXXXXXXXXXXXXXXXXXXXXXXXXXXXXXXXXXXXX",
"XXXXXXXXXXXXXXXXXXXXXXXXXXXXXXXXXXXXXXXXXXXXXXXXXXXXXXXXXXXXXXXXXXXXXXXXXXXXXXXXXXXXXXXXXXXXXXXXXXXXXXXXXXXXXXXXXXXXXXXXXXXXXXXX",
"XXXXXXXXXXXXXXXXXXXXXXXXXXXXXXXXXXXXXXXXXXXXXXXXXXXXXXXXXXXXXXXXXXXXXXXXXXXXXXXXXXXXXXXXXXXXXXXXXXXXXXXXXXXXXXXXXXXXXXXXXXXXXXXX",
"XXXXXXXXXXXXXXXXXXXXXXXXXXXXXXXXXXXXXXXXXXXXXXXXXXXXXXXXXXXXXXXXXXXXXXXXXXXXXXXXXXXXXXXXXXXXXXXXXXXXXXXXXXXXXXXXXXXXXXXXXXXXXXXX",
"................................................................................................................................",
"................................................................................................................................",
"................................................................................................................................",
"................................................................................................................................",
"................................................................................................................................",
"................................................................................................................................",
"................................................................................................................................",
"................................................................................................................................",
"................                                                                                                ................",
"................                                                                                                ................",
"................                                                                                                ................",
"................                                                                                                ................",
"................                                                                                                ................",
"................                                                                                                ................",
"................                                                                                                ................",
"................                                                                                                ................",
"........                                        ........                                                                ........",
"........                                        ........                                                                ........",
"........                                        ........                                                                ........",
"........                                        ........                                                                ........",
"........                                        ........                                                                ........",
"........                                        ........                                                                ........",
"........                                        ........                                                                ........",
"........                                        ........                                                                ........",
"........                                        ........                                                                        ",
"........                                        ........                                                                        ",
"........                                        ........                                                                        ",
"........                                        ........                                                                        ",
"........                                        ........                                                                        ",
"........                                        ........                                                                        ",
"........                                        ........                                                                        ",
"........                                        ........                                                                        ",
"        ........................................                ................................................        ........",
"        ........................................                ................................................        ........",
"        ........................................                ................................................        ........",
"        ........................................                ................................................        ........",
"        ........................................                ................................................        ........",
"        ........................................                ................................................        ........",
"        ........................................                ................................................        ........",
"        ........................................                ................................................        ........",
"........                                                                                                                        ",
"........                                                                                                                        ",
"........                                                                                                                        ",
"........                                                                                                                        ",
"........                                                                                                                        ",
"........                                                                                                                        ",
"........                                                                                                                        ",
"........                                                                                                                        ",
"                                                                                                                                ",
"                                                                                                                                ",
"                                                                                                                                ",
"                                                                                                                                ",
"                                                                                                                                ",
"                                                                                                                                ",
"                                                                                                                                ",
"                                                                                                                                ",
"                                                                                                                                ",
"                                                                                                                                ",
"                                                                                                                                ",
"                                                                                                                                ",
"                                                                                                                                ",
"                                                                                                                                ",
"                                                                                                                                ",
"                                                                                                                                ",
"                                                                                                                                ",
"                                                                                                                                ",
"                                                                                                                                ",
"                                                                                                                                ",
"                                                                                                                                ",
"                                                                                                                                ",
"                                                                                                                                ",
"                                                                                                                                "
};
