/* XPM */
static char *result[] = {
/* columns rows colors chars-per-pixel */
"96 96 5 1 ",
"  c #25131A",
". c #3D253B",
"X c #4C2F49",
"o c #6E4A48",
"O c #78514F",
/* pixels */
"XXXXXXXXXXXXXXXXXXXXXXXXXXXXXXXXXXXXXXXXXX                                                      ",
"XXXXXXXXXXXXXXXXXXXXXXXXXXXXXXXXXXXXXXXXXX                                                      ",
"XXXXXXXXXXXXXXXXXXXXXXXXXXXXXXXXXXXXXXXXXX                                                      ",
"XXXXXXXXXXXXXXXXXXXXXXXXXXXXXXXXXXXXXXXXXX                                                      ",
"XXXXXXXXXXXXXXXXXXXXXXXXXXXXXXXXXXXXXXXXXX                                                      ",
"XXXXXXXXXXXXXXXXXXXXXXXXXXXXXXXXXXXXXXXXXX                                                      ",
"XXXXXXooooooOOOOOOOOOOOOOOOOOOooooooXXXXXX                                                      ",
"XXXXXXooooooOOOOOOOOOOOOOOOOOOooooooXXXXXX                                                      ",
"XXXXXXooooooOOOOOOOOOOOOOOOOOOooooooXXXXXX                                                      ",
"XXXXXXooooooOOOOOOOOOOOOOOOOOOooooooXXXXXX                                                      ",
"XXXXXXooooooOOOOOOOOOOOOOOOOOOooooooXXXXXX                                                      ",
"XXXXXXooooooOOOOOOOOOOOOOOOOOOooooooXXXXXX                                                      ",
"XXXXXXooooooOOOOOOooooooooooooOOOOOOXXXXXX                                                      ",
"XXXXXXooooooOOOOOOooooooooooooOOOOOOXXXXXX                                                      ",
"XXXXXXooooooOOOOOOooooooooooooOOOOOOXXXXXX                                                      ",
"XXXXXXooooooOOOOOOooooooooooooOOOOOOXXXXXX                                                      ",
"XXXXXXooooooOOOOOOooooooooooooOOOOOOXXXXXX                                                      ",
"XXXXXXooooooOOOOOOooooooooooooOOOOOOXXXXXX                                                      ",
"XXXXXXOOOOOOooooooooooooooooooOOOOOOXXXXXX                                                      ",
"XXXXXXOOOOOOooooooooooooooooooOOOOOOXXXXXX                                                      ",
"XXXXXXOOOOOOooooooooooooooooooOOOOOOXXXXXX                                                      ",
"XXXXXXOOOOOOooooooooooooooooooOOOOOOXXXXXX                                                      ",
"XXXXXXOOOOOOooooooooooooooooooOOOOOOXXXXXX                                                      ",
"XXXXXXOOOOOOooooooooooooooooooOOOOOOXXXXXX                                                      ",
"XXXXXXooooooooooooooooooooooooooooooXXXXXX                                                      ",
"XXXXXXooooooooooooooooooooooooooooooXXXXXX                                                      ",
"XXXXXXooooooooooooooooooooooooooooooXXXXXX                                                      ",
"XXXXXXooooooooooooooooooooooooooooooXXXXXX                                                      ",
"XXXXXXooooooooooooooooooooooooooooooXXXXXX                                                      ",
"XXXXXXooooooooooooooooooooooooooooooXXXXXX                                                      ",
"XXXXXXooooooooooooooooooooooooooooooXXXXXX                                                      ",
"XXXXXXooooooooooooooooooooooooooooooXXXXXX                                                      ",
"XXXXXXooooooooooooooooooooooooooooooXXXXXX                                                      ",
"XXXXXXooooooooooooooooooooooooooooooXXXXXX                                                      ",
"XXXXXXooooooooooooooooooooooooooooooXXXXXX                                                      ",
"XXXXXXooooooooooooooooooooooooooooooXXXXXX                                                      ",
"XXXXXXXXXXXXXXXXXXXXXXXXXXXXXXXXXXXX......                                                      ",
"XXXXXXXXXXXXXXXXXXXXXXXXXXXXXXXXXXXX......                                                      ",
"XXXXXXXXXXXXXXXXXXXXXXXXXXXXXXXXXXXX......                                                      ",
"XXXXXXXXXXXXXXXXXXXXXXXXXXXXXXXXXXXX......                                                      ",
"XXXXXXXXXXXXXXXXXXXXXXXXXXXXXXXXXXXX......                                                      ",
"XXXXXXXXXXXXXXXXXXXXXXXXXXXXXXXXXXXX......                                                      ",
"....................................                                                            ",
"....................................                                                            ",
"....................................                                                            ",
"....................................                                                            ",
"....................................                                                            ",
"....................................                                                            ",
"                                    ......                                                      ",
"                                    ......                                                      ",
"                                    ......                                                      ",
"                                    ......                                                      ",
"                                    ......                                                      ",
"                                    ......                                                      ",
"                                    ......                                                      ",
"                                    ......                                                      ",
"                                    ......                                                      ",
"                                    ......                                                      ",
"                                    ......                                                      ",
"                                    ......                                                      ",
"                                    ......                                                      ",
"                                    ......                                                      ",
"                                    ......                                                      ",
"                                    ......                                                      ",
"                                    ......                                                      ",
"                                    ......                                                      ",
"                                                                                                ",
"                                                                                                ",
"                                                                                                ",
"                                                                                                ",
"                                                                                                ",
"                                                                                                ",
"                                    ......                                                      ",
"                                    ......                                                      ",
"                                    ......                                                      ",
"                                    ......                                                      ",
"                                    ......                                                      ",
"                                    ......                                                      ",
"                                    ......                                                      ",
"                                    ......                                                      ",
"                                    ......                                                      ",
"                                    ......                                                      ",
"                                    ......                                                      ",
"                                    ......                                                      ",
"                                                                                                ",
"                                                                                                ",
"                                                                                                ",
"                                                                                                ",
"                                                                                                ",
"                                                                                                ",
"                                                                                                ",
"                                                                                                ",
"                                                                                                ",
"                                                                                                ",
"                                                                                                ",
"                                                                                                "
};
