/* XPM */
static char *result[] = {
/* columns rows colors chars-per-pixel */
"128 128 5 1 ",
"  c #25131A",
". c #3D253B",
"X c #4C2F49",
"o c #6E4A48",
"O c #78514F",
/* pixels */
"                                                                        XXXXXXXXXXXXXXXXXXXXXXXXXXXXXXXXXXXXXXXXXXXXXXXXXXXXXXXX",
"                                                                        XXXXXXXXXXXXXXXXXXXXXXXXXXXXXXXXXXXXXXXXXXXXXXXXXXXXXXXX",
"                                                                        XXXXXXXXXXXXXXXXXXXXXXXXXXXXXXXXXXXXXXXXXXXXXXXXXXXXXXXX",
"                                                                        XXXXXXXXXXXXXXXXXXXXXXXXXXXXXXXXXXXXXXXXXXXXXXXXXXXXXXXX",
"                                                                        XXXXXXXXXXXXXXXXXXXXXXXXXXXXXXXXXXXXXXXXXXXXXXXXXXXXXXXX",
"                                                                        XXXXXXXXXXXXXXXXXXXXXXXXXXXXXXXXXXXXXXXXXXXXXXXXXXXXXXXX",
"                                                                        XXXXXXXXXXXXXXXXXXXXXXXXXXXXXXXXXXXXXXXXXXXXXXXXXXXXXXXX",
"                                                                        XXXXXXXXXXXXXXXXXXXXXXXXXXXXXXXXXXXXXXXXXXXXXXXXXXXXXXXX",
"                                                                        XXXXXXXXooooooooOOOOOOOOOOOOOOOOOOOOOOOOooooooooXXXXXXXX",
"                                                                        XXXXXXXXooooooooOOOOOOOOOOOOOOOOOOOOOOOOooooooooXXXXXXXX",
"                                                                        XXXXXXXXooooooooOOOOOOOOOOOOOOOOOOOOOOOOooooooooXXXXXXXX",
"                                                                        XXXXXXXXooooooooOOOOOOOOOOOOOOOOOOOOOOOOooooooooXXXXXXXX",
"                                                                        XXXXXXXXooooooooOOOOOOOOOOOOOOOOOOOOOOOOooooooooXXXXXXXX",
"                                                                        XXXXXXXXooooooooOOOOOOOOOOOOOOOOOOOOOOOOooooooooXXXXXXXX",
"                                                                        XXXXXXXXooooooooOOOOOOOOOOOOOOOOOOOOOOOOooooooooXXXXXXXX",
"                                                                        XXXXXXXXooooooooOOOOOOOOOOOOOOOOOOOOOOOOooooooooXXXXXXXX",
"                                                                        XXXXXXXXOOOOOOOOooooooooooooooooOOOOOOOOooooooooXXXXXXXX",
"                                                                        XXXXXXXXOOOOOOOOooooooooooooooooOOOOOOOOooooooooXXXXXXXX",
"                                                                        XXXXXXXXOOOOOOOOooooooooooooooooOOOOOOOOooooooooXXXXXXXX",
"                                                                        XXXXXXXXOOOOOOOOooooooooooooooooOOOOOOOOooooooooXXXXXXXX",
"                                                                        XXXXXXXXOOOOOOOOooooooooooooooooOOOOOOOOooooooooXXXXXXXX",
"                                                                        XXXXXXXXOOOOOOOOooooooooooooooooOOOOOOOOooooooooXXXXXXXX",
"                                                                        XXXXXXXXOOOOOOOOooooooooooooooooOOOOOOOOooooooooXXXXXXXX",
"                                                                        XXXXXXXXOOOOOOOOooooooooooooooooOOOOOOOOooooooooXXXXXXXX",
"                                                                        XXXXXXXXOOOOOOOOooooooooooooooooooooooooOOOOOOOOXXXXXXXX",
"                                                                        XXXXXXXXOOOOOOOOooooooooooooooooooooooooOOOOOOOOXXXXXXXX",
"                                                                        XXXXXXXXOOOOOOOOooooooooooooooooooooooooOOOOOOOOXXXXXXXX",
"                                                                        XXXXXXXXOOOOOOOOooooooooooooooooooooooooOOOOOOOOXXXXXXXX",
"                                                                        XXXXXXXXOOOOOOOOooooooooooooooooooooooooOOOOOOOOXXXXXXXX",
"                                                                        XXXXXXXXOOOOOOOOooooooooooooooooooooooooOOOOOOOOXXXXXXXX",
"                                                                        XXXXXXXXOOOOOOOOooooooooooooooooooooooooOOOOOOOOXXXXXXXX",
"                                                                        XXXXXXXXOOOOOOOOooooooooooooooooooooooooOOOOOOOOXXXXXXXX",
"                                                                        XXXXXXXXooooooooooooooooooooooooooooooooooooooooXXXXXXXX",
"                                                                        XXXXXXXXooooooooooooooooooooooooooooooooooooooooXXXXXXXX",
"                                                                        XXXXXXXXooooooooooooooooooooooooooooooooooooooooXXXXXXXX",
"                                                                        XXXXXXXXooooooooooooooooooooooooooooooooooooooooXXXXXXXX",
"                                                                        XXXXXXXXooooooooooooooooooooooooooooooooooooooooXXXXXXXX",
"                                                                        XXXXXXXXooooooooooooooooooooooooooooooooooooooooXXXXXXXX",
"                                                                        XXXXXXXXooooooooooooooooooooooooooooooooooooooooXXXXXXXX",
"                                                                        XXXXXXXXooooooooooooooooooooooooooooooooooooooooXXXXXXXX",
"                                                                        XXXXXXXXooooooooooooooooooooooooooooooooooooooooXXXXXXXX",
"                                                                        XXXXXXXXooooooooooooooooooooooooooooooooooooooooXXXXXXXX",
"                                                                        XXXXXXXXooooooooooooooooooooooooooooooooooooooooXXXXXXXX",
"                                                                        XXXXXXXXooooooooooooooooooooooooooooooooooooooooXXXXXXXX",
"                                                                        XXXXXXXXooooooooooooooooooooooooooooooooooooooooXXXXXXXX",
"                                                                        XXXXXXXXooooooooooooooooooooooooooooooooooooooooXXXXXXXX",
"                                                                        XXXXXXXXooooooooooooooooooooooooooooooooooooooooXXXXXXXX",
"                                                                        XXXXXXXXooooooooooooooooooooooooooooooooooooooooXXXXXXXX",
"                                                                        ........XXXXXXXXXXXXXXXXXXXXXXXXXXXXXXXXXXXXXXXXXXXXXXXX",
"                                                                        ........XXXXXXXXXXXXXXXXXXXXXXXXXXXXXXXXXXXXXXXXXXXXXXXX",
"                                                                        ........XXXXXXXXXXXXXXXXXXXXXXXXXXXXXXXXXXXXXXXXXXXXXXXX",
"                                                                        ........XXXXXXXXXXXXXXXXXXXXXXXXXXXXXXXXXXXXXXXXXXXXXXXX",
"                                                                        ........XXXXXXXXXXXXXXXXXXXXXXXXXXXXXXXXXXXXXXXXXXXXXXXX",
"                                                                        ........XXXXXXXXXXXXXXXXXXXXXXXXXXXXXXXXXXXXXXXXXXXXXXXX",
"                                                                        ........XXXXXXXXXXXXXXXXXXXXXXXXXXXXXXXXXXXXXXXXXXXXXXXX",
"                                                                        ........XXXXXXXXXXXXXXXXXXXXXXXXXXXXXXXXXXXXXXXXXXXXXXXX",
"                                                                                ................................................",
"                                                                                ................................................",
"                                                                                ................................................",
"                                                                                ................................................",
"                                                                                ................................................",
"                                                                                ................................................",
"                                                                                ................................................",
"                                                                                ................................................",
"                                                                        ........                                                ",
"                                                                        ........                                                ",
"                                                                        ........                                                ",
"                                                                        ........                                                ",
"                                                                        ........                                                ",
"                                                                        ........                                                ",
"                                                                        ........                                                ",
"                                                                        ........                                                ",
"                                                                        ........                                                ",
"                                                                        ........                                                ",
"                                                                        ........                                                ",
"                                                                        ........                                                ",
"                                                                        ........                                                ",
"                                                                        ........                                                ",
"                                                                        ........                                                ",
"                                                                        ........                                                ",
"                                                                        ........                                                ",
"                                                                        ........                                                ",
"                                                                        ........                                                ",
"                                                                        ........                                                ",
"                                                                        ........                                                ",
"                                                                        ........                                                ",
"                                                                        ........                                                ",
"                                                                        ........                                                ",
"                                                                                                                                ",
"                                                                                                                                ",
"                                                                                                                                ",
"                                                                                                                                ",
"                                                                                                                                ",
"                                                                                                                                ",
"                                                                                                                                ",
"                                                                                                                                ",
"                                                                        ........                                                ",
"                                                                        ........                                                ",
"                                                                        ........                                                ",
"                                                                        ........                                                ",
"                                                                        ........                                                ",
"                                                                        ........                                                ",
"                                                                        ........                                                ",
"                                                                        ........                                                ",
"                                                                        ........                                                ",
"                                                                        ........                                                ",
"                                                                        ........                                                ",
"                                                                        ........                                                ",
"                                                                        ........                                                ",
"                                                                        ........                                                ",
"                                                                        ........                                                ",
"                                                                        ........                                                ",
"                                                                                                                                ",
"                                                                                                                                ",
"                                                                                                                                ",
"                                                                                                                                ",
"                                                                                                                                ",
"                                                                                                                                ",
"                                                                                                                                ",
"                                                                                                                                ",
"                                                                                                                                ",
"                                                                                                                                ",
"                                                                                                                                ",
"                                                                                                                                ",
"                                                                                                                                ",
"                                                                                                                                ",
"                                                                                                                                ",
"                                                                                                                                "
};
