/* XPM */
static char *result[] = {
/* columns rows colors chars-per-pixel */
"96 96 5 1 ",
"  c #25131A",
". c #3D253B",
"X c #4C2F49",
"o c #6E4A48",
"O c #78514F",
/* pixels */
"XXXXXXXXXXXXXXXXXXXXXXXXXXXXXXXXXXXXXXXXXXXXXXXXXXXXXXXXXXXXXXXXXXXXXXXXXXXXXXXXXXXXXXXXXXXXXXXX",
"XXXXXXXXXXXXXXXXXXXXXXXXXXXXXXXXXXXXXXXXXXXXXXXXXXXXXXXXXXXXXXXXXXXXXXXXXXXXXXXXXXXXXXXXXXXXXXXX",
"XXXXXXXXXXXXXXXXXXXXXXXXXXXXXXXXXXXXXXXXXXXXXXXXXXXXXXXXXXXXXXXXXXXXXXXXXXXXXXXXXXXXXXXXXXXXXXXX",
"XXXXXXXXXXXXXXXXXXXXXXXXXXXXXXXXXXXXXXXXXXXXXXXXXXXXXXXXXXXXXXXXXXXXXXXXXXXXXXXXXXXXXXXXXXXXXXXX",
"XXXXXXXXXXXXXXXXXXXXXXXXXXXXXXXXXXXXXXXXXXXXXXXXXXXXXXXXXXXXXXXXXXXXXXXXXXXXXXXXXXXXXXXXXXXXXXXX",
"XXXXXXXXXXXXXXXXXXXXXXXXXXXXXXXXXXXXXXXXXXXXXXXXXXXXXXXXXXXXXXXXXXXXXXXXXXXXXXXXXXXXXXXXXXXXXXXX",
"XXXXXXXXXXXXOOOOOOOOOOOOOOOOOOOOOOOOXXXXXXXXXXXXXXXXXXXXXXXXOOOOOOOOOOOOOOOOOOOOOOOOXXXXXXXXXXXX",
"XXXXXXXXXXXXOOOOOOOOOOOOOOOOOOOOOOOOXXXXXXXXXXXXXXXXXXXXXXXXOOOOOOOOOOOOOOOOOOOOOOOOXXXXXXXXXXXX",
"XXXXXXXXXXXXOOOOOOOOOOOOOOOOOOOOOOOOXXXXXXXXXXXXXXXXXXXXXXXXOOOOOOOOOOOOOOOOOOOOOOOOXXXXXXXXXXXX",
"XXXXXXXXXXXXOOOOOOOOOOOOOOOOOOOOOOOOXXXXXXXXXXXXXXXXXXXXXXXXOOOOOOOOOOOOOOOOOOOOOOOOXXXXXXXXXXXX",
"XXXXXXXXXXXXOOOOOOOOOOOOOOOOOOOOOOOOXXXXXXXXXXXXXXXXXXXXXXXXOOOOOOOOOOOOOOOOOOOOOOOOXXXXXXXXXXXX",
"XXXXXXXXXXXXOOOOOOOOOOOOOOOOOOOOOOOOXXXXXXXXXXXXXXXXXXXXXXXXOOOOOOOOOOOOOOOOOOOOOOOOXXXXXXXXXXXX",
"XXXXXXOOOOOOooooooooooooooooooOOOOOOOOOOOOXXXXXXXXXXXXooooooooooooooooooooooooOOOOOOOOOOOOXXXXXX",
"XXXXXXOOOOOOooooooooooooooooooOOOOOOOOOOOOXXXXXXXXXXXXooooooooooooooooooooooooOOOOOOOOOOOOXXXXXX",
"XXXXXXOOOOOOooooooooooooooooooOOOOOOOOOOOOXXXXXXXXXXXXooooooooooooooooooooooooOOOOOOOOOOOOXXXXXX",
"XXXXXXOOOOOOooooooooooooooooooOOOOOOOOOOOOXXXXXXXXXXXXooooooooooooooooooooooooOOOOOOOOOOOOXXXXXX",
"XXXXXXOOOOOOooooooooooooooooooOOOOOOOOOOOOXXXXXXXXXXXXooooooooooooooooooooooooOOOOOOOOOOOOXXXXXX",
"XXXXXXOOOOOOooooooooooooooooooOOOOOOOOOOOOXXXXXXXXXXXXooooooooooooooooooooooooOOOOOOOOOOOOXXXXXX",
"XXXXXXOOOOOOooooooooooooooooooooooooOOOOOOXXXXXXXXXXXXooooooooooooooooooooooooooooooOOOOOOXXXXXX",
"XXXXXXOOOOOOooooooooooooooooooooooooOOOOOOXXXXXXXXXXXXooooooooooooooooooooooooooooooOOOOOOXXXXXX",
"XXXXXXOOOOOOooooooooooooooooooooooooOOOOOOXXXXXXXXXXXXooooooooooooooooooooooooooooooOOOOOOXXXXXX",
"XXXXXXOOOOOOooooooooooooooooooooooooOOOOOOXXXXXXXXXXXXooooooooooooooooooooooooooooooOOOOOOXXXXXX",
"XXXXXXOOOOOOooooooooooooooooooooooooOOOOOOXXXXXXXXXXXXooooooooooooooooooooooooooooooOOOOOOXXXXXX",
"XXXXXXOOOOOOooooooooooooooooooooooooOOOOOOXXXXXXXXXXXXooooooooooooooooooooooooooooooOOOOOOXXXXXX",
"XXXXXXooooooooooooooooooooooooooooooooooooXXXXXXXXXXXXooooooooooooooooooooooooooooooooooooXXXXXX",
"XXXXXXooooooooooooooooooooooooooooooooooooXXXXXXXXXXXXooooooooooooooooooooooooooooooooooooXXXXXX",
"XXXXXXooooooooooooooooooooooooooooooooooooXXXXXXXXXXXXooooooooooooooooooooooooooooooooooooXXXXXX",
"XXXXXXooooooooooooooooooooooooooooooooooooXXXXXXXXXXXXooooooooooooooooooooooooooooooooooooXXXXXX",
"XXXXXXooooooooooooooooooooooooooooooooooooXXXXXXXXXXXXooooooooooooooooooooooooooooooooooooXXXXXX",
"XXXXXXooooooooooooooooooooooooooooooooooooXXXXXXXXXXXXooooooooooooooooooooooooooooooooooooXXXXXX",
"XXXXXXooooooooooooooooooooooooooooooOOOOOOXXXXXXXXXXXXooooooooooooooooooooooooooooooooooooXXXXXX",
"XXXXXXooooooooooooooooooooooooooooooOOOOOOXXXXXXXXXXXXooooooooooooooooooooooooooooooooooooXXXXXX",
"XXXXXXooooooooooooooooooooooooooooooOOOOOOXXXXXXXXXXXXooooooooooooooooooooooooooooooooooooXXXXXX",
"XXXXXXooooooooooooooooooooooooooooooOOOOOOXXXXXXXXXXXXooooooooooooooooooooooooooooooooooooXXXXXX",
"XXXXXXooooooooooooooooooooooooooooooOOOOOOXXXXXXXXXXXXooooooooooooooooooooooooooooooooooooXXXXXX",
"XXXXXXooooooooooooooooooooooooooooooOOOOOOXXXXXXXXXXXXooooooooooooooooooooooooooooooooooooXXXXXX",
"XXXXXXXXXXXXXXXXXXXXXXXXXXXXXXXXXXXXXXXXXXXXXXXXXXXXXXXXXXXXXXXXXXXXXXXXXXXXXXXXXXXXXXXXXXXXXXXX",
"XXXXXXXXXXXXXXXXXXXXXXXXXXXXXXXXXXXXXXXXXXXXXXXXXXXXXXXXXXXXXXXXXXXXXXXXXXXXXXXXXXXXXXXXXXXXXXXX",
"XXXXXXXXXXXXXXXXXXXXXXXXXXXXXXXXXXXXXXXXXXXXXXXXXXXXXXXXXXXXXXXXXXXXXXXXXXXXXXXXXXXXXXXXXXXXXXXX",
"XXXXXXXXXXXXXXXXXXXXXXXXXXXXXXXXXXXXXXXXXXXXXXXXXXXXXXXXXXXXXXXXXXXXXXXXXXXXXXXXXXXXXXXXXXXXXXXX",
"XXXXXXXXXXXXXXXXXXXXXXXXXXXXXXXXXXXXXXXXXXXXXXXXXXXXXXXXXXXXXXXXXXXXXXXXXXXXXXXXXXXXXXXXXXXXXXXX",
"XXXXXXXXXXXXXXXXXXXXXXXXXXXXXXXXXXXXXXXXXXXXXXXXXXXXXXXXXXXXXXXXXXXXXXXXXXXXXXXXXXXXXXXXXXXXXXXX",
"................................................................................................",
"................................................................................................",
"................................................................................................",
"................................................................................................",
"................................................................................................",
"................................................................................................",
"............                                                                        ............",
"............                                                                        ............",
"............                                                                        ............",
"............                                                                        ............",
"............                                                                        ............",
"............                                                                        ............",
"......                              ......                                                ......",
"......                              ......                                                ......",
"......                              ......                                                ......",
"......                              ......                                                ......",
"......                              ......                                                ......",
"......                              ......                                                ......",
"......                              ......                                                      ",
"......                              ......                                                      ",
"......                              ......                                                      ",
"......                              ......                                                      ",
"......                              ......                                                      ",
"......                              ......                                                      ",
"      ..............................            ....................................      ......",
"      ..............................            ....................................      ......",
"      ..............................            ....................................      ......",
"      ..............................            ....................................      ......",
"      ..............................            ....................................      ......",
"      ..............................            ....................................      ......",
"......                                                                                          ",
"......                                                                                          ",
"......                                                                                          ",
"......                                                                                          ",
"......                                                                                          ",
"......                                                                                          ",
"                                                                                                ",
"                                                                                                ",
"                                                                                                ",
"                                                                                                ",
"                                                                                                ",
"                                                                                                ",
"                                                                                                ",
"                                                                                                ",
"                                                                                                ",
"                                                                                                ",
"                                                                                                ",
"                                                                                                ",
"                                                                                                ",
"                                                                                                ",
"                                                                                                ",
"                                                                                                ",
"                                                                                                ",
"                                                                                                "
};
