/* XPM */
static char *result[] = {
/* columns rows colors chars-per-pixel */
"96 96 8 1 ",
"  c #25131A",
". c #3D253B",
"X c #4C2F49",
"o c #483040",
"O c #543740",
"+ c #593756",
"@ c #6E4A48",
"# c #78514F",
/* pixels */
"++++++XXXXXX++++++++++++++++++++++++++++++++++++XXXXXXXXXXXXXXXXXXXXXXXXXXXXXXXXXXXXXXXXXXXXXXXX",
"++++++XXXXXX++++++++++++++++++++++++++++++++++++XXXXXXXXXXXXXXXXXXXXXXXXXXXXXXXXXXXXXXXXXXXXXXXX",
"++++++XXXXXX++++++++++++++++++++++++++++++++++++XXXXXXXXXXXXXXXXXXXXXXXXXXXXXXXXXXXXXXXXXXXXXXXX",
"++++++XXXXXX++++++++++++++++++++++++++++++++++++XXXXXXXXXXXXXXXXXXXXXXXXXXXXXXXXXXXXXXXXXXXXXXXX",
"++++++XXXXXX++++++++++++++++++++++++++++++++++++XXXXXXXXXXXXXXXXXXXXXXXXXXXXXXXXXXXXXXXXXXXXXXXX",
"++++++XXXXXX++++++++++++++++++++++++++++++++++++XXXXXXXXXXXXXXXXXXXXXXXXXXXXXXXXXXXXXXXXXXXXXXXX",
"XXXXXX@@@@@@@@@@@@@@@@@@@@@@@@@@@@@@@@@@@@######......XXXXXX######@@@@@@@@@@@@@@@@@@@@@@@@XXXXXX",
"XXXXXX@@@@@@@@@@@@@@@@@@@@@@@@@@@@@@@@@@@@######......XXXXXX######@@@@@@@@@@@@@@@@@@@@@@@@XXXXXX",
"XXXXXX@@@@@@@@@@@@@@@@@@@@@@@@@@@@@@@@@@@@######......XXXXXX######@@@@@@@@@@@@@@@@@@@@@@@@XXXXXX",
"XXXXXX@@@@@@@@@@@@@@@@@@@@@@@@@@@@@@@@@@@@######......XXXXXX######@@@@@@@@@@@@@@@@@@@@@@@@XXXXXX",
"XXXXXX@@@@@@@@@@@@@@@@@@@@@@@@@@@@@@@@@@@@######......XXXXXX######@@@@@@@@@@@@@@@@@@@@@@@@XXXXXX",
"XXXXXX@@@@@@@@@@@@@@@@@@@@@@@@@@@@@@@@@@@@######......XXXXXX######@@@@@@@@@@@@@@@@@@@@@@@@XXXXXX",
"XXXXXX##########################################XXXXXXXXXXXX##############################XXXXXX",
"XXXXXX##########################################XXXXXXXXXXXX##############################XXXXXX",
"XXXXXX##########################################XXXXXXXXXXXX##############################XXXXXX",
"XXXXXX##########################################XXXXXXXXXXXX##############################XXXXXX",
"XXXXXX##########################################XXXXXXXXXXXX##############################XXXXXX",
"XXXXXX##########################################XXXXXXXXXXXX##############################XXXXXX",
"++++++XXXXXX++++++++++++++++++++++++++++++++++++XXXXXXXXXXXXXXXXXXXXXXXXXXXXXXXXXXXXXXXXXXXXXXXX",
"++++++XXXXXX++++++++++++++++++++++++++++++++++++XXXXXXXXXXXXXXXXXXXXXXXXXXXXXXXXXXXXXXXXXXXXXXXX",
"++++++XXXXXX++++++++++++++++++++++++++++++++++++XXXXXXXXXXXXXXXXXXXXXXXXXXXXXXXXXXXXXXXXXXXXXXXX",
"++++++XXXXXX++++++++++++++++++++++++++++++++++++XXXXXXXXXXXXXXXXXXXXXXXXXXXXXXXXXXXXXXXXXXXXXXXX",
"++++++XXXXXX++++++++++++++++++++++++++++++++++++XXXXXXXXXXXXXXXXXXXXXXXXXXXXXXXXXXXXXXXXXXXXXXXX",
"++++++XXXXXX++++++++++++++++++++++++++++++++++++XXXXXXXXXXXXXXXXXXXXXXXXXXXXXXXXXXXXXXXXXXXXXXXX",
"XXXXXX@@@@@@@@@@@@@@@@@@@@@@@@@@@@@@@@@@@@@@@@@@@@@@@@@@@@@@@@@@@@@@@@@@@@@@@@@@@@@@######XXXXXX",
"XXXXXX@@@@@@@@@@@@@@@@@@@@@@@@@@@@@@@@@@@@@@@@@@@@@@@@@@@@@@@@@@@@@@@@@@@@@@@@@@@@@@######XXXXXX",
"XXXXXX@@@@@@@@@@@@@@@@@@@@@@@@@@@@@@@@@@@@@@@@@@@@@@@@@@@@@@@@@@@@@@@@@@@@@@@@@@@@@@######XXXXXX",
"XXXXXX@@@@@@@@@@@@@@@@@@@@@@@@@@@@@@@@@@@@@@@@@@@@@@@@@@@@@@@@@@@@@@@@@@@@@@@@@@@@@@######XXXXXX",
"XXXXXX@@@@@@@@@@@@@@@@@@@@@@@@@@@@@@@@@@@@@@@@@@@@@@@@@@@@@@@@@@@@@@@@@@@@@@@@@@@@@@######XXXXXX",
"XXXXXX@@@@@@@@@@@@@@@@@@@@@@@@@@@@@@@@@@@@@@@@@@@@@@@@@@@@@@@@@@@@@@@@@@@@@@@@@@@@@@######XXXXXX",
"XXXXXX######@@@@@@@@@@@@@@@@@@@@@@@@@@@@@@@@@@@@@@@@@@@@@@@@@@@@@@@@@@@@@@@@@@@@@@@@######XXXXXX",
"XXXXXX######@@@@@@@@@@@@@@@@@@@@@@@@@@@@@@@@@@@@@@@@@@@@@@@@@@@@@@@@@@@@@@@@@@@@@@@@######XXXXXX",
"XXXXXX######@@@@@@@@@@@@@@@@@@@@@@@@@@@@@@@@@@@@@@@@@@@@@@@@@@@@@@@@@@@@@@@@@@@@@@@@######XXXXXX",
"XXXXXX######@@@@@@@@@@@@@@@@@@@@@@@@@@@@@@@@@@@@@@@@@@@@@@@@@@@@@@@@@@@@@@@@@@@@@@@@######XXXXXX",
"XXXXXX######@@@@@@@@@@@@@@@@@@@@@@@@@@@@@@@@@@@@@@@@@@@@@@@@@@@@@@@@@@@@@@@@@@@@@@@@######XXXXXX",
"XXXXXX######@@@@@@@@@@@@@@@@@@@@@@@@@@@@@@@@@@@@@@@@@@@@@@@@@@@@@@@@@@@@@@@@@@@@@@@@######XXXXXX",
"XXXXXX####################################################################################XXXXXX",
"XXXXXX####################################################################################XXXXXX",
"XXXXXX####################################################################################XXXXXX",
"XXXXXX####################################################################################XXXXXX",
"XXXXXX####################################################################################XXXXXX",
"XXXXXX####################################################################################XXXXXX",
"X.....OOOOOOOOOOOOOOOOOOOOOOOOOOOOOOOOOOOOOOOOOOOOOOOOOOOOOOOOOOOOOOOOOOOOOOOOOOOOOOOOOOOO......",
"X.....OOOOOOOOOOOOOOOOOOOOOOOOOOOOOOOOOOOOOOOOOOOOOOOOOOOOOOOOOOOOOOOOOOOOOOOOOOOOOOOOOOOO......",
"X.....OOOOOOOOOOOOOOOOOOOOOOOOOOOOOOOOOOOOOOOOOOOOOOOOOOOOOOOOOOOOOOOOOOOOOOOOOOOOOOOOOOOO......",
"X.....OOOOOOOOOOOOOOOOOOOOOOOOOOOOOOOOOOOOOOOOOOOOOOOOOOOOOOOOOOOOOOOOOOOOOOOOOOOOOOOOOOOO......",
"X.....OOOOOOOOOOOOOOOOOOOOOOOOOOOOOOOOOOOOOOOOOOOOOOOOOOOOOOOOOOOOOOOOOOOOOOOOOOOOOOOOOOOO......",
"X.....OOOOOOOOOOOOOOOOOOOOOOOOOOOOOOOOOOOOOOOOOOOOOOOOOOOOOOOOOOOOOOOOOOOOOOOOOOOOOOOOOOOO......",
"......OOOOOOOOOOOOOOOOOOOOOOOOOOOOOOOOOOOOOOOOOOOOOOOOOOOOOOOOOOOOOOOOOOOOOOOOOOOOOOOOOOOOXXXXXX",
"......OOOOOOOOOOOOOOOOOOOOOOOOOOOOOOOOOOOOOOOOOOOOOOOOOOOOOOOOOOOOOOOOOOOOOOOOOOOOOOOOOOOOXXXXXX",
"......OOOOOOOOOOOOOOOOOOOOOOOOOOOOOOOOOOOOOOOOOOOOOOOOOOOOOOOOOOOOOOOOOOOOOOOOOOOOOOOOOOOOXXXXXX",
"......OOOOOOOOOOOOOOOOOOOOOOOOOOOOOOOOOOOOOOOOOOOOOOOOOOOOOOOOOOOOOOOOOOOOOOOOOOOOOOOOOOOOXXXXXX",
"......OOOOOOOOOOOOOOOOOOOOOOOOOOOOOOOOOOOOOOOOOOOOOOOOOOOOOOOOOOOOOOOOOOOOOOOOOOOOOOOOOOOOXXXXXX",
"......OOOOOOOOOOOOOOOOOOOOOOOOOOOOOOOOOOOOOOOOOOOOOOOOOOOOOOOOOOOOOOOOOOOOOOOOOOOOOOOOOOOOXXXXXX",
"......ooooooOOOOOOOOOOOOOOOOOOOOOOOOOOOOOOOOOOOOOOOOOOOOOOOOOOOOOOOOOOOOOOOOOOOOOOOOoooooo......",
"......ooooooOOOOOOOOOOOOOOOOOOOOOOOOOOOOOOOOOOOOOOOOOOOOOOOOOOOOOOOOOOOOOOOOOOOOOOOOoooooo......",
"......ooooooOOOOOOOOOOOOOOOOOOOOOOOOOOOOOOOOOOOOOOOOOOOOOOOOOOOOOOOOOOOOOOOOOOOOOOOOoooooo......",
"......ooooooOOOOOOOOOOOOOOOOOOOOOOOOOOOOOOOOOOOOOOOOOOOOOOOOOOOOOOOOOOOOOOOOOOOOOOOOoooooo......",
"......ooooooOOOOOOOOOOOOOOOOOOOOOOOOOOOOOOOOOOOOOOOOOOOOOOOOOOOOOOOOOOOOOOOOOOOOOOOOoooooo......",
"......ooooooOOOOOOOOOOOOOOOOOOOOOOOOOOOOOOOOOOOOOOOOOOOOOOOOOOOOOOOOOOOOOOOOOOOOOOOOoooooo......",
".     ..........................................................................................",
".     ..........................................................................................",
".     ..........................................................................................",
".     ..........................................................................................",
".     ..........................................................................................",
".     ..........................................................................................",
" .....ooooooOOOOOOOOOOOOOOOOOOOOOOOOoooooo......ooooooOOOOOOOOOOOOOOOOOOOOOOOOOOOOOOoooooo......",
" .....ooooooOOOOOOOOOOOOOOOOOOOOOOOOoooooo......ooooooOOOOOOOOOOOOOOOOOOOOOOOOOOOOOOoooooo......",
" .....ooooooOOOOOOOOOOOOOOOOOOOOOOOOoooooo......ooooooOOOOOOOOOOOOOOOOOOOOOOOOOOOOOOoooooo......",
" .....ooooooOOOOOOOOOOOOOOOOOOOOOOOOoooooo......ooooooOOOOOOOOOOOOOOOOOOOOOOOOOOOOOOoooooo......",
" .....ooooooOOOOOOOOOOOOOOOOOOOOOOOOoooooo......ooooooOOOOOOOOOOOOOOOOOOOOOOOOOOOOOOoooooo......",
" .....ooooooOOOOOOOOOOOOOOOOOOOOOOOOoooooo......ooooooOOOOOOOOOOOOOOOOOOOOOOOOOOOOOOoooooo......",
"......OOOOOOOOOOOOOOOOOOOOOOOOOOOOOOOOOOOO......OOOOOOOOOOOOOOOOOOOOOOOOOOOOOOOOOOOOOOOOOO      ",
"......OOOOOOOOOOOOOOOOOOOOOOOOOOOOOOOOOOOO......OOOOOOOOOOOOOOOOOOOOOOOOOOOOOOOOOOOOOOOOOO      ",
"......OOOOOOOOOOOOOOOOOOOOOOOOOOOOOOOOOOOO......OOOOOOOOOOOOOOOOOOOOOOOOOOOOOOOOOOOOOOOOOO      ",
"......OOOOOOOOOOOOOOOOOOOOOOOOOOOOOOOOOOOO......OOOOOOOOOOOOOOOOOOOOOOOOOOOOOOOOOOOOOOOOOO      ",
"......OOOOOOOOOOOOOOOOOOOOOOOOOOOOOOOOOOOO......OOOOOOOOOOOOOOOOOOOOOOOOOOOOOOOOOOOOOOOOOO      ",
"......OOOOOOOOOOOOOOOOOOOOOOOOOOOOOOOOOOOO......OOOOOOOOOOOOOOOOOOOOOOOOOOOOOOOOOOOOOOOOOO      ",
".     ooooooOOOOOOOOOOOOOOOOOOOOOOOOoooooo      ooooooOOOOOOOOOOOOOOOOOOOOOOOOOOOOOOoooooo......",
".     ooooooOOOOOOOOOOOOOOOOOOOOOOOOoooooo      ooooooOOOOOOOOOOOOOOOOOOOOOOOOOOOOOOoooooo......",
".     ooooooOOOOOOOOOOOOOOOOOOOOOOOOoooooo      ooooooOOOOOOOOOOOOOOOOOOOOOOOOOOOOOOoooooo......",
".     ooooooOOOOOOOOOOOOOOOOOOOOOOOOoooooo      ooooooOOOOOOOOOOOOOOOOOOOOOOOOOOOOOOoooooo......",
".     ooooooOOOOOOOOOOOOOOOOOOOOOOOOoooooo      ooooooOOOOOOOOOOOOOOOOOOOOOOOOOOOOOOoooooo......",
".     ooooooOOOOOOOOOOOOOOOOOOOOOOOOoooooo      ooooooOOOOOOOOOOOOOOOOOOOOOOOOOOOOOOoooooo......",
"                                                                                                ",
"                                                                                                ",
"                                                                                                ",
"                                                                                                ",
"                                                                                                ",
"                                                                                                ",
"                                                                                                ",
"                                                                                                ",
"                                                                                                ",
"                                                                                                ",
"                                                                                                ",
"                                                                                                "
};
