/* XPM */
static char *result[] = {
/* columns rows colors chars-per-pixel */
"128 128 4 1 ",
"  c #25131A",
". c #4C2F49",
"X c #6E4A48",
"o c #78514F",
/* pixels */
"........................................................                                                                        ",
"........................................................                                                                        ",
"........................................................                                                                        ",
"........................................................                                                                        ",
"........................................................                                                                        ",
"........................................................                                                                        ",
"........................................................                                                                        ",
"........................................................                                                                        ",
"........ooooooooXXXXXXXXXXXXXXXXXXXXXXXXXXXXXXXX........                                                                        ",
"........ooooooooXXXXXXXXXXXXXXXXXXXXXXXXXXXXXXXX........                                                                        ",
"........ooooooooXXXXXXXXXXXXXXXXXXXXXXXXXXXXXXXX........                                                                        ",
"........ooooooooXXXXXXXXXXXXXXXXXXXXXXXXXXXXXXXX........                                                                        ",
"........ooooooooXXXXXXXXXXXXXXXXXXXXXXXXXXXXXXXX........                                                                        ",
"........ooooooooXXXXXXXXXXXXXXXXXXXXXXXXXXXXXXXX........                                                                        ",
"........ooooooooXXXXXXXXXXXXXXXXXXXXXXXXXXXXXXXX........                                                                        ",
"........ooooooooXXXXXXXXXXXXXXXXXXXXXXXXXXXXXXXX........                                                                        ",
"........ooooooooXXXXXXXXXXXXXXXXXXXXXXXXXXXXXXXX........                                                                        ",
"........ooooooooXXXXXXXXXXXXXXXXXXXXXXXXXXXXXXXX........                                                                        ",
"........ooooooooXXXXXXXXXXXXXXXXXXXXXXXXXXXXXXXX........                                                                        ",
"........ooooooooXXXXXXXXXXXXXXXXXXXXXXXXXXXXXXXX........                                                                        ",
"........ooooooooXXXXXXXXXXXXXXXXXXXXXXXXXXXXXXXX........                                                                        ",
"........ooooooooXXXXXXXXXXXXXXXXXXXXXXXXXXXXXXXX........                                                                        ",
"........ooooooooXXXXXXXXXXXXXXXXXXXXXXXXXXXXXXXX........                                                                        ",
"........ooooooooXXXXXXXXXXXXXXXXXXXXXXXXXXXXXXXX........                                                                        ",
"........ooooooooXXXXXXXXXXXXXXXXXXXXXXXXXXXXXXXX........                                                                        ",
"........ooooooooXXXXXXXXXXXXXXXXXXXXXXXXXXXXXXXX........                                                                        ",
"........ooooooooXXXXXXXXXXXXXXXXXXXXXXXXXXXXXXXX........                                                                        ",
"........ooooooooXXXXXXXXXXXXXXXXXXXXXXXXXXXXXXXX........                                                                        ",
"........ooooooooXXXXXXXXXXXXXXXXXXXXXXXXXXXXXXXX........                                                                        ",
"........ooooooooXXXXXXXXXXXXXXXXXXXXXXXXXXXXXXXX........                                                                        ",
"........ooooooooXXXXXXXXXXXXXXXXXXXXXXXXXXXXXXXX........                                                                        ",
"........ooooooooXXXXXXXXXXXXXXXXXXXXXXXXXXXXXXXX........                                                                        ",
"........ooooooooXXXXXXXXXXXXXXXXXXXXXXXXXXXXXXXX........                                                                        ",
"........ooooooooXXXXXXXXXXXXXXXXXXXXXXXXXXXXXXXX........                                                                        ",
"........ooooooooXXXXXXXXXXXXXXXXXXXXXXXXXXXXXXXX........                                                                        ",
"........ooooooooXXXXXXXXXXXXXXXXXXXXXXXXXXXXXXXX........                                                                        ",
"........ooooooooXXXXXXXXXXXXXXXXXXXXXXXXXXXXXXXX........                                                                        ",
"........ooooooooXXXXXXXXXXXXXXXXXXXXXXXXXXXXXXXX........                                                                        ",
"........ooooooooXXXXXXXXXXXXXXXXXXXXXXXXXXXXXXXX........                                                                        ",
"........ooooooooXXXXXXXXXXXXXXXXXXXXXXXXXXXXXXXX........                                                                        ",
"........ooooooooXXXXXXXXXXXXXXXXXXXXXXXXXXXXXXXX........                                                                        ",
"........ooooooooXXXXXXXXXXXXXXXXXXXXXXXXXXXXXXXX........                                                                        ",
"........ooooooooXXXXXXXXXXXXXXXXXXXXXXXXXXXXXXXX........                                                                        ",
"........ooooooooXXXXXXXXXXXXXXXXXXXXXXXXXXXXXXXX........                                                                        ",
"........ooooooooXXXXXXXXXXXXXXXXXXXXXXXXXXXXXXXX........                                                                        ",
"........ooooooooXXXXXXXXXXXXXXXXXXXXXXXXXXXXXXXX........                                                                        ",
"........ooooooooXXXXXXXXXXXXXXXXXXXXXXXXXXXXXXXX........                                                                        ",
"........ooooooooXXXXXXXXXXXXXXXXXXXXXXXXXXXXXXXX........                                                                        ",
"........ooooooooXXXXXXXXXXXXXXXXXXXXXXXXXXXXXXXX........                                                                        ",
"........ooooooooXXXXXXXXXXXXXXXXXXXXXXXXXXXXXXXX........                                                                        ",
"........ooooooooXXXXXXXXXXXXXXXXXXXXXXXXXXXXXXXX........                                                                        ",
"........ooooooooXXXXXXXXXXXXXXXXXXXXXXXXXXXXXXXX........                                                                        ",
"........ooooooooXXXXXXXXXXXXXXXXXXXXXXXXXXXXXXXX........                                                                        ",
"........ooooooooXXXXXXXXXXXXXXXXXXXXXXXXXXXXXXXX........                                                                        ",
"........ooooooooXXXXXXXXXXXXXXXXXXXXXXXXXXXXXXXX........                                                                        ",
"........ooooooooXXXXXXXXXXXXXXXXXXXXXXXXXXXXXXXX........                                                                        ",
"........ooooooooXXXXXXXXXXXXXXXXXXXXXXXXXXXXXXXX........                                                                        ",
"........ooooooooXXXXXXXXXXXXXXXXXXXXXXXXXXXXXXXX........                                                                        ",
"........ooooooooXXXXXXXXXXXXXXXXXXXXXXXXXXXXXXXX........                                                                        ",
"........ooooooooXXXXXXXXXXXXXXXXXXXXXXXXXXXXXXXX........                                                                        ",
"........ooooooooXXXXXXXXXXXXXXXXXXXXXXXXXXXXXXXX........                                                                        ",
"........ooooooooXXXXXXXXXXXXXXXXXXXXXXXXXXXXXXXX........                                                                        ",
"........ooooooooXXXXXXXXXXXXXXXXXXXXXXXXXXXXXXXX........                                                                        ",
"........ooooooooXXXXXXXXXXXXXXXXXXXXXXXXXXXXXXXX........                                                                        ",
"........ooooooooXXXXXXXXXXXXXXXXXXXXXXXXXXXXXXXX........                                                                        ",
"........ooooooooXXXXXXXXXXXXXXXXXXXXXXXXXXXXXXXX........                                                                        ",
"........ooooooooXXXXXXXXXXXXXXXXXXXXXXXXXXXXXXXX........                                                                        ",
"........ooooooooXXXXXXXXXXXXXXXXXXXXXXXXXXXXXXXX........                                                                        ",
"........ooooooooXXXXXXXXXXXXXXXXXXXXXXXXXXXXXXXX........                                                                        ",
"........ooooooooXXXXXXXXXXXXXXXXXXXXXXXXXXXXXXXX........                                                                        ",
"........ooooooooXXXXXXXXXXXXXXXXXXXXXXXXXXXXXXXX........                                                                        ",
"........ooooooooXXXXXXXXXXXXXXXXXXXXXXXXXXXXXXXX........                                                                        ",
"........ooooooooXXXXXXXXXXXXXXXXXXXXXXXXXXXXXXXX........                                                                        ",
"........ooooooooXXXXXXXXXXXXXXXXXXXXXXXXXXXXXXXX........                                                                        ",
"........ooooooooXXXXXXXXXXXXXXXXXXXXXXXXXXXXXXXX........                                                                        ",
"........ooooooooXXXXXXXXXXXXXXXXXXXXXXXXXXXXXXXX........                                                                        ",
"........ooooooooXXXXXXXXXXXXXXXXXXXXXXXXXXXXXXXX........                                                                        ",
"........ooooooooXXXXXXXXXXXXXXXXXXXXXXXXXXXXXXXX........                                                                        ",
"........ooooooooXXXXXXXXXXXXXXXXXXXXXXXXXXXXXXXX........                                                                        ",
"........ooooooooXXXXXXXXXXXXXXXXXXXXXXXXXXXXXXXX........                                                                        ",
"........ooooooooXXXXXXXXXXXXXXXXXXXXXXXXXXXXXXXX........                                                                        ",
"........ooooooooXXXXXXXXXXXXXXXXXXXXXXXXXXXXXXXX........                                                                        ",
"........ooooooooXXXXXXXXXXXXXXXXXXXXXXXXXXXXXXXX........                                                                        ",
"........ooooooooXXXXXXXXXXXXXXXXXXXXXXXXXXXXXXXX........                                                                        ",
"........ooooooooXXXXXXXXXXXXXXXXXXXXXXXXXXXXXXXX........                                                                        ",
"........ooooooooXXXXXXXXXXXXXXXXXXXXXXXXXXXXXXXX........                                                                        ",
"........ooooooooXXXXXXXXXXXXXXXXXXXXXXXXXXXXXXXX........                                                                        ",
"........ooooooooXXXXXXXXXXXXXXXXXXXXXXXXXXXXXXXX........                                                                        ",
"........ooooooooXXXXXXXXXXXXXXXXXXXXXXXXXXXXXXXX........                                                                        ",
"........ooooooooXXXXXXXXXXXXXXXXXXXXXXXXXXXXXXXX........                                                                        ",
"........ooooooooXXXXXXXXXXXXXXXXXXXXXXXXXXXXXXXX........                                                                        ",
"........ooooooooXXXXXXXXXXXXXXXXXXXXXXXXXXXXXXXX........                                                                        ",
"........ooooooooXXXXXXXXXXXXXXXXXXXXXXXXXXXXXXXX........                                                                        ",
"........ooooooooXXXXXXXXXXXXXXXXXXXXXXXXXXXXXXXX........                                                                        ",
"........ooooooooXXXXXXXXXXXXXXXXXXXXXXXXXXXXXXXX........                                                                        ",
"........ooooooooXXXXXXXXXXXXXXXXXXXXXXXXXXXXXXXX........                                                                        ",
"........ooooooooXXXXXXXXXXXXXXXXXXXXXXXXXXXXXXXX........                                                                        ",
"........ooooooooXXXXXXXXXXXXXXXXXXXXXXXXXXXXXXXX........                                                                        ",
"........ooooooooXXXXXXXXXXXXXXXXXXXXXXXXXXXXXXXX........                                                                        ",
"........ooooooooXXXXXXXXXXXXXXXXXXXXXXXXXXXXXXXX........                                                                        ",
"........ooooooooXXXXXXXXXXXXXXXXXXXXXXXXXXXXXXXX........                                                                        ",
"........ooooooooXXXXXXXXXXXXXXXXXXXXXXXXXXXXXXXX........                                                                        ",
"........ooooooooXXXXXXXXXXXXXXXXXXXXXXXXXXXXXXXX........                                                                        ",
"........ooooooooXXXXXXXXXXXXXXXXXXXXXXXXXXXXXXXX........                                                                        ",
"........ooooooooXXXXXXXXXXXXXXXXXXXXXXXXXXXXXXXX........                                                                        ",
"........ooooooooXXXXXXXXXXXXXXXXXXXXXXXXXXXXXXXX........                                                                        ",
"........ooooooooXXXXXXXXXXXXXXXXXXXXXXXXXXXXXXXX........                                                                        ",
"........ooooooooXXXXXXXXXXXXXXXXXXXXXXXXXXXXXXXX........                                                                        ",
"........ooooooooXXXXXXXXXXXXXXXXXXXXXXXXXXXXXXXX........                                                                        ",
"........ooooooooXXXXXXXXXXXXXXXXXXXXXXXXXXXXXXXX........                                                                        ",
"........ooooooooXXXXXXXXXXXXXXXXXXXXXXXXXXXXXXXX........                                                                        ",
"........ooooooooXXXXXXXXXXXXXXXXXXXXXXXXXXXXXXXX........                                                                        ",
"........ooooooooooooooooooooooooXXXXXXXXoooooooo........                                                                        ",
"........ooooooooooooooooooooooooXXXXXXXXoooooooo........                                                                        ",
"........ooooooooooooooooooooooooXXXXXXXXoooooooo........                                                                        ",
"........ooooooooooooooooooooooooXXXXXXXXoooooooo........                                                                        ",
"........ooooooooooooooooooooooooXXXXXXXXoooooooo........                                                                        ",
"........ooooooooooooooooooooooooXXXXXXXXoooooooo........                                                                        ",
"........ooooooooooooooooooooooooXXXXXXXXoooooooo........                                                                        ",
"........ooooooooooooooooooooooooXXXXXXXXoooooooo........                                                                        ",
"........................................................                                                                        ",
"........................................................                                                                        ",
"........................................................                                                                        ",
"........................................................                                                                        ",
"........................................................                                                                        ",
"........................................................                                                                        ",
"........................................................                                                                        ",
"........................................................                                                                        "
};
