/* XPM */
static char *result[] = {
/* columns rows colors chars-per-pixel */
"96 96 4 1 ",
"  c #25131A",
". c #4C2F49",
"X c #6E4A48",
"o c #78514F",
/* pixels */
"..........................................                                                      ",
"..........................................                                                      ",
"..........................................                                                      ",
"..........................................                                                      ",
"..........................................                                                      ",
"..........................................                                                      ",
"......ooooooXXXXXXXXXXXXXXXXXXXXXXXX......                                                      ",
"......ooooooXXXXXXXXXXXXXXXXXXXXXXXX......                                                      ",
"......ooooooXXXXXXXXXXXXXXXXXXXXXXXX......                                                      ",
"......ooooooXXXXXXXXXXXXXXXXXXXXXXXX......                                                      ",
"......ooooooXXXXXXXXXXXXXXXXXXXXXXXX......                                                      ",
"......ooooooXXXXXXXXXXXXXXXXXXXXXXXX......                                                      ",
"......ooooooXXXXXXXXXXXXXXXXXXXXXXXX......                                                      ",
"......ooooooXXXXXXXXXXXXXXXXXXXXXXXX......                                                      ",
"......ooooooXXXXXXXXXXXXXXXXXXXXXXXX......                                                      ",
"......ooooooXXXXXXXXXXXXXXXXXXXXXXXX......                                                      ",
"......ooooooXXXXXXXXXXXXXXXXXXXXXXXX......                                                      ",
"......ooooooXXXXXXXXXXXXXXXXXXXXXXXX......                                                      ",
"......ooooooXXXXXXXXXXXXXXXXXXXXXXXX......                                                      ",
"......ooooooXXXXXXXXXXXXXXXXXXXXXXXX......                                                      ",
"......ooooooXXXXXXXXXXXXXXXXXXXXXXXX......                                                      ",
"......ooooooXXXXXXXXXXXXXXXXXXXXXXXX......                                                      ",
"......ooooooXXXXXXXXXXXXXXXXXXXXXXXX......                                                      ",
"......ooooooXXXXXXXXXXXXXXXXXXXXXXXX......                                                      ",
"......ooooooXXXXXXXXXXXXXXXXXXXXXXXX......                                                      ",
"......ooooooXXXXXXXXXXXXXXXXXXXXXXXX......                                                      ",
"......ooooooXXXXXXXXXXXXXXXXXXXXXXXX......                                                      ",
"......ooooooXXXXXXXXXXXXXXXXXXXXXXXX......                                                      ",
"......ooooooXXXXXXXXXXXXXXXXXXXXXXXX......                                                      ",
"......ooooooXXXXXXXXXXXXXXXXXXXXXXXX......                                                      ",
"......ooooooXXXXXXXXXXXXXXXXXXXXXXXX......                                                      ",
"......ooooooXXXXXXXXXXXXXXXXXXXXXXXX......                                                      ",
"......ooooooXXXXXXXXXXXXXXXXXXXXXXXX......                                                      ",
"......ooooooXXXXXXXXXXXXXXXXXXXXXXXX......                                                      ",
"......ooooooXXXXXXXXXXXXXXXXXXXXXXXX......                                                      ",
"......ooooooXXXXXXXXXXXXXXXXXXXXXXXX......                                                      ",
"......ooooooXXXXXXXXXXXXXXXXXXXXXXXX......                                                      ",
"......ooooooXXXXXXXXXXXXXXXXXXXXXXXX......                                                      ",
"......ooooooXXXXXXXXXXXXXXXXXXXXXXXX......                                                      ",
"......ooooooXXXXXXXXXXXXXXXXXXXXXXXX......                                                      ",
"......ooooooXXXXXXXXXXXXXXXXXXXXXXXX......                                                      ",
"......ooooooXXXXXXXXXXXXXXXXXXXXXXXX......                                                      ",
"......ooooooXXXXXXXXXXXXXXXXXXXXXXXX......                                                      ",
"......ooooooXXXXXXXXXXXXXXXXXXXXXXXX......                                                      ",
"......ooooooXXXXXXXXXXXXXXXXXXXXXXXX......                                                      ",
"......ooooooXXXXXXXXXXXXXXXXXXXXXXXX......                                                      ",
"......ooooooXXXXXXXXXXXXXXXXXXXXXXXX......                                                      ",
"......ooooooXXXXXXXXXXXXXXXXXXXXXXXX......                                                      ",
"......ooooooXXXXXXXXXXXXXXXXXXXXXXXX......                                                      ",
"......ooooooXXXXXXXXXXXXXXXXXXXXXXXX......                                                      ",
"......ooooooXXXXXXXXXXXXXXXXXXXXXXXX......                                                      ",
"......ooooooXXXXXXXXXXXXXXXXXXXXXXXX......                                                      ",
"......ooooooXXXXXXXXXXXXXXXXXXXXXXXX......                                                      ",
"......ooooooXXXXXXXXXXXXXXXXXXXXXXXX......                                                      ",
"......ooooooXXXXXXXXXXXXXXXXXXXXXXXX......                                                      ",
"......ooooooXXXXXXXXXXXXXXXXXXXXXXXX......                                                      ",
"......ooooooXXXXXXXXXXXXXXXXXXXXXXXX......                                                      ",
"......ooooooXXXXXXXXXXXXXXXXXXXXXXXX......                                                      ",
"......ooooooXXXXXXXXXXXXXXXXXXXXXXXX......                                                      ",
"......ooooooXXXXXXXXXXXXXXXXXXXXXXXX......                                                      ",
"......ooooooXXXXXXXXXXXXXXXXXXXXXXXX......                                                      ",
"......ooooooXXXXXXXXXXXXXXXXXXXXXXXX......                                                      ",
"......ooooooXXXXXXXXXXXXXXXXXXXXXXXX......                                                      ",
"......ooooooXXXXXXXXXXXXXXXXXXXXXXXX......                                                      ",
"......ooooooXXXXXXXXXXXXXXXXXXXXXXXX......                                                      ",
"......ooooooXXXXXXXXXXXXXXXXXXXXXXXX......                                                      ",
"......ooooooXXXXXXXXXXXXXXXXXXXXXXXX......                                                      ",
"......ooooooXXXXXXXXXXXXXXXXXXXXXXXX......                                                      ",
"......ooooooXXXXXXXXXXXXXXXXXXXXXXXX......                                                      ",
"......ooooooXXXXXXXXXXXXXXXXXXXXXXXX......                                                      ",
"......ooooooXXXXXXXXXXXXXXXXXXXXXXXX......                                                      ",
"......ooooooXXXXXXXXXXXXXXXXXXXXXXXX......                                                      ",
"......ooooooXXXXXXXXXXXXXXXXXXXXXXXX......                                                      ",
"......ooooooXXXXXXXXXXXXXXXXXXXXXXXX......                                                      ",
"......ooooooXXXXXXXXXXXXXXXXXXXXXXXX......                                                      ",
"......ooooooXXXXXXXXXXXXXXXXXXXXXXXX......                                                      ",
"......ooooooXXXXXXXXXXXXXXXXXXXXXXXX......                                                      ",
"......ooooooXXXXXXXXXXXXXXXXXXXXXXXX......                                                      ",
"......ooooooXXXXXXXXXXXXXXXXXXXXXXXX......                                                      ",
"......ooooooXXXXXXXXXXXXXXXXXXXXXXXX......                                                      ",
"......ooooooXXXXXXXXXXXXXXXXXXXXXXXX......                                                      ",
"......ooooooXXXXXXXXXXXXXXXXXXXXXXXX......                                                      ",
"......ooooooXXXXXXXXXXXXXXXXXXXXXXXX......                                                      ",
"......ooooooXXXXXXXXXXXXXXXXXXXXXXXX......                                                      ",
"......ooooooooooooooooooXXXXXXoooooo......                                                      ",
"......ooooooooooooooooooXXXXXXoooooo......                                                      ",
"......ooooooooooooooooooXXXXXXoooooo......                                                      ",
"......ooooooooooooooooooXXXXXXoooooo......                                                      ",
"......ooooooooooooooooooXXXXXXoooooo......                                                      ",
"......ooooooooooooooooooXXXXXXoooooo......                                                      ",
"..........................................                                                      ",
"..........................................                                                      ",
"..........................................                                                      ",
"..........................................                                                      ",
"..........................................                                                      ",
"..........................................                                                      "
};
