/* XPM */
static char *result[] = {
/* columns rows colors chars-per-pixel */
"96 96 10 1 ",
"  c #25131A",
". c #3D253B",
"X c #422C3B",
"o c #4C2F49",
"O c #483040",
"+ c #4F3740",
"@ c #543740",
"# c #593756",
"$ c #6E4A48",
"% c #78514F",
/* pixels */
"######oooooo##########################################oooooooooooooooooooooooooooooooooooooooooo",
"######oooooo##########################################oooooooooooooooooooooooooooooooooooooooooo",
"######oooooo##########################################oooooooooooooooooooooooooooooooooooooooooo",
"######oooooo##########################################oooooooooooooooooooooooooooooooooooooooooo",
"######oooooo##########################################oooooooooooooooooooooooooooooooooooooooooo",
"######oooooo##########################################oooooooooooooooooooooooooooooooooooooooooo",
"oooooo$$$$$$$$$$$$$$$$$$$$$$$$$$$$$$$$$$$$$$$$$$$$$$$$$$$$$$$$$$$$$$$$$$$$$$$$$$$$$$$$$$$$oooooo",
"oooooo$$$$$$$$$$$$$$$$$$$$$$$$$$$$$$$$$$$$$$$$$$$$$$$$$$$$$$$$$$$$$$$$$$$$$$$$$$$$$$$$$$$$oooooo",
"oooooo$$$$$$$$$$$$$$$$$$$$$$$$$$$$$$$$$$$$$$$$$$$$$$$$$$$$$$$$$$$$$$$$$$$$$$$$$$$$$$$$$$$$oooooo",
"oooooo$$$$$$$$$$$$$$$$$$$$$$$$$$$$$$$$$$$$$$$$$$$$$$$$$$$$$$$$$$$$$$$$$$$$$$$$$$$$$$$$$$$$oooooo",
"oooooo$$$$$$$$$$$$$$$$$$$$$$$$$$$$$$$$$$$$$$$$$$$$$$$$$$$$$$$$$$$$$$$$$$$$$$$$$$$$$$$$$$$$oooooo",
"oooooo$$$$$$$$$$$$$$$$$$$$$$$$$$$$$$$$$$$$$$$$$$$$$$$$$$$$$$$$$$$$$$$$$$$$$$$$$$$$$$$$$$$$oooooo",
"oooooo$$$$$$$$$$$$$$$$$$$$$$$$$$$$$$$$$$$$$$$$$$$$$$$$$$$$$$$$$$$$$$$$$$$$$$$$$$$$$$$$$$$$oooooo",
"oooooo$$$$$$$$$$$$$$$$$$$$$$$$$$$$$$$$$$$$$$$$$$$$$$$$$$$$$$$$$$$$$$$$$$$$$$$$$$$$$$$$$$$$oooooo",
"oooooo$$$$$$$$$$$$$$$$$$$$$$$$$$$$$$$$$$$$$$$$$$$$$$$$$$$$$$$$$$$$$$$$$$$$$$$$$$$$$$$$$$$$oooooo",
"oooooo$$$$$$$$$$$$$$$$$$$$$$$$$$$$$$$$$$$$$$$$$$$$$$$$$$$$$$$$$$$$$$$$$$$$$$$$$$$$$$$$$$$$oooooo",
"oooooo$$$$$$$$$$$$$$$$$$$$$$$$$$$$$$$$$$$$$$$$$$$$$$$$$$$$$$$$$$$$$$$$$$$$$$$$$$$$$$$$$$$$oooooo",
"oooooo$$$$$$$$$$$$$$$$$$$$$$$$$$$$$$$$$$$$$$$$$$$$$$$$$$$$$$$$$$$$$$$$$$$$$$$$$$$$$$$$$$$$oooooo",
"oooooo%%%%%%%%%%%%%%%%%%%%%%%%%%%%%%%%%%%%%%%%%%%%%%%%%%%%%%%%%%%%%%%%%%%%%%%%%%%%%%%%%%%%oooooo",
"oooooo%%%%%%%%%%%%%%%%%%%%%%%%%%%%%%%%%%%%%%%%%%%%%%%%%%%%%%%%%%%%%%%%%%%%%%%%%%%%%%%%%%%%oooooo",
"oooooo%%%%%%%%%%%%%%%%%%%%%%%%%%%%%%%%%%%%%%%%%%%%%%%%%%%%%%%%%%%%%%%%%%%%%%%%%%%%%%%%%%%%oooooo",
"oooooo%%%%%%%%%%%%%%%%%%%%%%%%%%%%%%%%%%%%%%%%%%%%%%%%%%%%%%%%%%%%%%%%%%%%%%%%%%%%%%%%%%%%oooooo",
"oooooo%%%%%%%%%%%%%%%%%%%%%%%%%%%%%%%%%%%%%%%%%%%%%%%%%%%%%%%%%%%%%%%%%%%%%%%%%%%%%%%%%%%%oooooo",
"oooooo%%%%%%%%%%%%%%%%%%%%%%%%%%%%%%%%%%%%%%%%%%%%%%%%%%%%%%%%%%%%%%%%%%%%%%%%%%%%%%%%%%%%oooooo",
"......@@@@@@@@@@@@@@@@@@@@@@@@@@@@@@@@@@@@@@@@@@@@@@@@@@@@@@@@@@@@@@@@@@@@@@@@@@@@@@@@@@@@......",
"......@@@@@@@@@@@@@@@@@@@@@@@@@@@@@@@@@@@@@@@@@@@@@@@@@@@@@@@@@@@@@@@@@@@@@@@@@@@@@@@@@@@@......",
"......@@@@@@@@@@@@@@@@@@@@@@@@@@@@@@@@@@@@@@@@@@@@@@@@@@@@@@@@@@@@@@@@@@@@@@@@@@@@@@@@@@@@......",
"......@@@@@@@@@@@@@@@@@@@@@@@@@@@@@@@@@@@@@@@@@@@@@@@@@@@@@@@@@@@@@@@@@@@@@@@@@@@@@@@@@@@@......",
"......@@@@@@@@@@@@@@@@@@@@@@@@@@@@@@@@@@@@@@@@@@@@@@@@@@@@@@@@@@@@@@@@@@@@@@@@@@@@@@@@@@@@......",
"......@@@@@@@@@@@@@@@@@@@@@@@@@@@@@@@@@@@@@@@@@@@@@@@@@@@@@@@@@@@@@@@@@@@@@@@@@@@@@@@@@@@@......",
"......@@@@@@@@@@@@@@@@@@@@@@@@@@@@@@@@@@@@@@@@@@@@@@@@@@@@@@@@@@@@@@@@@@@@@@@@@@@@@@@@@@@@oooooo",
"......@@@@@@@@@@@@@@@@@@@@@@@@@@@@@@@@@@@@@@@@@@@@@@@@@@@@@@@@@@@@@@@@@@@@@@@@@@@@@@@@@@@@oooooo",
"......@@@@@@@@@@@@@@@@@@@@@@@@@@@@@@@@@@@@@@@@@@@@@@@@@@@@@@@@@@@@@@@@@@@@@@@@@@@@@@@@@@@@oooooo",
"......@@@@@@@@@@@@@@@@@@@@@@@@@@@@@@@@@@@@@@@@@@@@@@@@@@@@@@@@@@@@@@@@@@@@@@@@@@@@@@@@@@@@oooooo",
"......@@@@@@@@@@@@@@@@@@@@@@@@@@@@@@@@@@@@@@@@@@@@@@@@@@@@@@@@@@@@@@@@@@@@@@@@@@@@@@@@@@@@oooooo",
"......@@@@@@@@@@@@@@@@@@@@@@@@@@@@@@@@@@@@@@@@@@@@@@@@@@@@@@@@@@@@@@@@@@@@@@@@@@@@@@@@@@@@oooooo",
"......OOOOOO@@@@@@@@@@@@@@@@@@@@@@@@@@@@@@@@@@@@@@@@@@@@@@@@@@@@@@@@@@@@@@@@@@@@@@@@OOOOOO......",
"......OOOOOO@@@@@@@@@@@@@@@@@@@@@@@@@@@@@@@@@@@@@@@@@@@@@@@@@@@@@@@@@@@@@@@@@@@@@@@@OOOOOO......",
"......OOOOOO@@@@@@@@@@@@@@@@@@@@@@@@@@@@@@@@@@@@@@@@@@@@@@@@@@@@@@@@@@@@@@@@@@@@@@@@OOOOOO......",
"......OOOOOO@@@@@@@@@@@@@@@@@@@@@@@@@@@@@@@@@@@@@@@@@@@@@@@@@@@@@@@@@@@@@@@@@@@@@@@@OOOOOO......",
"......OOOOOO@@@@@@@@@@@@@@@@@@@@@@@@@@@@@@@@@@@@@@@@@@@@@@@@@@@@@@@@@@@@@@@@@@@@@@@@OOOOOO......",
"......OOOOOO@@@@@@@@@@@@@@@@@@@@@@@@@@@@@@@@@@@@@@@@@@@@@@@@@@@@@@@@@@@@@@@@@@@@@@@@OOOOOO......",
"      ..........................................................................................",
"      ..........................................................................................",
"      ..........................................................................................",
"      ..........................................................................................",
"      ..........................................................................................",
"      ..........................................................................................",
"......OOOOOO@@@@@@@@@@@@@@@@@@@@@@@@OOOOOO......OOOOOO@@@@@@@@@@@@@@@@@@@@@@@@@@@@@@OOOOOO......",
"......OOOOOO@@@@@@@@@@@@@@@@@@@@@@@@OOOOOO......OOOOOO@@@@@@@@@@@@@@@@@@@@@@@@@@@@@@OOOOOO......",
"......OOOOOO@@@@@@@@@@@@@@@@@@@@@@@@OOOOOO......OOOOOO@@@@@@@@@@@@@@@@@@@@@@@@@@@@@@OOOOOO......",
"......OOOOOO@@@@@@@@@@@@@@@@@@@@@@@@OOOOOO......OOOOOO@@@@@@@@@@@@@@@@@@@@@@@@@@@@@@OOOOOO......",
"......OOOOOO@@@@@@@@@@@@@@@@@@@@@@@@OOOOOO......OOOOOO@@@@@@@@@@@@@@@@@@@@@@@@@@@@@@OOOOOO......",
"......OOOOOO@@@@@@@@@@@@@@@@@@@@@@@@OOOOOO......OOOOOO@@@@@@@@@@@@@@@@@@@@@@@@@@@@@@OOOOOO......",
"......@@@@@@@@@@@@@@@@@@@@@@@@@@@@@@@@@@@@......@@@@@@@@@@@@@@@@@@@@@@@@@@@@@@@@@@@@@@@@@@      ",
"......@@@@@@@@@@@@@@@@@@@@@@@@@@@@@@@@@@@@......@@@@@@@@@@@@@@@@@@@@@@@@@@@@@@@@@@@@@@@@@@      ",
"......@@@@@@@@@@@@@@@@@@@@@@@@@@@@@@@@@@@@......@@@@@@@@@@@@@@@@@@@@@@@@@@@@@@@@@@@@@@@@@@      ",
"......@@@@@@@@@@@@@@@@@@@@@@@@@@@@@@@@@@@@......@@@@@@@@@@@@@@@@@@@@@@@@@@@@@@@@@@@@@@@@@@      ",
"......@@@@@@@@@@@@@@@@@@@@@@@@@@@@@@@@@@@@......@@@@@@@@@@@@@@@@@@@@@@@@@@@@@@@@@@@@@@@@@@      ",
"......@@@@@@@@@@@@@@@@@@@@@@@@@@@@@@@@@@@@......@@@@@@@@@@@@@@@@@@@@@@@@@@@@@@@@@@@@@@@@@@      ",
"      OOOOOO@@@@@@@@@@@@@@@@@@@@@@@@OOOOOO      OOOOOO@@@@@@@@@@@@@@@@@@@@@@@@@@@@@@OOOOOO......",
"      OOOOOO@@@@@@@@@@@@@@@@@@@@@@@@OOOOOO      OOOOOO@@@@@@@@@@@@@@@@@@@@@@@@@@@@@@OOOOOO......",
"      OOOOOO@@@@@@@@@@@@@@@@@@@@@@@@OOOOOO      OOOOOO@@@@@@@@@@@@@@@@@@@@@@@@@@@@@@OOOOOO......",
"      OOOOOO@@@@@@@@@@@@@@@@@@@@@@@@OOOOOO      OOOOOO@@@@@@@@@@@@@@@@@@@@@@@@@@@@@@OOOOOO......",
"      OOOOOO@@@@@@@@@@@@@@@@@@@@@@@@OOOOOO      OOOOOO@@@@@@@@@@@@@@@@@@@@@@@@@@@@@@OOOOOO......",
"      OOOOOO@@@@@@@@@@@@@@@@@@@@@@@@OOOOOO      OOOOOO@@@@@@@@@@@@@@@@@@@@@@@@@@@@@@OOOOOO......",
"..................                                                            ............      ",
"..................                                                            ............      ",
"..................                                                            ............      ",
"..................                                                            ............      ",
"..................                                                            ............      ",
"..................                                                            ............      ",
"      XXXXXX++++++++++++++++++++++++++++++++++++++++++++++++++++++++++++++++++++++++XXXXXX......",
"      XXXXXX++++++++++++++++++++++++++++++++++++++++++++++++++++++++++++++++++++++++XXXXXX......",
"      XXXXXX++++++++++++++++++++++++++++++++++++++++++++++++++++++++++++++++++++++++XXXXXX......",
"      XXXXXX++++++++++++++++++++++++++++++++++++++++++++++++++++++++++++++++++++++++XXXXXX......",
"      XXXXXX++++++++++++++++++++++++++++++++++++++++++++++++++++++++++++++++++++++++XXXXXX......",
"      XXXXXX++++++++++++++++++++++++++++++++++++++++++++++++++++++++++++++++++++++++XXXXXX......",
"      ++++++++++++++++++++++++++++++++++++++++++++++++++++++++++++++++++++++++++++++++++++      ",
"      ++++++++++++++++++++++++++++++++++++++++++++++++++++++++++++++++++++++++++++++++++++      ",
"      ++++++++++++++++++++++++++++++++++++++++++++++++++++++++++++++++++++++++++++++++++++      ",
"      ++++++++++++++++++++++++++++++++++++++++++++++++++++++++++++++++++++++++++++++++++++      ",
"      ++++++++++++++++++++++++++++++++++++++++++++++++++++++++++++++++++++++++++++++++++++      ",
"      ++++++++++++++++++++++++++++++++++++++++++++++++++++++++++++++++++++++++++++++++++++      ",
"      XXXXXXXXXXXXXXXXXXXXXXXXXXXXXXXXXXXXXXXXXXXXXXXXXXXXXXXXXXXXXXXXXXXXXXXXXXXXXXXXXXXX      ",
"      XXXXXXXXXXXXXXXXXXXXXXXXXXXXXXXXXXXXXXXXXXXXXXXXXXXXXXXXXXXXXXXXXXXXXXXXXXXXXXXXXXXX      ",
"      XXXXXXXXXXXXXXXXXXXXXXXXXXXXXXXXXXXXXXXXXXXXXXXXXXXXXXXXXXXXXXXXXXXXXXXXXXXXXXXXXXXX      ",
"      XXXXXXXXXXXXXXXXXXXXXXXXXXXXXXXXXXXXXXXXXXXXXXXXXXXXXXXXXXXXXXXXXXXXXXXXXXXXXXXXXXXX      ",
"      XXXXXXXXXXXXXXXXXXXXXXXXXXXXXXXXXXXXXXXXXXXXXXXXXXXXXXXXXXXXXXXXXXXXXXXXXXXXXXXXXXXX      ",
"      XXXXXXXXXXXXXXXXXXXXXXXXXXXXXXXXXXXXXXXXXXXXXXXXXXXXXXXXXXXXXXXXXXXXXXXXXXXXXXXXXXXX      ",
"                                                                                                ",
"                                                                                                ",
"                                                                                                ",
"                                                                                                ",
"                                                                                                ",
"                                                                                                "
};
