/* XPM */
static char *result[] = {
/* columns rows colors chars-per-pixel */
"16 16 10 1 ",
"  c #25131A",
". c #3D253B",
"X c #422C3B",
"o c #4C2F49",
"O c #483040",
"+ c #4F3740",
"@ c #543740",
"# c #593756",
"$ c #6E4A48",
"% c #78514F",
/* pixels */
"#o#######ooooooo",
"o$$$$$$$$$$$$$$o",
"o$$$$$$$$$$$$$$o",
"o%%%%%%%%%%%%%%o",
".@@@@@@@@@@@@@@.",
".@@@@@@@@@@@@@@o",
".O@@@@@@@@@@@@O.",
" ...............",
".O@@@@O.O@@@@@O.",
".@@@@@@.@@@@@@@ ",
" O@@@@O O@@@@@O.",
"...          .. ",
" X++++++++++++X.",
" ++++++++++++++ ",
" XXXXXXXXXXXXXX ",
"                "
};
