/* XPM */
static char *result[] = {
/* columns rows colors chars-per-pixel */
"96 96 7 1 ",
"  c #25131A",
". c #523B40",
"X c #895A45",
"o c #BF704D",
"O c #90919E",
"+ c #ADC1CF",
"@ c None",
/* pixels */
"@@@@@@@@@@@@@@@@@@oooooooooooo@@@@@@@@@@@@@@@@@@@@@@@@@@@@@@@@@@@@oooooooooooo@@@@@@@@@@@@@@@@@@",
"@@@@@@@@@@@@@@@@@@oooooooooooo@@@@@@@@@@@@@@@@@@@@@@@@@@@@@@@@@@@@oooooooooooo@@@@@@@@@@@@@@@@@@",
"@@@@@@@@@@@@@@@@@@oooooooooooo@@@@@@@@@@@@@@@@@@@@@@@@@@@@@@@@@@@@oooooooooooo@@@@@@@@@@@@@@@@@@",
"@@@@@@@@@@@@@@@@@@oooooooooooo@@@@@@@@@@@@@@@@@@@@@@@@@@@@@@@@@@@@oooooooooooo@@@@@@@@@@@@@@@@@@",
"@@@@@@@@@@@@@@@@@@oooooooooooo@@@@@@@@@@@@@@@@@@@@@@@@@@@@@@@@@@@@oooooooooooo@@@@@@@@@@@@@@@@@@",
"@@@@@@@@@@@@@@@@@@oooooooooooo@@@@@@@@@@@@@@@@@@@@@@@@@@@@@@@@@@@@oooooooooooo@@@@@@@@@@@@@@@@@@",
"@@@@@@@@@@@@@@@@@@XXXXXXXXXXXX@@@@@@@@@@@@@@@@@@@@@@@@@@@@@@@@@@@@XXXXXXXXXXXX@@@@@@@@@@@@@@@@@@",
"@@@@@@@@@@@@@@@@@@XXXXXXXXXXXX@@@@@@@@@@@@@@@@@@@@@@@@@@@@@@@@@@@@XXXXXXXXXXXX@@@@@@@@@@@@@@@@@@",
"@@@@@@@@@@@@@@@@@@XXXXXXXXXXXX@@@@@@@@@@@@@@@@@@@@@@@@@@@@@@@@@@@@XXXXXXXXXXXX@@@@@@@@@@@@@@@@@@",
"@@@@@@@@@@@@@@@@@@XXXXXXXXXXXX@@@@@@@@@@@@@@@@@@@@@@@@@@@@@@@@@@@@XXXXXXXXXXXX@@@@@@@@@@@@@@@@@@",
"@@@@@@@@@@@@@@@@@@XXXXXXXXXXXX@@@@@@@@@@@@@@@@@@@@@@@@@@@@@@@@@@@@XXXXXXXXXXXX@@@@@@@@@@@@@@@@@@",
"@@@@@@@@@@@@@@@@@@XXXXXXXXXXXX@@@@@@@@@@@@@@@@@@@@@@@@@@@@@@@@@@@@XXXXXXXXXXXX@@@@@@@@@@@@@@@@@@",
"@@@@@@@@@@@@@@@@@@XXXXXXXXXXXX@@@@@@@@@@@@@@@@@@@@@@@@@@@@@@@@@@@@XXXXXXXXXXXX@@@@@@@@@@@@@@@@@@",
"@@@@@@@@@@@@@@@@@@XXXXXXXXXXXX@@@@@@@@@@@@@@@@@@@@@@@@@@@@@@@@@@@@XXXXXXXXXXXX@@@@@@@@@@@@@@@@@@",
"@@@@@@@@@@@@@@@@@@XXXXXXXXXXXX@@@@@@@@@@@@@@@@@@@@@@@@@@@@@@@@@@@@XXXXXXXXXXXX@@@@@@@@@@@@@@@@@@",
"@@@@@@@@@@@@@@@@@@XXXXXXXXXXXX@@@@@@@@@@@@@@@@@@@@@@@@@@@@@@@@@@@@XXXXXXXXXXXX@@@@@@@@@@@@@@@@@@",
"@@@@@@@@@@@@@@@@@@XXXXXXXXXXXX@@@@@@@@@@@@@@@@@@@@@@@@@@@@@@@@@@@@XXXXXXXXXXXX@@@@@@@@@@@@@@@@@@",
"@@@@@@@@@@@@@@@@@@XXXXXXXXXXXX@@@@@@@@@@@@@@@@@@@@@@@@@@@@@@@@@@@@XXXXXXXXXXXX@@@@@@@@@@@@@@@@@@",
"            ooooooOOOOOO++++++oooooooooooooooooooooooooooooooooooo++++++OOOOOOoooooo            ",
"            ooooooOOOOOO++++++oooooooooooooooooooooooooooooooooooo++++++OOOOOOoooooo            ",
"            ooooooOOOOOO++++++oooooooooooooooooooooooooooooooooooo++++++OOOOOOoooooo            ",
"            ooooooOOOOOO++++++oooooooooooooooooooooooooooooooooooo++++++OOOOOOoooooo            ",
"            ooooooOOOOOO++++++oooooooooooooooooooooooooooooooooooo++++++OOOOOOoooooo            ",
"            ooooooOOOOOO++++++oooooooooooooooooooooooooooooooooooo++++++OOOOOOoooooo            ",
"            XXXXXXXXXXXXXXXXXXXXXXXXXXXXXXXXXXXXXXXXXXXXXXXXXXXXXXXXXXXXXXXXXXXXXXXX            ",
"            XXXXXXXXXXXXXXXXXXXXXXXXXXXXXXXXXXXXXXXXXXXXXXXXXXXXXXXXXXXXXXXXXXXXXXXX            ",
"            XXXXXXXXXXXXXXXXXXXXXXXXXXXXXXXXXXXXXXXXXXXXXXXXXXXXXXXXXXXXXXXXXXXXXXXX            ",
"            XXXXXXXXXXXXXXXXXXXXXXXXXXXXXXXXXXXXXXXXXXXXXXXXXXXXXXXXXXXXXXXXXXXXXXXX            ",
"            XXXXXXXXXXXXXXXXXXXXXXXXXXXXXXXXXXXXXXXXXXXXXXXXXXXXXXXXXXXXXXXXXXXXXXXX            ",
"            XXXXXXXXXXXXXXXXXXXXXXXXXXXXXXXXXXXXXXXXXXXXXXXXXXXXXXXXXXXXXXXXXXXXXXXX            ",
"                  ............                                    ............                  ",
"                  ............                                    ............                  ",
"                  ............                                    ............                  ",
"                  ............                                    ............                  ",
"                  ............                                    ............                  ",
"                  ............                                    ............                  ",
"                  XXXXXXXXXXXX                                    XXXXXXXXXXXX                  ",
"                  XXXXXXXXXXXX                                    XXXXXXXXXXXX                  ",
"                  XXXXXXXXXXXX                                    XXXXXXXXXXXX                  ",
"                  XXXXXXXXXXXX                                    XXXXXXXXXXXX                  ",
"                  XXXXXXXXXXXX                                    XXXXXXXXXXXX                  ",
"                  XXXXXXXXXXXX                                    XXXXXXXXXXXX                  ",
"                  XXXXXXXXXXXX                                    XXXXXXXXXXXX                  ",
"                  XXXXXXXXXXXX                                    XXXXXXXXXXXX                  ",
"                  XXXXXXXXXXXX                                    XXXXXXXXXXXX                  ",
"                  XXXXXXXXXXXX                                    XXXXXXXXXXXX                  ",
"                  XXXXXXXXXXXX                                    XXXXXXXXXXXX                  ",
"                  XXXXXXXXXXXX                                    XXXXXXXXXXXX                  ",
"                  XXXXXXXXXXXX                                    XXXXXXXXXXXX                  ",
"                  XXXXXXXXXXXX                                    XXXXXXXXXXXX                  ",
"                  XXXXXXXXXXXX                                    XXXXXXXXXXXX                  ",
"                  XXXXXXXXXXXX                                    XXXXXXXXXXXX                  ",
"                  XXXXXXXXXXXX                                    XXXXXXXXXXXX                  ",
"                  XXXXXXXXXXXX                                    XXXXXXXXXXXX                  ",
"                  XXXXXXXXXXXX                                    XXXXXXXXXXXX                  ",
"                  XXXXXXXXXXXX                                    XXXXXXXXXXXX                  ",
"                  XXXXXXXXXXXX                                    XXXXXXXXXXXX                  ",
"                  XXXXXXXXXXXX                                    XXXXXXXXXXXX                  ",
"                  XXXXXXXXXXXX                                    XXXXXXXXXXXX                  ",
"                  XXXXXXXXXXXX                                    XXXXXXXXXXXX                  ",
"                  XXXXXXXXXXXX                                    XXXXXXXXXXXX                  ",
"                  XXXXXXXXXXXX                                    XXXXXXXXXXXX                  ",
"                  XXXXXXXXXXXX                                    XXXXXXXXXXXX                  ",
"                  XXXXXXXXXXXX                                    XXXXXXXXXXXX                  ",
"                  XXXXXXXXXXXX                                    XXXXXXXXXXXX                  ",
"                  XXXXXXXXXXXX                                    XXXXXXXXXXXX                  ",
"            ooooooOOOOOO++++++oooooooooooooooooooooooooooooooooooo++++++OOOOOOoooooo            ",
"            ooooooOOOOOO++++++oooooooooooooooooooooooooooooooooooo++++++OOOOOOoooooo            ",
"            ooooooOOOOOO++++++oooooooooooooooooooooooooooooooooooo++++++OOOOOOoooooo            ",
"            ooooooOOOOOO++++++oooooooooooooooooooooooooooooooooooo++++++OOOOOOoooooo            ",
"            ooooooOOOOOO++++++oooooooooooooooooooooooooooooooooooo++++++OOOOOOoooooo            ",
"            ooooooOOOOOO++++++oooooooooooooooooooooooooooooooooooo++++++OOOOOOoooooo            ",
"            XXXXXXXXXXXXXXXXXXXXXXXXXXXXXXXXXXXXXXXXXXXXXXXXXXXXXXXXXXXXXXXXXXXXXXXX            ",
"            XXXXXXXXXXXXXXXXXXXXXXXXXXXXXXXXXXXXXXXXXXXXXXXXXXXXXXXXXXXXXXXXXXXXXXXX            ",
"            XXXXXXXXXXXXXXXXXXXXXXXXXXXXXXXXXXXXXXXXXXXXXXXXXXXXXXXXXXXXXXXXXXXXXXXX            ",
"            XXXXXXXXXXXXXXXXXXXXXXXXXXXXXXXXXXXXXXXXXXXXXXXXXXXXXXXXXXXXXXXXXXXXXXXX            ",
"            XXXXXXXXXXXXXXXXXXXXXXXXXXXXXXXXXXXXXXXXXXXXXXXXXXXXXXXXXXXXXXXXXXXXXXXX            ",
"            XXXXXXXXXXXXXXXXXXXXXXXXXXXXXXXXXXXXXXXXXXXXXXXXXXXXXXXXXXXXXXXXXXXXXXXX            ",
"                  ............                                    ............                  ",
"                  ............                                    ............                  ",
"                  ............                                    ............                  ",
"                  ............                                    ............                  ",
"                  ............                                    ............                  ",
"                  ............                                    ............                  ",
"                  XXXXXXXXXXXX                                    XXXXXXXXXXXX                  ",
"                  XXXXXXXXXXXX                                    XXXXXXXXXXXX                  ",
"                  XXXXXXXXXXXX                                    XXXXXXXXXXXX                  ",
"                  XXXXXXXXXXXX                                    XXXXXXXXXXXX                  ",
"                  XXXXXXXXXXXX                                    XXXXXXXXXXXX                  ",
"                  XXXXXXXXXXXX                                    XXXXXXXXXXXX                  ",
"                  XXXXXXXXXXXX                                    XXXXXXXXXXXX                  ",
"                  XXXXXXXXXXXX                                    XXXXXXXXXXXX                  ",
"                  XXXXXXXXXXXX                                    XXXXXXXXXXXX                  ",
"                  XXXXXXXXXXXX                                    XXXXXXXXXXXX                  ",
"                  XXXXXXXXXXXX                                    XXXXXXXXXXXX                  ",
"                  XXXXXXXXXXXX                                    XXXXXXXXXXXX                  "
};
