/* XPM */
static char *result[] = {
/* columns rows colors chars-per-pixel */
"96 96 6 1 ",
"  c #25131A",
". c #3D253B",
"X c #523B40",
"o c #895A45",
"O c #90919E",
"+ c #ADC1CF",
/* pixels */
"                                                                                                ",
"                                                                                                ",
"                                                                                                ",
"                                                                                                ",
"                                                                                                ",
"                                                                                                ",
"            OOOOOOOOOOOOOOOOOOOOOOOOOOOOOOOOOOOOOOOOOOOOOOOOOOOOOOOOOOOOOOOOOOOOOOOO            ",
"            OOOOOOOOOOOOOOOOOOOOOOOOOOOOOOOOOOOOOOOOOOOOOOOOOOOOOOOOOOOOOOOOOOOOOOOO            ",
"            OOOOOOOOOOOOOOOOOOOOOOOOOOOOOOOOOOOOOOOOOOOOOOOOOOOOOOOOOOOOOOOOOOOOOOOO            ",
"            OOOOOOOOOOOOOOOOOOOOOOOOOOOOOOOOOOOOOOOOOOOOOOOOOOOOOOOOOOOOOOOOOOOOOOOO            ",
"            OOOOOOOOOOOOOOOOOOOOOOOOOOOOOOOOOOOOOOOOOOOOOOOOOOOOOOOOOOOOOOOOOOOOOOOO            ",
"            OOOOOOOOOOOOOOOOOOOOOOOOOOOOOOOOOOOOOOOOOOOOOOOOOOOOOOOOOOOOOOOOOOOOOOOO            ",
"      OOOOOO++++++      OOOOOO++++++                        ++++++OOOOOO      ++++++OOOOOO      ",
"      OOOOOO++++++      OOOOOO++++++                        ++++++OOOOOO      ++++++OOOOOO      ",
"      OOOOOO++++++      OOOOOO++++++                        ++++++OOOOOO      ++++++OOOOOO      ",
"      OOOOOO++++++      OOOOOO++++++                        ++++++OOOOOO      ++++++OOOOOO      ",
"      OOOOOO++++++      OOOOOO++++++                        ++++++OOOOOO      ++++++OOOOOO      ",
"      OOOOOO++++++      OOOOOO++++++                        ++++++OOOOOO      ++++++OOOOOO      ",
"      OOOOOO            OOOOOO++++++XXXXXXooooooooooooXXXXXX++++++OOOOOO            OOOOOO      ",
"      OOOOOO            OOOOOO++++++XXXXXXooooooooooooXXXXXX++++++OOOOOO            OOOOOO      ",
"      OOOOOO            OOOOOO++++++XXXXXXooooooooooooXXXXXX++++++OOOOOO            OOOOOO      ",
"      OOOOOO            OOOOOO++++++XXXXXXooooooooooooXXXXXX++++++OOOOOO            OOOOOO      ",
"      OOOOOO            OOOOOO++++++XXXXXXooooooooooooXXXXXX++++++OOOOOO            OOOOOO      ",
"      OOOOOO            OOOOOO++++++XXXXXXooooooooooooXXXXXX++++++OOOOOO            OOOOOO      ",
"      ++++++      XXXXXXOOOOOO++++++++++++++++++++++++++++++++++++OOOOOOXXXXXX      ++++++      ",
"      ++++++      XXXXXXOOOOOO++++++++++++++++++++++++++++++++++++OOOOOOXXXXXX      ++++++      ",
"      ++++++      XXXXXXOOOOOO++++++++++++++++++++++++++++++++++++OOOOOOXXXXXX      ++++++      ",
"      ++++++      XXXXXXOOOOOO++++++++++++++++++++++++++++++++++++OOOOOOXXXXXX      ++++++      ",
"      ++++++      XXXXXXOOOOOO++++++++++++++++++++++++++++++++++++OOOOOOXXXXXX      ++++++      ",
"      ++++++      XXXXXXOOOOOO++++++++++++++++++++++++++++++++++++OOOOOOXXXXXX      ++++++      ",
"      ++++++      oooooo++++++++++++                        ++++++++++++oooooo      ++++++      ",
"      ++++++      oooooo++++++++++++                        ++++++++++++oooooo      ++++++      ",
"      ++++++      oooooo++++++++++++                        ++++++++++++oooooo      ++++++      ",
"      ++++++      oooooo++++++++++++                        ++++++++++++oooooo      ++++++      ",
"      ++++++      oooooo++++++++++++                        ++++++++++++oooooo      ++++++      ",
"      ++++++      oooooo++++++++++++                        ++++++++++++oooooo      ++++++      ",
"      ++++++      oooooo            XXXXXXooooooooooooXXXXXX            oooooo      ++++++      ",
"      ++++++      oooooo            XXXXXXooooooooooooXXXXXX            oooooo      ++++++      ",
"      ++++++      oooooo            XXXXXXooooooooooooXXXXXX            oooooo      ++++++      ",
"      ++++++      oooooo            XXXXXXooooooooooooXXXXXX            oooooo      ++++++      ",
"      ++++++      oooooo            XXXXXXooooooooooooXXXXXX            oooooo      ++++++      ",
"      ++++++      oooooo            XXXXXXooooooooooooXXXXXX            oooooo      ++++++      ",
"      ++++++      ooooooXXXXXXooooooXXXXXXooooooooooooXXXXXXooooooXXXXXXoooooo      ++++++      ",
"      ++++++      ooooooXXXXXXooooooXXXXXXooooooooooooXXXXXXooooooXXXXXXoooooo      ++++++      ",
"      ++++++      ooooooXXXXXXooooooXXXXXXooooooooooooXXXXXXooooooXXXXXXoooooo      ++++++      ",
"      ++++++      ooooooXXXXXXooooooXXXXXXooooooooooooXXXXXXooooooXXXXXXoooooo      ++++++      ",
"      ++++++      ooooooXXXXXXooooooXXXXXXooooooooooooXXXXXXooooooXXXXXXoooooo      ++++++      ",
"      ++++++      ooooooXXXXXXooooooXXXXXXooooooooooooXXXXXXooooooXXXXXXoooooo      ++++++      ",
"      ++++++      ooooooXXXXXXooooooXXXXXXooooooooooooXXXXXXooooooXXXXXXoooooo      ++++++      ",
"      ++++++      ooooooXXXXXXooooooXXXXXXooooooooooooXXXXXXooooooXXXXXXoooooo      ++++++      ",
"      ++++++      ooooooXXXXXXooooooXXXXXXooooooooooooXXXXXXooooooXXXXXXoooooo      ++++++      ",
"      ++++++      ooooooXXXXXXooooooXXXXXXooooooooooooXXXXXXooooooXXXXXXoooooo      ++++++      ",
"      ++++++      ooooooXXXXXXooooooXXXXXXooooooooooooXXXXXXooooooXXXXXXoooooo      ++++++      ",
"      ++++++      ooooooXXXXXXooooooXXXXXXooooooooooooXXXXXXooooooXXXXXXoooooo      ++++++      ",
"      ++++++      ooooooXXXXXXooooooXXXXXXooooooooooooXXXXXXooooooXXXXXXoooooo      ++++++      ",
"      ++++++      ooooooXXXXXXooooooXXXXXXooooooooooooXXXXXXooooooXXXXXXoooooo      ++++++      ",
"      ++++++      ooooooXXXXXXooooooXXXXXXooooooooooooXXXXXXooooooXXXXXXoooooo      ++++++      ",
"      ++++++      ooooooXXXXXXooooooXXXXXXooooooooooooXXXXXXooooooXXXXXXoooooo      ++++++      ",
"      ++++++      ooooooXXXXXXooooooXXXXXXooooooooooooXXXXXXooooooXXXXXXoooooo      ++++++      ",
"      ++++++      ooooooXXXXXXooooooXXXXXXooooooooooooXXXXXXooooooXXXXXXoooooo      ++++++      ",
"      OOOOOO      ooooooXXXXXXooooooXXXXXXooooooooooooXXXXXXooooooXXXXXXoooooo      OOOOOO      ",
"      OOOOOO      ooooooXXXXXXooooooXXXXXXooooooooooooXXXXXXooooooXXXXXXoooooo      OOOOOO      ",
"      OOOOOO      ooooooXXXXXXooooooXXXXXXooooooooooooXXXXXXooooooXXXXXXoooooo      OOOOOO      ",
"      OOOOOO      ooooooXXXXXXooooooXXXXXXooooooooooooXXXXXXooooooXXXXXXoooooo      OOOOOO      ",
"      OOOOOO      ooooooXXXXXXooooooXXXXXXooooooooooooXXXXXXooooooXXXXXXoooooo      OOOOOO      ",
"      OOOOOO      ooooooXXXXXXooooooXXXXXXooooooooooooXXXXXXooooooXXXXXXoooooo      OOOOOO      ",
"      ++++++      ooooooXXXXXXooooooXXXXXXooooooooooooXXXXXXooooooXXXXXXoooooo      ++++++      ",
"      ++++++      ooooooXXXXXXooooooXXXXXXooooooooooooXXXXXXooooooXXXXXXoooooo      ++++++      ",
"      ++++++      ooooooXXXXXXooooooXXXXXXooooooooooooXXXXXXooooooXXXXXXoooooo      ++++++      ",
"      ++++++      ooooooXXXXXXooooooXXXXXXooooooooooooXXXXXXooooooXXXXXXoooooo      ++++++      ",
"      ++++++      ooooooXXXXXXooooooXXXXXXooooooooooooXXXXXXooooooXXXXXXoooooo      ++++++      ",
"      ++++++      ooooooXXXXXXooooooXXXXXXooooooooooooXXXXXXooooooXXXXXXoooooo      ++++++      ",
"      OOOOOO      XXXXXXXXXXXXXXXXXXXXXXXXXXXXXXXXXXXXXXXXXXXXXXXXXXXXXXXXXXXX      OOOOOO      ",
"      OOOOOO      XXXXXXXXXXXXXXXXXXXXXXXXXXXXXXXXXXXXXXXXXXXXXXXXXXXXXXXXXXXX      OOOOOO      ",
"      OOOOOO      XXXXXXXXXXXXXXXXXXXXXXXXXXXXXXXXXXXXXXXXXXXXXXXXXXXXXXXXXXXX      OOOOOO      ",
"      OOOOOO      XXXXXXXXXXXXXXXXXXXXXXXXXXXXXXXXXXXXXXXXXXXXXXXXXXXXXXXXXXXX      OOOOOO      ",
"      OOOOOO      XXXXXXXXXXXXXXXXXXXXXXXXXXXXXXXXXXXXXXXXXXXXXXXXXXXXXXXXXXXX      OOOOOO      ",
"      OOOOOO      XXXXXXXXXXXXXXXXXXXXXXXXXXXXXXXXXXXXXXXXXXXXXXXXXXXXXXXXXXXX      OOOOOO      ",
"      OOOOOO++++++                                                            ++++++OOOOOO      ",
"      OOOOOO++++++                                                            ++++++OOOOOO      ",
"      OOOOOO++++++                                                            ++++++OOOOOO      ",
"      OOOOOO++++++                                                            ++++++OOOOOO      ",
"      OOOOOO++++++                                                            ++++++OOOOOO      ",
"      OOOOOO++++++                                                            ++++++OOOOOO      ",
"            OOOOOOOOOOOOOOOOOOOOOOOOOOOOOOOOOOOOOOOOOOOOOOOOOOOOOOOOOOOOOOOOOOOOOOOO            ",
"            OOOOOOOOOOOOOOOOOOOOOOOOOOOOOOOOOOOOOOOOOOOOOOOOOOOOOOOOOOOOOOOOOOOOOOOO            ",
"            OOOOOOOOOOOOOOOOOOOOOOOOOOOOOOOOOOOOOOOOOOOOOOOOOOOOOOOOOOOOOOOOOOOOOOOO            ",
"            OOOOOOOOOOOOOOOOOOOOOOOOOOOOOOOOOOOOOOOOOOOOOOOOOOOOOOOOOOOOOOOOOOOOOOOO            ",
"            OOOOOOOOOOOOOOOOOOOOOOOOOOOOOOOOOOOOOOOOOOOOOOOOOOOOOOOOOOOOOOOOOOOOOOOO            ",
"            OOOOOOOOOOOOOOOOOOOOOOOOOOOOOOOOOOOOOOOOOOOOOOOOOOOOOOOOOOOOOOOOOOOOOOOO            ",
"......                                                                                    ......",
"......                                                                                    ......",
"......                                                                                    ......",
"......                                                                                    ......",
"......                                                                                    ......",
"......                                                                                    ......"
};
