/* XPM */
static char *result[] = {
/* columns rows colors chars-per-pixel */
"96 96 7 1 ",
"  c black",
". c #25131A",
"X c #3D253B",
"o c #523B40",
"O c #895A45",
"+ c #90919E",
"@ c #ADC1CF",
/* pixels */
"................................................................................................",
"................................................................................................",
"................................................................................................",
"................................................................................................",
"................................................................................................",
"................................................................................................",
"......@@@@@@......OOOOOO@@@@@@@@@@@@........................@@@@@@@@@@@@OOOOOO......@@@@@@......",
"......@@@@@@......OOOOOO@@@@@@@@@@@@........................@@@@@@@@@@@@OOOOOO......@@@@@@......",
"......@@@@@@......OOOOOO@@@@@@@@@@@@........................@@@@@@@@@@@@OOOOOO......@@@@@@......",
"......@@@@@@......OOOOOO@@@@@@@@@@@@........................@@@@@@@@@@@@OOOOOO......@@@@@@......",
"......@@@@@@......OOOOOO@@@@@@@@@@@@........................@@@@@@@@@@@@OOOOOO......@@@@@@......",
"......@@@@@@......OOOOOO@@@@@@@@@@@@........................@@@@@@@@@@@@OOOOOO......@@@@@@......",
"......@@@@@@......OOOOOO............ooooooOOOOOOOOOOOOoooooo............OOOOOO......@@@@@@......",
"......@@@@@@......OOOOOO............ooooooOOOOOOOOOOOOoooooo............OOOOOO......@@@@@@......",
"......@@@@@@......OOOOOO............ooooooOOOOOOOOOOOOoooooo............OOOOOO......@@@@@@......",
"......@@@@@@......OOOOOO............ooooooOOOOOOOOOOOOoooooo............OOOOOO......@@@@@@......",
"......@@@@@@......OOOOOO............ooooooOOOOOOOOOOOOoooooo............OOOOOO......@@@@@@......",
"......@@@@@@......OOOOOO............ooooooOOOOOOOOOOOOoooooo............OOOOOO......@@@@@@......",
"......@@@@@@......OOOOOOooooooOOOOOOooooooOOOOOOOOOOOOooooooOOOOOOooooooOOOOOO......@@@@@@......",
"......@@@@@@......OOOOOOooooooOOOOOOooooooOOOOOOOOOOOOooooooOOOOOOooooooOOOOOO......@@@@@@......",
"......@@@@@@......OOOOOOooooooOOOOOOooooooOOOOOOOOOOOOooooooOOOOOOooooooOOOOOO......@@@@@@......",
"......@@@@@@......OOOOOOooooooOOOOOOooooooOOOOOOOOOOOOooooooOOOOOOooooooOOOOOO......@@@@@@......",
"......@@@@@@......OOOOOOooooooOOOOOOooooooOOOOOOOOOOOOooooooOOOOOOooooooOOOOOO......@@@@@@......",
"......@@@@@@......OOOOOOooooooOOOOOOooooooOOOOOOOOOOOOooooooOOOOOOooooooOOOOOO......@@@@@@......",
"......@@@@@@......OOOOOOooooooOOOOOOooooooOOOOOOOOOOOOooooooOOOOOOooooooOOOOOO......@@@@@@......",
"......@@@@@@......OOOOOOooooooOOOOOOooooooOOOOOOOOOOOOooooooOOOOOOooooooOOOOOO......@@@@@@......",
"......@@@@@@......OOOOOOooooooOOOOOOooooooOOOOOOOOOOOOooooooOOOOOOooooooOOOOOO......@@@@@@......",
"......@@@@@@......OOOOOOooooooOOOOOOooooooOOOOOOOOOOOOooooooOOOOOOooooooOOOOOO......@@@@@@......",
"......@@@@@@......OOOOOOooooooOOOOOOooooooOOOOOOOOOOOOooooooOOOOOOooooooOOOOOO......@@@@@@......",
"......@@@@@@......OOOOOOooooooOOOOOOooooooOOOOOOOOOOOOooooooOOOOOOooooooOOOOOO......@@@@@@......",
"......@@@@@@......OOOOOOooooooOOOOOOooooooOOOOOOOOOOOOooooooOOOOOOooooooOOOOOO......@@@@@@......",
"......@@@@@@......OOOOOOooooooOOOOOOooooooOOOOOOOOOOOOooooooOOOOOOooooooOOOOOO......@@@@@@......",
"......@@@@@@......OOOOOOooooooOOOOOOooooooOOOOOOOOOOOOooooooOOOOOOooooooOOOOOO......@@@@@@......",
"......@@@@@@......OOOOOOooooooOOOOOOooooooOOOOOOOOOOOOooooooOOOOOOooooooOOOOOO......@@@@@@......",
"......@@@@@@......OOOOOOooooooOOOOOOooooooOOOOOOOOOOOOooooooOOOOOOooooooOOOOOO......@@@@@@......",
"......@@@@@@......OOOOOOooooooOOOOOOooooooOOOOOOOOOOOOooooooOOOOOOooooooOOOOOO......@@@@@@......",
"......++++++......OOOOOOooooooOOOOOOooooooOOOOOOOOOOOOooooooOOOOOOooooooOOOOOO......++++++......",
"......++++++......OOOOOOooooooOOOOOOooooooOOOOOOOOOOOOooooooOOOOOOooooooOOOOOO......++++++......",
"......++++++......OOOOOOooooooOOOOOOooooooOOOOOOOOOOOOooooooOOOOOOooooooOOOOOO......++++++......",
"......++++++......OOOOOOooooooOOOOOOooooooOOOOOOOOOOOOooooooOOOOOOooooooOOOOOO......++++++......",
"......++++++......OOOOOOooooooOOOOOOooooooOOOOOOOOOOOOooooooOOOOOOooooooOOOOOO......++++++......",
"......++++++......OOOOOOooooooOOOOOOooooooOOOOOOOOOOOOooooooOOOOOOooooooOOOOOO......++++++......",
"......@@@@@@......OOOOOOooooooOOOOOOooooooOOOOOOOOOOOOooooooOOOOOOooooooOOOOOO......@@@@@@......",
"......@@@@@@......OOOOOOooooooOOOOOOooooooOOOOOOOOOOOOooooooOOOOOOooooooOOOOOO......@@@@@@......",
"......@@@@@@......OOOOOOooooooOOOOOOooooooOOOOOOOOOOOOooooooOOOOOOooooooOOOOOO......@@@@@@......",
"......@@@@@@......OOOOOOooooooOOOOOOooooooOOOOOOOOOOOOooooooOOOOOOooooooOOOOOO......@@@@@@......",
"......@@@@@@......OOOOOOooooooOOOOOOooooooOOOOOOOOOOOOooooooOOOOOOooooooOOOOOO......@@@@@@......",
"......@@@@@@......OOOOOOooooooOOOOOOooooooOOOOOOOOOOOOooooooOOOOOOooooooOOOOOO......@@@@@@......",
"......++++++......oooooooooooooooooooooooooooooooooooooooooooooooooooooooooooo......++++++......",
"......++++++......oooooooooooooooooooooooooooooooooooooooooooooooooooooooooooo......++++++......",
"......++++++......oooooooooooooooooooooooooooooooooooooooooooooooooooooooooooo......++++++......",
"......++++++......oooooooooooooooooooooooooooooooooooooooooooooooooooooooooooo......++++++......",
"......++++++......oooooooooooooooooooooooooooooooooooooooooooooooooooooooooooo......++++++......",
"......++++++......oooooooooooooooooooooooooooooooooooooooooooooooooooooooooooo......++++++......",
"......++++++@@@@@@............................................................@@@@@@++++++......",
"......++++++@@@@@@............................................................@@@@@@++++++......",
"......++++++@@@@@@............................................................@@@@@@++++++......",
"......++++++@@@@@@............................................................@@@@@@++++++......",
"......++++++@@@@@@............................................................@@@@@@++++++......",
"......++++++@@@@@@............................................................@@@@@@++++++......",
"............++++++++++++++++++++++++++++++++++++++++++++++++++++++++++++++++++++++++............",
"............++++++++++++++++++++++++++++++++++++++++++++++++++++++++++++++++++++++++............",
"............++++++++++++++++++++++++++++++++++++++++++++++++++++++++++++++++++++++++............",
"............++++++++++++++++++++++++++++++++++++++++++++++++++++++++++++++++++++++++............",
"............++++++++++++++++++++++++++++++++++++++++++++++++++++++++++++++++++++++++............",
"............++++++++++++++++++++++++++++++++++++++++++++++++++++++++++++++++++++++++............",
"XXXXXX....................................................................................XXXXXX",
"XXXXXX....................................................................................XXXXXX",
"XXXXXX....................................................................................XXXXXX",
"XXXXXX....................................................................................XXXXXX",
"XXXXXX....................................................................................XXXXXX",
"XXXXXX....................................................................................XXXXXX",
"XXXXXXooooooOOOOOO                                                            OOOOOOooooooXXXXXX",
"XXXXXXooooooOOOOOO                                                            OOOOOOooooooXXXXXX",
"XXXXXXooooooOOOOOO                                                            OOOOOOooooooXXXXXX",
"XXXXXXooooooOOOOOO                                                            OOOOOOooooooXXXXXX",
"XXXXXXooooooOOOOOO                                                            OOOOOOooooooXXXXXX",
"XXXXXXooooooOOOOOO                                                            OOOOOOooooooXXXXXX",
"XXXXXXooooooOOOOOOOOOOOOOOOOOOOOOOOOOOOOOOOOOOOOOOOOOOOOOOOOOOOOOOOOOOOOOOOOOOOOOOOOooooooXXXXXX",
"XXXXXXooooooOOOOOOOOOOOOOOOOOOOOOOOOOOOOOOOOOOOOOOOOOOOOOOOOOOOOOOOOOOOOOOOOOOOOOOOOooooooXXXXXX",
"XXXXXXooooooOOOOOOOOOOOOOOOOOOOOOOOOOOOOOOOOOOOOOOOOOOOOOOOOOOOOOOOOOOOOOOOOOOOOOOOOooooooXXXXXX",
"XXXXXXooooooOOOOOOOOOOOOOOOOOOOOOOOOOOOOOOOOOOOOOOOOOOOOOOOOOOOOOOOOOOOOOOOOOOOOOOOOooooooXXXXXX",
"XXXXXXooooooOOOOOOOOOOOOOOOOOOOOOOOOOOOOOOOOOOOOOOOOOOOOOOOOOOOOOOOOOOOOOOOOOOOOOOOOooooooXXXXXX",
"XXXXXXooooooOOOOOOOOOOOOOOOOOOOOOOOOOOOOOOOOOOOOOOOOOOOOOOOOOOOOOOOOOOOOOOOOOOOOOOOOooooooXXXXXX",
"XXXXXXooooooooooooooooooooooooooooooooooooooooooooooooooooooooooooooooooooooooooooooooooooXXXXXX",
"XXXXXXooooooooooooooooooooooooooooooooooooooooooooooooooooooooooooooooooooooooooooooooooooXXXXXX",
"XXXXXXooooooooooooooooooooooooooooooooooooooooooooooooooooooooooooooooooooooooooooooooooooXXXXXX",
"XXXXXXooooooooooooooooooooooooooooooooooooooooooooooooooooooooooooooooooooooooooooooooooooXXXXXX",
"XXXXXXooooooooooooooooooooooooooooooooooooooooooooooooooooooooooooooooooooooooooooooooooooXXXXXX",
"XXXXXXooooooooooooooooooooooooooooooooooooooooooooooooooooooooooooooooooooooooooooooooooooXXXXXX",
"XXXXXXXXXXXXXXXXXXXXXXXXXXXXXXXXXXXXXXXXXXXXXXXXXXXXXXXXXXXXXXXXXXXXXXXXXXXXXXXXXXXXXXXXXXXXXXXX",
"XXXXXXXXXXXXXXXXXXXXXXXXXXXXXXXXXXXXXXXXXXXXXXXXXXXXXXXXXXXXXXXXXXXXXXXXXXXXXXXXXXXXXXXXXXXXXXXX",
"XXXXXXXXXXXXXXXXXXXXXXXXXXXXXXXXXXXXXXXXXXXXXXXXXXXXXXXXXXXXXXXXXXXXXXXXXXXXXXXXXXXXXXXXXXXXXXXX",
"XXXXXXXXXXXXXXXXXXXXXXXXXXXXXXXXXXXXXXXXXXXXXXXXXXXXXXXXXXXXXXXXXXXXXXXXXXXXXXXXXXXXXXXXXXXXXXXX",
"XXXXXXXXXXXXXXXXXXXXXXXXXXXXXXXXXXXXXXXXXXXXXXXXXXXXXXXXXXXXXXXXXXXXXXXXXXXXXXXXXXXXXXXXXXXXXXXX",
"XXXXXXXXXXXXXXXXXXXXXXXXXXXXXXXXXXXXXXXXXXXXXXXXXXXXXXXXXXXXXXXXXXXXXXXXXXXXXXXXXXXXXXXXXXXXXXXX"
};
