/* XPM */
static char *result[] = {
/* columns rows colors chars-per-pixel */
"96 96 7 1 ",
"  c black",
". c #25131A",
"X c #3D253B",
"o c #523B40",
"O c #895A45",
"+ c #90919E",
"@ c #ADC1CF",
/* pixels */
"................................................................................................",
"................................................................................................",
"................................................................................................",
"................................................................................................",
"................................................................................................",
"................................................................................................",
"......++++++@@@@@@............................................................@@@@@@++++++......",
"......++++++@@@@@@............................................................@@@@@@++++++......",
"......++++++@@@@@@............................................................@@@@@@++++++......",
"......++++++@@@@@@............................................................@@@@@@++++++......",
"......++++++@@@@@@............................................................@@@@@@++++++......",
"......++++++@@@@@@............................................................@@@@@@++++++......",
"............++++++++++++++++++++++++++++++++++++++++++++++++++++++++++++++++++++++++............",
"............++++++++++++++++++++++++++++++++++++++++++++++++++++++++++++++++++++++++............",
"............++++++++++++++++++++++++++++++++++++++++++++++++++++++++++++++++++++++++............",
"............++++++++++++++++++++++++++++++++++++++++++++++++++++++++++++++++++++++++............",
"............++++++++++++++++++++++++++++++++++++++++++++++++++++++++++++++++++++++++............",
"............++++++++++++++++++++++++++++++++++++++++++++++++++++++++++++++++++++++++............",
"XXXXXX....................................................................................XXXXXX",
"XXXXXX....................................................................................XXXXXX",
"XXXXXX....................................................................................XXXXXX",
"XXXXXX....................................................................................XXXXXX",
"XXXXXX....................................................................................XXXXXX",
"XXXXXX....................................................................................XXXXXX",
"XXXXXXooooooooooooooooooooooooooooooooooooooooooooooooooooooooooooooooooooooooooooooooooooXXXXXX",
"XXXXXXooooooooooooooooooooooooooooooooooooooooooooooooooooooooooooooooooooooooooooooooooooXXXXXX",
"XXXXXXooooooooooooooooooooooooooooooooooooooooooooooooooooooooooooooooooooooooooooooooooooXXXXXX",
"XXXXXXooooooooooooooooooooooooooooooooooooooooooooooooooooooooooooooooooooooooooooooooooooXXXXXX",
"XXXXXXooooooooooooooooooooooooooooooooooooooooooooooooooooooooooooooooooooooooooooooooooooXXXXXX",
"XXXXXXooooooooooooooooooooooooooooooooooooooooooooooooooooooooooooooooooooooooooooooooooooXXXXXX",
"XXXXXXooooooOOOOOOOOOOOOOOOOOOOOOOOOOOOOOOOOOOOOOOOOOOOOOOOOOOOOOOOOOOOOOOOOOOOOOOOOooooooXXXXXX",
"XXXXXXooooooOOOOOOOOOOOOOOOOOOOOOOOOOOOOOOOOOOOOOOOOOOOOOOOOOOOOOOOOOOOOOOOOOOOOOOOOooooooXXXXXX",
"XXXXXXooooooOOOOOOOOOOOOOOOOOOOOOOOOOOOOOOOOOOOOOOOOOOOOOOOOOOOOOOOOOOOOOOOOOOOOOOOOooooooXXXXXX",
"XXXXXXooooooOOOOOOOOOOOOOOOOOOOOOOOOOOOOOOOOOOOOOOOOOOOOOOOOOOOOOOOOOOOOOOOOOOOOOOOOooooooXXXXXX",
"XXXXXXooooooOOOOOOOOOOOOOOOOOOOOOOOOOOOOOOOOOOOOOOOOOOOOOOOOOOOOOOOOOOOOOOOOOOOOOOOOooooooXXXXXX",
"XXXXXXooooooOOOOOOOOOOOOOOOOOOOOOOOOOOOOOOOOOOOOOOOOOOOOOOOOOOOOOOOOOOOOOOOOOOOOOOOOooooooXXXXXX",
"XXXXXXooooooOOOOOO                                                            OOOOOOooooooXXXXXX",
"XXXXXXooooooOOOOOO                                                            OOOOOOooooooXXXXXX",
"XXXXXXooooooOOOOOO                                                            OOOOOOooooooXXXXXX",
"XXXXXXooooooOOOOOO                                                            OOOOOOooooooXXXXXX",
"XXXXXXooooooOOOOOO                                                            OOOOOOooooooXXXXXX",
"XXXXXXooooooOOOOOO                                                            OOOOOOooooooXXXXXX",
"XXXXXXooooooOOOOOO                                                            OOOOOOooooooXXXXXX",
"XXXXXXooooooOOOOOO                                                            OOOOOOooooooXXXXXX",
"XXXXXXooooooOOOOOO                                                            OOOOOOooooooXXXXXX",
"XXXXXXooooooOOOOOO                                                            OOOOOOooooooXXXXXX",
"XXXXXXooooooOOOOOO                                                            OOOOOOooooooXXXXXX",
"XXXXXXooooooOOOOOO                                                            OOOOOOooooooXXXXXX",
"XXXXXXooooooOOOOOO                                                            OOOOOOooooooXXXXXX",
"XXXXXXooooooOOOOOO                                                            OOOOOOooooooXXXXXX",
"XXXXXXooooooOOOOOO                                                            OOOOOOooooooXXXXXX",
"XXXXXXooooooOOOOOO                                                            OOOOOOooooooXXXXXX",
"XXXXXXooooooOOOOOO                                                            OOOOOOooooooXXXXXX",
"XXXXXXooooooOOOOOO                                                            OOOOOOooooooXXXXXX",
"XXXXXXooooooOOOOOO                                                            OOOOOOooooooXXXXXX",
"XXXXXXooooooOOOOOO                                                            OOOOOOooooooXXXXXX",
"XXXXXXooooooOOOOOO                                                            OOOOOOooooooXXXXXX",
"XXXXXXooooooOOOOOO                                                            OOOOOOooooooXXXXXX",
"XXXXXXooooooOOOOOO                                                            OOOOOOooooooXXXXXX",
"XXXXXXooooooOOOOOO                                                            OOOOOOooooooXXXXXX",
"XXXXXXooooooOOOOOO                                                            OOOOOOooooooXXXXXX",
"XXXXXXooooooOOOOOO                                                            OOOOOOooooooXXXXXX",
"XXXXXXooooooOOOOOO                                                            OOOOOOooooooXXXXXX",
"XXXXXXooooooOOOOOO                                                            OOOOOOooooooXXXXXX",
"XXXXXXooooooOOOOOO                                                            OOOOOOooooooXXXXXX",
"XXXXXXooooooOOOOOO                                                            OOOOOOooooooXXXXXX",
"XXXXXXooooooOOOOOO                                                            OOOOOOooooooXXXXXX",
"XXXXXXooooooOOOOOO                                                            OOOOOOooooooXXXXXX",
"XXXXXXooooooOOOOOO                                                            OOOOOOooooooXXXXXX",
"XXXXXXooooooOOOOOO                                                            OOOOOOooooooXXXXXX",
"XXXXXXooooooOOOOOO                                                            OOOOOOooooooXXXXXX",
"XXXXXXooooooOOOOOO                                                            OOOOOOooooooXXXXXX",
"XXXXXXooooooOOOOOO                                                            OOOOOOooooooXXXXXX",
"XXXXXXooooooOOOOOO                                                            OOOOOOooooooXXXXXX",
"XXXXXXooooooOOOOOO                                                            OOOOOOooooooXXXXXX",
"XXXXXXooooooOOOOOO                                                            OOOOOOooooooXXXXXX",
"XXXXXXooooooOOOOOO                                                            OOOOOOooooooXXXXXX",
"XXXXXXooooooOOOOOO                                                            OOOOOOooooooXXXXXX",
"XXXXXXooooooOOOOOOOOOOOOOOOOOOOOOOOOOOOOOOOOOOOOOOOOOOOOOOOOOOOOOOOOOOOOOOOOOOOOOOOOooooooXXXXXX",
"XXXXXXooooooOOOOOOOOOOOOOOOOOOOOOOOOOOOOOOOOOOOOOOOOOOOOOOOOOOOOOOOOOOOOOOOOOOOOOOOOooooooXXXXXX",
"XXXXXXooooooOOOOOOOOOOOOOOOOOOOOOOOOOOOOOOOOOOOOOOOOOOOOOOOOOOOOOOOOOOOOOOOOOOOOOOOOooooooXXXXXX",
"XXXXXXooooooOOOOOOOOOOOOOOOOOOOOOOOOOOOOOOOOOOOOOOOOOOOOOOOOOOOOOOOOOOOOOOOOOOOOOOOOooooooXXXXXX",
"XXXXXXooooooOOOOOOOOOOOOOOOOOOOOOOOOOOOOOOOOOOOOOOOOOOOOOOOOOOOOOOOOOOOOOOOOOOOOOOOOooooooXXXXXX",
"XXXXXXooooooOOOOOOOOOOOOOOOOOOOOOOOOOOOOOOOOOOOOOOOOOOOOOOOOOOOOOOOOOOOOOOOOOOOOOOOOooooooXXXXXX",
"XXXXXXooooooooooooooooooooooooooooooooooooooooooooooooooooooooooooooooooooooooooooooooooooXXXXXX",
"XXXXXXooooooooooooooooooooooooooooooooooooooooooooooooooooooooooooooooooooooooooooooooooooXXXXXX",
"XXXXXXooooooooooooooooooooooooooooooooooooooooooooooooooooooooooooooooooooooooooooooooooooXXXXXX",
"XXXXXXooooooooooooooooooooooooooooooooooooooooooooooooooooooooooooooooooooooooooooooooooooXXXXXX",
"XXXXXXooooooooooooooooooooooooooooooooooooooooooooooooooooooooooooooooooooooooooooooooooooXXXXXX",
"XXXXXXooooooooooooooooooooooooooooooooooooooooooooooooooooooooooooooooooooooooooooooooooooXXXXXX",
"XXXXXXXXXXXXXXXXXXXXXXXXXXXXXXXXXXXXXXXXXXXXXXXXXXXXXXXXXXXXXXXXXXXXXXXXXXXXXXXXXXXXXXXXXXXXXXXX",
"XXXXXXXXXXXXXXXXXXXXXXXXXXXXXXXXXXXXXXXXXXXXXXXXXXXXXXXXXXXXXXXXXXXXXXXXXXXXXXXXXXXXXXXXXXXXXXXX",
"XXXXXXXXXXXXXXXXXXXXXXXXXXXXXXXXXXXXXXXXXXXXXXXXXXXXXXXXXXXXXXXXXXXXXXXXXXXXXXXXXXXXXXXXXXXXXXXX",
"XXXXXXXXXXXXXXXXXXXXXXXXXXXXXXXXXXXXXXXXXXXXXXXXXXXXXXXXXXXXXXXXXXXXXXXXXXXXXXXXXXXXXXXXXXXXXXXX",
"XXXXXXXXXXXXXXXXXXXXXXXXXXXXXXXXXXXXXXXXXXXXXXXXXXXXXXXXXXXXXXXXXXXXXXXXXXXXXXXXXXXXXXXXXXXXXXXX",
"XXXXXXXXXXXXXXXXXXXXXXXXXXXXXXXXXXXXXXXXXXXXXXXXXXXXXXXXXXXXXXXXXXXXXXXXXXXXXXXXXXXXXXXXXXXXXXXX"
};
