/* XPM */
static char *result[] = {
/* columns rows colors chars-per-pixel */
"96 96 4 1 ",
"  c #25131A",
". c #C09344",
"X c #FFD569",
"o c None",
/* pixels */
"oooooooooooooooooooooooooooooooooooooooooooooooooooooooooooooooooooooooooooooooooooooooooooooooo",
"oooooooooooooooooooooooooooooooooooooooooooooooooooooooooooooooooooooooooooooooooooooooooooooooo",
"oooooooooooooooooooooooooooooooooooooooooooooooooooooooooooooooooooooooooooooooooooooooooooooooo",
"oooooooooooooooooooooooooooooooooooooooooooooooooooooooooooooooooooooooooooooooooooooooooooooooo",
"oooooooooooooooooooooooooooooooooooooooooooooooooooooooooooooooooooooooooooooooooooooooooooooooo",
"oooooooooooooooooooooooooooooooooooooooooooooooooooooooooooooooooooooooooooooooooooooooooooooooo",
"oooooooooooooooooooooooooooooooooooooooooooooooooooooooooooooooooooooooooooooooooooooooooooooooo",
"oooooooooooooooooooooooooooooooooooooooooooooooooooooooooooooooooooooooooooooooooooooooooooooooo",
"oooooooooooooooooooooooooooooooooooooooooooooooooooooooooooooooooooooooooooooooooooooooooooooooo",
"oooooooooooooooooooooooooooooooooooooooooooooooooooooooooooooooooooooooooooooooooooooooooooooooo",
"oooooooooooooooooooooooooooooooooooooooooooooooooooooooooooooooooooooooooooooooooooooooooooooooo",
"oooooooooooooooooooooooooooooooooooooooooooooooooooooooooooooooooooooooooooooooooooooooooooooooo",
"oooooooooooooooooooooooooooooooooooooooooooooooooooooooooooooooooooooooooooooooooooooooooooooooo",
"oooooooooooooooooooooooooooooooooooooooooooooooooooooooooooooooooooooooooooooooooooooooooooooooo",
"oooooooooooooooooooooooooooooooooooooooooooooooooooooooooooooooooooooooooooooooooooooooooooooooo",
"oooooooooooooooooooooooooooooooooooooooooooooooooooooooooooooooooooooooooooooooooooooooooooooooo",
"oooooooooooooooooooooooooooooooooooooooooooooooooooooooooooooooooooooooooooooooooooooooooooooooo",
"oooooooooooooooooooooooooooooooooooooooooooooooooooooooooooooooooooooooooooooooooooooooooooooooo",
"oooooooooooooooooooooooooooooooooooooooooo            oooooooooooooooooooooooooooooooooooooooooo",
"oooooooooooooooooooooooooooooooooooooooooo            oooooooooooooooooooooooooooooooooooooooooo",
"oooooooooooooooooooooooooooooooooooooooooo            oooooooooooooooooooooooooooooooooooooooooo",
"oooooooooooooooooooooooooooooooooooooooooo            oooooooooooooooooooooooooooooooooooooooooo",
"oooooooooooooooooooooooooooooooooooooooooo            oooooooooooooooooooooooooooooooooooooooooo",
"oooooooooooooooooooooooooooooooooooooooooo            oooooooooooooooooooooooooooooooooooooooooo",
"oooooooooooooooooooooooooooooooooooo      ............      oooooooooooooooooooooooooooooooooooo",
"oooooooooooooooooooooooooooooooooooo      ............      oooooooooooooooooooooooooooooooooooo",
"oooooooooooooooooooooooooooooooooooo      ............      oooooooooooooooooooooooooooooooooooo",
"oooooooooooooooooooooooooooooooooooo      ............      oooooooooooooooooooooooooooooooooooo",
"oooooooooooooooooooooooooooooooooooo      ............      oooooooooooooooooooooooooooooooooooo",
"oooooooooooooooooooooooooooooooooooo      ............      oooooooooooooooooooooooooooooooooooo",
"oooooooooooooooooooooooooooooooooooo      ......XXXXXX      oooooooooooooooooooooooooooooooooooo",
"oooooooooooooooooooooooooooooooooooo      ......XXXXXX      oooooooooooooooooooooooooooooooooooo",
"oooooooooooooooooooooooooooooooooooo      ......XXXXXX      oooooooooooooooooooooooooooooooooooo",
"oooooooooooooooooooooooooooooooooooo      ......XXXXXX      oooooooooooooooooooooooooooooooooooo",
"oooooooooooooooooooooooooooooooooooo      ......XXXXXX      oooooooooooooooooooooooooooooooooooo",
"oooooooooooooooooooooooooooooooooooo      ......XXXXXX      oooooooooooooooooooooooooooooooooooo",
"oooooooooooooooooooooooooooooooooooo      ......XXXXXX      oooooooooooooooooooooooooooooooooooo",
"oooooooooooooooooooooooooooooooooooo      ......XXXXXX      oooooooooooooooooooooooooooooooooooo",
"oooooooooooooooooooooooooooooooooooo      ......XXXXXX      oooooooooooooooooooooooooooooooooooo",
"oooooooooooooooooooooooooooooooooooo      ......XXXXXX      oooooooooooooooooooooooooooooooooooo",
"oooooooooooooooooooooooooooooooooooo      ......XXXXXX      oooooooooooooooooooooooooooooooooooo",
"oooooooooooooooooooooooooooooooooooo      ......XXXXXX      oooooooooooooooooooooooooooooooooooo",
"oooooooooooooooooooooooooooooooooooo      ............      oooooooooooooooooooooooooooooooooooo",
"oooooooooooooooooooooooooooooooooooo      ............      oooooooooooooooooooooooooooooooooooo",
"oooooooooooooooooooooooooooooooooooo      ............      oooooooooooooooooooooooooooooooooooo",
"oooooooooooooooooooooooooooooooooooo      ............      oooooooooooooooooooooooooooooooooooo",
"oooooooooooooooooooooooooooooooooooo      ............      oooooooooooooooooooooooooooooooooooo",
"oooooooooooooooooooooooooooooooooooo      ............      oooooooooooooooooooooooooooooooooooo",
"oooooooooooooooooooooooooooooooooooo      ............      oooooooooooooooooooooooooooooooooooo",
"oooooooooooooooooooooooooooooooooooo      ............      oooooooooooooooooooooooooooooooooooo",
"oooooooooooooooooooooooooooooooooooo      ............      oooooooooooooooooooooooooooooooooooo",
"oooooooooooooooooooooooooooooooooooo      ............      oooooooooooooooooooooooooooooooooooo",
"oooooooooooooooooooooooooooooooooooo      ............      oooooooooooooooooooooooooooooooooooo",
"oooooooooooooooooooooooooooooooooooo      ............      oooooooooooooooooooooooooooooooooooo",
"oooooooooooooooooooooooooooooooooooo      ......XXXXXX      oooooooooooooooooooooooooooooooooooo",
"oooooooooooooooooooooooooooooooooooo      ......XXXXXX      oooooooooooooooooooooooooooooooooooo",
"oooooooooooooooooooooooooooooooooooo      ......XXXXXX      oooooooooooooooooooooooooooooooooooo",
"oooooooooooooooooooooooooooooooooooo      ......XXXXXX      oooooooooooooooooooooooooooooooooooo",
"oooooooooooooooooooooooooooooooooooo      ......XXXXXX      oooooooooooooooooooooooooooooooooooo",
"oooooooooooooooooooooooooooooooooooo      ......XXXXXX      oooooooooooooooooooooooooooooooooooo",
"oooooooooooooooooooooooooooooooooooo      ......XXXXXX      oooooooooooooooooooooooooooooooooooo",
"oooooooooooooooooooooooooooooooooooo      ......XXXXXX      oooooooooooooooooooooooooooooooooooo",
"oooooooooooooooooooooooooooooooooooo      ......XXXXXX      oooooooooooooooooooooooooooooooooooo",
"oooooooooooooooooooooooooooooooooooo      ......XXXXXX      oooooooooooooooooooooooooooooooooooo",
"oooooooooooooooooooooooooooooooooooo      ......XXXXXX      oooooooooooooooooooooooooooooooooooo",
"oooooooooooooooooooooooooooooooooooo      ......XXXXXX      oooooooooooooooooooooooooooooooooooo",
"oooooooooooooooooooooooooooooooooooo      ............      oooooooooooooooooooooooooooooooooooo",
"oooooooooooooooooooooooooooooooooooo      ............      oooooooooooooooooooooooooooooooooooo",
"oooooooooooooooooooooooooooooooooooo      ............      oooooooooooooooooooooooooooooooooooo",
"oooooooooooooooooooooooooooooooooooo      ............      oooooooooooooooooooooooooooooooooooo",
"oooooooooooooooooooooooooooooooooooo      ............      oooooooooooooooooooooooooooooooooooo",
"oooooooooooooooooooooooooooooooooooo      ............      oooooooooooooooooooooooooooooooooooo",
"oooooooooooooooooooooooooooooooooooooooooo            oooooooooooooooooooooooooooooooooooooooooo",
"oooooooooooooooooooooooooooooooooooooooooo            oooooooooooooooooooooooooooooooooooooooooo",
"oooooooooooooooooooooooooooooooooooooooooo            oooooooooooooooooooooooooooooooooooooooooo",
"oooooooooooooooooooooooooooooooooooooooooo            oooooooooooooooooooooooooooooooooooooooooo",
"oooooooooooooooooooooooooooooooooooooooooo            oooooooooooooooooooooooooooooooooooooooooo",
"oooooooooooooooooooooooooooooooooooooooooo            oooooooooooooooooooooooooooooooooooooooooo",
"oooooooooooooooooooooooooooooooooooooooooooooooooooooooooooooooooooooooooooooooooooooooooooooooo",
"oooooooooooooooooooooooooooooooooooooooooooooooooooooooooooooooooooooooooooooooooooooooooooooooo",
"oooooooooooooooooooooooooooooooooooooooooooooooooooooooooooooooooooooooooooooooooooooooooooooooo",
"oooooooooooooooooooooooooooooooooooooooooooooooooooooooooooooooooooooooooooooooooooooooooooooooo",
"oooooooooooooooooooooooooooooooooooooooooooooooooooooooooooooooooooooooooooooooooooooooooooooooo",
"oooooooooooooooooooooooooooooooooooooooooooooooooooooooooooooooooooooooooooooooooooooooooooooooo",
"oooooooooooooooooooooooooooooooooooooooooooooooooooooooooooooooooooooooooooooooooooooooooooooooo",
"oooooooooooooooooooooooooooooooooooooooooooooooooooooooooooooooooooooooooooooooooooooooooooooooo",
"oooooooooooooooooooooooooooooooooooooooooooooooooooooooooooooooooooooooooooooooooooooooooooooooo",
"oooooooooooooooooooooooooooooooooooooooooooooooooooooooooooooooooooooooooooooooooooooooooooooooo",
"oooooooooooooooooooooooooooooooooooooooooooooooooooooooooooooooooooooooooooooooooooooooooooooooo",
"oooooooooooooooooooooooooooooooooooooooooooooooooooooooooooooooooooooooooooooooooooooooooooooooo",
"oooooooooooooooooooooooooooooooooooooooooooooooooooooooooooooooooooooooooooooooooooooooooooooooo",
"oooooooooooooooooooooooooooooooooooooooooooooooooooooooooooooooooooooooooooooooooooooooooooooooo",
"oooooooooooooooooooooooooooooooooooooooooooooooooooooooooooooooooooooooooooooooooooooooooooooooo",
"oooooooooooooooooooooooooooooooooooooooooooooooooooooooooooooooooooooooooooooooooooooooooooooooo",
"oooooooooooooooooooooooooooooooooooooooooooooooooooooooooooooooooooooooooooooooooooooooooooooooo",
"oooooooooooooooooooooooooooooooooooooooooooooooooooooooooooooooooooooooooooooooooooooooooooooooo"
};
