/* XPM */
static char *result[] = {
/* columns rows colors chars-per-pixel */
"128 128 2 1 ",
"  c #362030",
". c #3D253B",
/* pixels */
"................................................................................................................................",
"................................................................................................................................",
"................................................................................................................................",
"................................................................................................................................",
"................................................................................................................................",
"................................................................................................................................",
"................................................................................................................................",
"................................................................................................................................",
"................................................................................................................................",
"................................................................................................................................",
"................................................................................................................................",
"................................................................................................................................",
"................................................................................................................................",
"................................................................................................................................",
"................................................................................................................................",
"................................................................................................................................",
"................................................................................................................................",
"................................................................................................................................",
"................................................................................................................................",
"................................................................................................................................",
"................................................................................................................................",
"................................................................................................................................",
"................................................................................................................................",
"................................................................................................................................",
"........................................................        ................................................................",
"........................................................        ................................................................",
"........................................................        ................................................................",
"........................................................        ................................................................",
"........................................................        ................................................................",
"........................................................        ................................................................",
"........................................................        ................................................................",
"........................................................        ................................................................",
"........................................................        ................................................................",
"........................................................        ................................................................",
"........................................................        ................................................................",
"........................................................        ................................................................",
"........................................................        ................................................................",
"........................................................        ................................................................",
"........................................................        ................................................................",
"........................................................        ................................................................",
"........................................................        ................................................................",
"........................................................        ................................................................",
"........................................................        ................................................................",
"........................................................        ................................................................",
"........................................................        ................................................................",
"........................................................        ................................................................",
"........................................................        ................................................................",
"........................................................        ................................................................",
"........................................................                                                                        ",
"........................................................                                                                        ",
"........................................................                                                                        ",
"........................................................                                                                        ",
"........................................................                                                                        ",
"........................................................                                                                        ",
"........................................................                                                                        ",
"........................................................                                                                        ",
"........................................................        ........................................................        ",
"........................................................        ........................................................        ",
"........................................................        ........................................................        ",
"........................................................        ........................................................        ",
"........................................................        ........................................................        ",
"........................................................        ........................................................        ",
"........................................................        ........................................................        ",
"........................................................        ........................................................        ",
"........................................................        ........................................................        ",
"........................................................        ........................................................        ",
"........................................................        ........................................................        ",
"........................................................        ........................................................        ",
"........................................................        ........................................................        ",
"........................................................        ........................................................        ",
"........................................................        ........................................................        ",
"........................................................        ........................................................        ",
"........................................................        ................................................................",
"........................................................        ................................................................",
"........................................................        ................................................................",
"........................................................        ................................................................",
"........................................................        ................................................................",
"........................................................        ................................................................",
"........................................................        ................................................................",
"........................................................        ................................................................",
"................................................................................................................................",
"................................................................................................................................",
"................................................................................................................................",
"................................................................................................................................",
"................................................................................................................................",
"................................................................................................................................",
"................................................................................................................................",
"................................................................................................................................",
"................................................................................................................................",
"................................................................................................................................",
"................................................................................................................................",
"................................................................................................................................",
"................................................................................................................................",
"................................................................................................................................",
"................................................................................................................................",
"................................................................................................................................",
"................................................................................................................................",
"................................................................................................................................",
"................................................................................................................................",
"................................................................................................................................",
"................................................................................................................................",
"................................................................................................................................",
"................................................................................................................................",
"................................................................................................................................",
"................................................................................................................................",
"................................................................................................................................",
"................................................................................................................................",
"................................................................................................................................",
"................................................................................................................................",
"................................................................................................................................",
"................................................................................................................................",
"................................................................................................................................",
"................................................................................................................................",
"................................................................................................................................",
"................................................................................................................................",
"................................................................................................................................",
"................................................................................................................................",
"................................................................................................................................",
"................................................................................................................................",
"................................................................................................................................",
"................................................................................................................................",
"................................................................................................................................",
"................................................................................................................................",
"................................................................................................................................",
"................................................................................................................................",
"................................................................................................................................",
"................................................................................................................................",
"................................................................................................................................"
};
